<svg width="18" height="16" viewBox="0 0 18 16" fill="none" xmlns="http://www.w3.org/2000/svg">
<path d="M17.3418 6.53141L11.5215 0.69679C11.2624 0.437109 10.842 0.436644 10.5823 0.695628C10.3226 0.954646 10.3221 1.37513 10.5811 1.63478L16.402 7.47003C16.6609 7.72895 16.6609 8.15027 16.4014 8.40975L10.5811 14.2444C10.3221 14.5041 10.3226 14.9245 10.5823 15.1836C10.7119 15.3128 10.8817 15.3775 11.0513 15.3775C11.2215 15.3775 11.3918 15.3124 11.5215 15.1824L17.3412 9.34834C18.1179 8.57155 18.1179 7.3076 17.3418 6.53141Z" fill="black"/>
<path d="M13.6413 7.2755H1.58792C1.22113 7.2755 0.923828 7.57283 0.923828 7.93959C0.923828 8.30635 1.22113 8.60369 1.58792 8.60369H13.6413C14.0081 8.60369 14.3054 8.30639 14.3054 7.93959C14.3054 7.5728 14.0081 7.2755 13.6413 7.2755Z" fill="black"/>
</svg>
