<svg width="29" height="24" viewBox="0 0 29 24" fill="none" xmlns="http://www.w3.org/2000/svg">
<path d="M26.8782 0.956299H1.57822C0.943423 0.956299 0.428223 1.4715 0.428223 2.1063V15.4463C0.428223 16.0811 0.943423 16.5963 1.57822 16.5963H26.8782C27.513 16.5963 28.0282 16.0811 28.0282 15.4463V2.1063C28.0282 1.4715 27.513 0.956299 26.8782 0.956299ZM11.9167 10.783C11.2819 10.783 10.7667 11.2982 10.7667 11.933C10.7667 12.5678 11.2819 13.083 11.9167 13.083H13.0782V14.2963H2.72822V3.2563H13.0782V4.4753H13.061C11.5234 4.4753 10.2722 5.69775 10.2722 7.2008C10.2722 8.70385 11.5234 9.9263 13.061 9.9263H15.4012C15.6628 9.9263 15.8842 10.1235 15.8842 10.3575C15.8842 10.5881 15.6628 10.783 15.4012 10.783H11.9167ZM25.7282 14.2963H15.3782V13.083H15.4012C16.7438 13.083 17.8674 12.1469 18.1273 10.9061C18.1647 10.729 18.1842 10.5456 18.1842 10.3575C18.1842 10.1695 18.1647 9.98552 18.1273 9.80785C17.8674 8.5647 16.7438 7.6263 15.4012 7.6263H13.061C12.7959 7.6263 12.5722 7.43137 12.5722 7.2008C12.5722 6.9662 12.7913 6.7753 13.061 6.7753H16.5397C17.1745 6.7753 17.6897 6.2601 17.6897 5.6253C17.6897 4.9905 17.1745 4.4753 16.5397 4.4753H15.3782V3.2563H25.7282V14.2963Z" fill="#00982F"/>
<path d="M26.8782 17.9964H1.57822C0.943423 17.9964 0.428223 18.5116 0.428223 19.1464C0.428223 19.7812 0.943423 20.2964 1.57822 20.2964H26.8782C27.513 20.2964 28.0282 19.7812 28.0282 19.1464C28.0282 18.5116 27.513 17.9964 26.8782 17.9964Z" fill="#00982F"/>
<path d="M26.8782 21.6563H1.57822C0.943423 21.6563 0.428223 22.1715 0.428223 22.8063C0.428223 23.4411 0.943423 23.9563 1.57822 23.9563H26.8782C27.513 23.9563 28.0282 23.4411 28.0282 22.8063C28.0282 22.1715 27.513 21.6563 26.8782 21.6563Z" fill="#00982F"/>
</svg>
