<svg width="25" height="28" viewBox="0 0 25 28" fill="none" xmlns="http://www.w3.org/2000/svg">
<path d="M24.0382 7.98611C24.0365 7.89329 24.0253 7.8016 24.0016 7.71441C23.9915 7.67672 23.9713 7.64354 23.9572 7.60753C23.9358 7.55241 23.9184 7.49616 23.8891 7.44497C23.8689 7.40953 23.8396 7.38084 23.8155 7.34821C23.7817 7.30209 23.7519 7.25427 23.7114 7.21377C23.6827 7.18508 23.6461 7.16427 23.6146 7.13896C23.5713 7.10408 23.5314 7.06527 23.4824 7.03658C23.4802 7.03545 23.4774 7.03489 23.4751 7.03377C23.4729 7.03264 23.4718 7.03095 23.4695 7.02983L12.7817 0.982765C12.438 0.788134 12.0172 0.788134 11.6735 0.982765L6.50004 3.91236C6.49947 3.91236 6.49891 3.91292 6.49835 3.91292L0.985676 7.02927C0.983426 7.03039 0.981739 7.03264 0.979489 7.03377C0.977238 7.03489 0.974988 7.03545 0.972738 7.03658C0.924924 7.06414 0.886673 7.10239 0.844484 7.13615C0.811296 7.16258 0.773607 7.18396 0.744356 7.21377C0.70273 7.2554 0.671791 7.30434 0.637478 7.35159C0.614414 7.38309 0.586289 7.41122 0.5666 7.44497C0.534537 7.50009 0.514849 7.56085 0.492911 7.62104C0.481098 7.65254 0.463097 7.68122 0.45466 7.71441C0.431596 7.79879 0.422033 7.88654 0.419783 7.97598C0.419221 7.98611 0.415283 7.99623 0.415283 8.00748V20.6641C0.415283 21.0697 0.63354 21.4438 0.986239 21.6435L11.6741 27.6905C11.7315 27.7226 11.7928 27.7417 11.8535 27.7631C11.8828 27.7738 11.9103 27.7907 11.9407 27.7985C12.0346 27.8239 12.1314 27.8368 12.2282 27.8368C12.3249 27.8368 12.4217 27.8239 12.5156 27.7991C12.546 27.7912 12.573 27.7744 12.6028 27.7637C12.6635 27.7423 12.7249 27.7232 12.7822 27.6911L23.4701 21.644C23.8228 21.4443 24.041 21.0703 24.041 20.6647V8.00805C24.041 8.00017 24.0382 7.99342 24.0382 7.98611ZM12.2282 3.25365L20.6316 8.00861L17.7397 9.6461L9.33681 4.89114L12.2282 3.25365ZM11.1031 24.7823L2.66535 20.0082V9.93805L11.1031 14.7166V24.7823ZM12.2282 12.7675L3.82526 8.00861L7.05243 6.18437L15.4564 10.9393L12.2282 12.7675ZM21.791 20.0082L13.3532 24.7823V14.7166L21.791 9.93805V20.0082Z" fill="#00982F"/>
</svg>
