<svg width="20" height="21" viewBox="0 0 20 21" fill="none" xmlns="http://www.w3.org/2000/svg">
<path d="M18.2823 3.79401H13.5558V2.89557C13.5558 1.60323 12.5044 0.551819 11.212 0.551819H8.47766C7.18532 0.551819 6.13391 1.60323 6.13391 2.89557V3.79401H1.40735C0.975864 3.79401 0.626099 4.14377 0.626099 4.57526C0.626099 5.00674 0.975864 5.35651 1.40735 5.35651H2.21641L3.16852 17.6997C3.16879 17.7033 3.16911 17.707 3.16942 17.7106C3.24036 18.4889 3.59731 19.2077 4.1745 19.7347C4.75168 20.2616 5.49997 20.5518 6.28149 20.5518H13.4082C15.0358 20.5518 16.3737 19.3396 16.5203 17.7322C16.5595 17.3024 16.2429 16.9224 15.8132 16.8832C15.3831 16.844 15.0034 17.1606 14.9642 17.5903C14.8915 18.3879 14.2226 18.9893 13.4082 18.9893H6.28149C5.46989 18.9893 4.802 18.3811 4.7259 17.5736L3.78356 5.35651H15.9061L15.2389 14.0074C15.2057 14.4376 15.5275 14.8132 15.9577 14.8464C15.9782 14.848 15.9985 14.8487 16.0187 14.8487C16.4229 14.8487 16.7652 14.5372 16.7968 14.1275L17.4733 5.35651H18.2823C18.7138 5.35651 19.0636 5.00674 19.0636 4.57526C19.0636 4.14377 18.7138 3.79401 18.2823 3.79401ZM11.9933 3.79401H7.69641V2.89557C7.69641 2.46479 8.04688 2.11432 8.47766 2.11432H11.212C11.6428 2.11432 11.9933 2.46479 11.9933 2.89557V3.79401Z" fill="white"/>
<path d="M6.29511 6.91973C5.86406 6.93856 5.52988 7.30325 5.5487 7.73434L5.93933 16.677C5.95765 17.0965 6.30347 17.4242 6.71925 17.4242C6.73073 17.4242 6.74234 17.424 6.75394 17.4234C7.18499 17.4046 7.51917 17.0399 7.50034 16.6088L7.10972 7.6661C7.09089 7.23508 6.7255 6.90036 6.29511 6.91973Z" fill="white"/>
<path d="M12.5799 7.66615L12.1893 16.6089C12.1705 17.0399 12.5047 17.4047 12.9357 17.4235C12.9473 17.424 12.9589 17.4243 12.9704 17.4243C13.3861 17.4243 13.732 17.0965 13.7503 16.6771L14.1409 7.7344C14.1598 7.30334 13.8256 6.93861 13.3945 6.91979C12.9642 6.90053 12.5988 7.2351 12.5799 7.66615Z" fill="white"/>
<path d="M9.0636 7.70026V16.643C9.0636 17.0744 9.41336 17.4242 9.84485 17.4242C10.2763 17.4242 10.6261 17.0744 10.6261 16.643V7.70026C10.6261 7.26877 10.2763 6.91901 9.84485 6.91901C9.41336 6.91901 9.0636 7.26877 9.0636 7.70026Z" fill="white"/>
</svg>
