<svg width="14" height="10" viewBox="0 0 14 10" fill="none" xmlns="http://www.w3.org/2000/svg">
<path d="M0.877188 3.34791L3.79844 0.429314C4.10367 0.124353 4.59832 0.124587 4.90328 0.429822C5.20824 0.735056 5.20801 1.2297 4.90277 1.53467L1.98176 4.45299C1.67715 4.75759 1.67715 5.25322 1.98176 5.55783L1.98516 5.56127L4.90641 8.51892C5.20961 8.82592 5.20656 9.32056 4.89957 9.62377C4.74734 9.77416 4.54895 9.8492 4.35063 9.8492C4.14906 9.8492 3.94758 9.77166 3.79477 9.61693L0.875 6.6608C-0.036953 5.74681 -0.0362892 4.26138 0.877188 3.34791Z" fill="#00982F"/>
<path d="M4.89746 4.2242H13.2178C13.6493 4.2242 13.999 4.57396 13.999 5.00545C13.999 5.43693 13.6493 5.7867 13.2178 5.7867H4.89746C4.46598 5.7867 4.11621 5.43693 4.11621 5.00545C4.11621 4.57396 4.46598 4.2242 4.89746 4.2242Z" fill="#00982F"/>
</svg>
