<svg width="16" height="16" viewBox="0 0 16 16" fill="none" xmlns="http://www.w3.org/2000/svg">
<path d="M9.201 7.71163L15.7007 1.2119C15.9295 0.98306 15.9295 0.612045 15.7007 0.383237C15.4719 0.154429 15.1008 0.1544 14.872 0.383237L8.37231 6.88297L1.8726 0.383237C1.64377 0.1544 1.27275 0.1544 1.04394 0.383237C0.815134 0.612074 0.815105 0.983089 1.04394 1.2119L7.54365 7.7116L1.04394 14.2113C0.815105 14.4402 0.815105 14.8112 1.04394 15.04C1.15835 15.1544 1.30832 15.2116 1.45829 15.2116C1.60826 15.2116 1.7582 15.1544 1.87263 15.04L8.37231 8.54029L14.872 15.04C14.9864 15.1544 15.1364 15.2116 15.2864 15.2116C15.4363 15.2116 15.5863 15.1544 15.7007 15.04C15.9295 14.8112 15.9295 14.4401 15.7007 14.2113L9.201 7.71163Z" fill="#A9A9A9"/>
</svg>
