<svg width="24" height="26" viewBox="0 0 24 26" fill="none" xmlns="http://www.w3.org/2000/svg">
<path d="M17.9809 21.9365C17.9809 24.177 16.158 26 13.9174 26H4.06349C1.82297 26 0 24.177 0 21.9365V4.05734C0 1.81662 1.82297 0 4.06349 0H13.9174C16.158 0 17.9809 1.81662 17.9809 4.05734C17.9809 4.61832 17.5261 5.07317 16.9649 5.07317C16.4039 5.07317 15.9491 4.61832 15.9491 4.05734C15.9491 2.93698 15.0376 2.0255 13.9174 2.0255H4.06349C2.94313 2.0255 2.03165 2.93698 2.03165 4.05734V21.9365C2.03165 23.0569 2.94313 23.9745 4.06349 23.9745H13.9174C15.0376 23.9745 15.9491 23.0569 15.9491 21.9365C15.9491 21.3755 16.4039 20.9207 16.9649 20.9207C17.5261 20.9207 17.9809 21.3755 17.9809 21.9365ZM7.97464 21.3841C7.97464 21.945 8.42929 22.3999 8.99046 22.3999C9.55144 22.3999 10.0063 21.945 10.0063 21.3841C10.0063 20.8229 9.55144 20.368 8.99046 20.368C8.42929 20.368 7.97464 20.8229 7.97464 21.3841ZM11.0221 4.62228C11.0221 4.06111 10.5673 3.60626 10.0063 3.60626H7.97464C7.41347 3.60626 6.95862 4.06111 6.95862 4.62228C6.95862 5.18326 7.41347 5.63811 7.97464 5.63811H10.0063C10.5673 5.63811 11.0221 5.18326 11.0221 4.62228ZM23.3141 13.1047C23.3141 13.6657 22.8593 14.1206 22.2983 14.1206H21.6824C21.2851 15.9673 19.8277 17.4247 17.9809 17.822V18.438C17.9809 18.9991 17.5261 19.4538 16.9649 19.4538C16.4039 19.4538 15.9491 18.9991 15.9491 18.438V17.822C14.1023 17.4247 12.6449 15.9675 12.2476 14.1206H11.6317C11.0707 14.1206 10.6159 13.6657 10.6159 13.1047C10.6159 12.5436 11.0707 12.0889 11.6317 12.0889H12.2476C12.6449 10.2419 14.1023 8.78456 15.9491 8.38724V7.77132C15.9491 7.21034 16.4039 6.75549 16.9649 6.75549C17.5261 6.75549 17.9809 7.21034 17.9809 7.77132V8.38724C19.8277 8.78456 21.2851 10.2419 21.6824 12.0889H22.2983C22.8593 12.0889 23.3141 12.5436 23.3141 13.1047ZM19.5684 14.116C19.0489 14.0712 18.6411 13.6358 18.6411 13.1047C18.6411 12.5735 19.0489 12.1383 19.5684 12.0933C19.2846 11.3653 18.7044 10.7851 17.9764 10.5014C17.9313 11.0207 17.4961 11.4286 16.9649 11.4286C16.4339 11.4286 15.9987 11.0207 15.9536 10.5014C15.2256 10.7851 14.6454 11.3653 14.3616 12.0933C14.8811 12.1383 15.2887 12.5735 15.2887 13.1047C15.2887 13.6358 14.8811 14.0712 14.3616 14.116C14.6462 14.846 15.2288 15.4274 15.9594 15.7104C16.0266 15.2143 16.4505 14.8317 16.9651 14.8317C17.4795 14.8317 17.9034 15.2143 17.9706 15.7104C18.7012 15.4274 19.2838 14.846 19.5684 14.116Z" fill="#00982F"/>
</svg>
