<svg width="20" height="18" viewBox="0 0 20 18" fill="none" xmlns="http://www.w3.org/2000/svg">
<path d="M6.33836 11.2296H3.95168C3.51949 11.2296 3.16918 11.58 3.16918 12.0121C3.16918 12.4443 3.51953 12.7946 3.95168 12.7946H6.33836C6.77055 12.7946 7.12086 12.4443 7.12086 12.0121C7.1209 11.58 6.77055 11.2296 6.33836 11.2296Z" fill="white"/>
<path d="M9.66406 8.09957H3.95172C3.51953 8.09957 3.16922 8.44992 3.16922 8.88207C3.16922 9.31426 3.51957 9.66457 3.95172 9.66457H9.66406C10.0962 9.66457 10.4466 9.31422 10.4466 8.88207C10.4466 8.44992 10.0962 8.09957 9.66406 8.09957Z" fill="white"/>
<path d="M9.66406 4.96949H3.95172C3.51953 4.96949 3.16922 5.31984 3.16922 5.75199C3.16922 6.18414 3.51957 6.53449 3.95172 6.53449H9.6641C10.0963 6.53449 10.4466 6.18414 10.4466 5.75199C10.4466 5.31984 10.0962 4.96949 9.66406 4.96949Z" fill="white"/>
<path d="M10.4857 0.0390625H3.13008C1.40414 0.0390625 0 1.4432 0 3.16914V14.5156C0 15.3518 0.325664 16.138 0.917031 16.7292C1.50824 17.3203 2.29406 17.6457 3.13008 17.6457C3.13031 17.6457 3.13066 17.6457 3.13086 17.6457L10.4865 17.6439C12.212 17.6435 13.6158 16.2394 13.6158 14.5139V3.16914C13.6158 1.4432 12.2116 0.0390625 10.4857 0.0390625ZM12.0507 3.16914V14.5139C12.0507 15.3766 11.3488 16.0787 10.4861 16.0789L3.13043 16.0806C3.13031 16.0806 3.1302 16.0806 3.13008 16.0806C2.71211 16.0806 2.31914 15.9179 2.02355 15.6223C1.72789 15.3268 1.56504 14.9338 1.56504 14.5156V3.1691C1.56504 2.30613 2.26711 1.60406 3.13008 1.60406H10.4857C11.3487 1.6041 12.0507 2.30617 12.0507 3.16914Z" fill="white"/>
<path d="M19.2142 11.3856C19.2143 11.3856 19.2144 11.3856 19.2145 11.3856C19.6465 11.3856 19.9968 11.0354 19.997 10.6034L20 2.34754C20 1.05309 18.9469 0 17.6525 0C16.358 0 15.3049 1.05312 15.3049 2.34711L15.2982 14.5668C15.2981 14.722 15.3441 14.8737 15.4305 15.0026L16.947 17.2675C17.0902 17.4814 17.3293 17.6111 17.5867 17.6145C17.5902 17.6146 17.5938 17.6146 17.5972 17.6146C17.8506 17.6146 18.0887 17.4918 18.2355 17.2846L19.8502 15.0073C20.1001 14.6548 20.017 14.1664 19.6644 13.9164C19.3119 13.6664 18.8235 13.7496 18.5735 14.1022L17.6156 15.4531L16.8634 14.3296L16.8689 4.26469H18.4343L18.432 10.6027C18.4318 11.0349 18.782 11.3854 19.2142 11.3856ZM16.8697 2.69961L16.8699 2.34746C16.8699 1.91598 17.221 1.56496 17.6524 1.56496C18.0839 1.56496 18.4349 1.91598 18.4349 2.34715L18.4348 2.69961H16.8697Z" fill="white"/>
</svg>
