<svg width="42" height="24" viewBox="0 0 42 24" fill="none" xmlns="http://www.w3.org/2000/svg">
<path d="M38.3757 10.7376H36.5625L32.4494 5.66969C31.4902 4.4877 30.0671 3.80988 28.5448 3.80988H26.3712C26.2518 2.12905 24.8471 0.797852 23.1364 0.797852H6.99005C6.27908 0.797852 5.70265 1.37429 5.70265 2.08525V5.22787C5.612 5.20769 5.51824 5.19612 5.42144 5.19612H1.2874C0.576434 5.19612 0 5.77255 0 6.4836C0 7.19457 0.576434 7.771 1.2874 7.771H5.42153C5.51824 7.771 5.61209 7.75952 5.70273 7.73925V10.6447H3.72225C3.01129 10.6447 2.43485 11.2212 2.43485 11.9321C2.43485 12.6431 3.01129 13.2195 3.72225 13.2195H5.70265V19.3602C5.70265 20.0712 6.27908 20.6476 6.99005 20.6476H10.3414C10.884 22.2993 12.4398 23.4957 14.2706 23.4957C16.1013 23.4957 17.6572 22.2993 18.1998 20.6476H25.0929C25.4632 20.6476 25.796 20.4904 26.031 20.2401H30.9403C31.3448 22.099 33.0022 23.4957 34.9806 23.4957C36.9589 23.4957 38.6164 22.099 39.0209 20.2401H40.7125C41.4235 20.2401 41.9999 19.6636 41.9999 18.9527V14.3618C42 12.3634 40.3741 10.7376 38.3757 10.7376ZM14.2706 20.9209C13.4101 20.9209 12.71 20.2207 12.71 19.3602C12.71 18.4997 13.4101 17.7996 14.2706 17.7996C15.1311 17.7996 15.8312 18.4997 15.8312 19.3602C15.8312 20.2207 15.1311 20.9209 14.2706 20.9209ZM23.8055 18.0729H18.1998C17.6571 16.4212 16.1014 15.2249 14.2706 15.2249C12.4397 15.2249 10.8839 16.4212 10.3414 18.0729H8.27753V13.2195H11.4226C12.1336 13.2195 12.71 12.6431 12.71 11.9321C12.71 11.2212 12.1336 10.6447 11.4226 10.6447H8.27753V3.37273H23.1364C23.5054 3.37273 23.8055 3.67288 23.8055 4.04186V18.0729ZM26.3803 6.38467H28.5447C29.2875 6.38459 29.9819 6.71534 30.4501 7.2921L33.2463 10.7375H30.0001V9.5738C30.0001 8.86284 29.4237 8.2864 28.7127 8.2864C28.0018 8.2864 27.4253 8.86284 27.4253 9.5738V10.7375H26.3803V6.38467ZM34.9806 20.9209C34.1201 20.9209 33.4199 20.2207 33.4199 19.3602C33.4199 18.4997 34.12 17.7996 34.9806 17.7996C35.8412 17.7996 36.5412 18.4997 36.5412 19.3602C36.5412 20.2207 35.8411 20.9209 34.9806 20.9209ZM39.4252 17.6653H38.7512C38.1026 16.2281 36.657 15.2249 34.9806 15.2249C33.3042 15.2249 31.8586 16.2281 31.2099 17.6653H26.3803V13.3125H35.9492H38.3757C38.9543 13.3125 39.4252 13.7832 39.4252 14.3619V17.6653Z" fill="#808080"/>
</svg>
