<svg width="20" height="24" viewBox="0 0 20 24" fill="none" xmlns="http://www.w3.org/2000/svg">
<path d="M18.7773 16.6094C19.2736 16.6094 19.6758 16.2071 19.6758 15.7109V4.39062C19.6758 2.40903 18.0636 0.796875 16.082 0.796875H3.59375C1.61216 0.796875 0 2.40903 0 4.39062V20.2031C0 22.1847 1.61216 23.7969 3.59375 23.7969H16.082C18.0636 23.7969 19.6758 22.1847 19.6758 20.2031C19.6758 19.7069 19.2736 19.3047 18.7773 19.3047C18.2811 19.3047 17.8789 19.7069 17.8789 20.2031C17.8789 21.1939 17.0728 22 16.082 22H3.59375C2.60295 22 1.79688 21.1939 1.79688 20.2031V4.39062C1.79688 3.39983 2.60295 2.59375 3.59375 2.59375H16.082C17.0728 2.59375 17.8789 3.39983 17.8789 4.39062V15.7109C17.8789 16.2071 18.2811 16.6094 18.7773 16.6094Z" fill="black"/>
<path d="M15.1836 18.4062H11.5898C11.0936 18.4062 10.6914 18.8085 10.6914 19.3047C10.6914 19.8009 11.0936 20.2031 11.5898 20.2031H15.1836C15.6798 20.2031 16.082 19.8009 16.082 19.3047C16.082 18.8085 15.6798 18.4062 15.1836 18.4062Z" fill="black"/>
<path d="M4.49219 11.5781C3.99598 11.5781 3.59375 11.9804 3.59375 12.4766C3.59375 12.9728 3.99598 13.375 4.49219 13.375C4.98839 13.375 5.43914 12.9728 5.43914 12.4766C5.43914 11.9804 4.98839 11.5781 4.49219 11.5781Z" fill="black"/>
<path d="M8.08594 13.375C8.58213 13.375 8.98438 12.9728 8.98438 12.4766C8.98438 11.9804 8.58213 11.5781 8.08594 11.5781C7.58974 11.5781 7.1875 11.9804 7.1875 12.4766C7.1875 12.9728 7.58974 13.375 8.08594 13.375Z" fill="black"/>
<path d="M11.6348 13.375C12.131 13.375 12.5332 12.9728 12.5332 12.4766C12.5332 11.9804 12.131 11.5781 11.6348 11.5781C11.1386 11.5781 10.7363 11.9804 10.7363 12.4766C10.7363 12.9728 11.1386 13.375 11.6348 13.375Z" fill="black"/>
<path d="M4.49219 14.9922C3.99598 14.9922 3.59375 15.3944 3.59375 15.8906C3.59375 16.3868 3.99598 16.7891 4.49219 16.7891C4.98839 16.7891 5.43555 16.3868 5.43555 15.8906C5.43555 15.3944 4.98839 14.9922 4.49219 14.9922Z" fill="black"/>
<path d="M8.08594 16.7891C8.58213 16.7891 8.98438 16.3868 8.98438 15.8906C8.98438 15.3944 8.58213 14.9922 8.08594 14.9922C7.58974 14.9922 7.1875 15.3944 7.1875 15.8906C7.1875 16.3868 7.58974 16.7891 8.08594 16.7891Z" fill="black"/>
<path d="M11.6348 16.7891C12.131 16.7891 12.5332 16.3868 12.5332 15.8906C12.5332 15.3944 12.131 14.9922 11.6348 14.9922C11.1386 14.9922 10.7363 15.3944 10.7363 15.8906C10.7363 16.3868 11.1386 16.7891 11.6348 16.7891Z" fill="black"/>
<path d="M15.1836 13.375C15.6798 13.375 16.082 12.9728 16.082 12.4766C16.082 11.9804 15.6798 11.5781 15.1836 11.5781C14.6874 11.5781 14.2852 11.9804 14.2852 12.4766C14.2852 12.9728 14.6874 13.375 15.1836 13.375Z" fill="black"/>
<path d="M4.49219 20.2031C4.98838 20.2031 5.39062 19.8009 5.39062 19.3047C5.39062 18.8085 4.98838 18.4062 4.49219 18.4062C3.99599 18.4062 3.59375 18.8085 3.59375 19.3047C3.59375 19.8009 3.99599 20.2031 4.49219 20.2031Z" fill="black"/>
<path d="M15.1836 16.7891C15.6798 16.7891 16.082 16.3868 16.082 15.8906C16.082 15.3944 15.6798 14.9922 15.1836 14.9922C14.6874 14.9922 14.2852 15.3944 14.2852 15.8906C14.2852 16.3868 14.6874 16.7891 15.1836 16.7891Z" fill="black"/>
<path d="M8.04102 20.2031C8.53721 20.2031 8.93945 19.8009 8.93945 19.3047C8.93945 18.8085 8.53721 18.4062 8.04102 18.4062C7.54482 18.4062 7.14258 18.8085 7.14258 19.3047C7.14258 19.8009 7.54482 20.2031 8.04102 20.2031Z" fill="black"/>
<path d="M15.1836 4.39062H4.49219C3.99598 4.39062 3.59375 4.79286 3.59375 5.28906V8.88281C3.59375 9.37902 3.99598 9.78125 4.49219 9.78125H15.1836C15.6798 9.78125 16.082 9.37902 16.082 8.88281V5.28906C16.082 4.79286 15.6798 4.39062 15.1836 4.39062ZM14.2852 7.98438H5.39062V6.1875H14.2852V7.98438Z" fill="black"/>
</svg>
