<svg width="36" height="36" viewBox="0 0 36 36" fill="none" xmlns="http://www.w3.org/2000/svg">
<path d="M26.1548 18.8242C31.2436 18.8242 35.3834 14.6831 35.3834 9.5957C35.3834 4.5071 31.2435 0.367188 26.1548 0.367188C21.0662 0.367188 16.9263 4.5071 16.9263 9.5957C16.9263 10.8526 17.1793 12.0514 17.6364 13.1445L13.2759 15.5121C11.9638 13.7875 9.89044 12.6719 7.5611 12.6719C3.60329 12.6719 0.383362 15.8918 0.383362 19.8496C0.383362 23.8037 3.60001 27.0273 7.5611 27.0273C9.82106 27.0273 11.9122 25.9694 13.264 24.2028L21.1323 28.6874C20.9761 29.1775 20.8912 29.6991 20.8912 30.2402C20.8912 33.0672 23.1912 35.3672 26.0182 35.3672C28.8452 35.3672 31.1451 33.0672 31.1451 30.2402C31.1451 27.4132 28.8452 25.1133 26.0182 25.1133C24.4672 25.1133 23.0759 25.8065 22.135 26.8983L14.2653 22.4129C14.5709 21.6165 14.7388 20.7524 14.7388 19.8496C14.7388 18.9538 14.5734 18.0961 14.2723 17.3047L18.633 14.9369C20.3466 17.343 23.1213 18.8242 26.1548 18.8242ZM26.1548 16.7734C24.4801 16.7734 22.9376 16.1968 21.7152 15.2318C22.6224 13.6569 24.2968 12.6719 26.1548 12.6719C28.0129 12.6719 29.6872 13.6569 30.5945 15.2318C29.3721 16.1968 27.8296 16.7734 26.1548 16.7734ZM24.1041 8.57031C24.1041 7.43951 25.024 6.51953 26.1548 6.51953C27.2856 6.51953 28.2056 7.43951 28.2056 8.57031C28.2056 9.70111 27.2856 10.6211 26.1548 10.6211C25.024 10.6211 24.1041 9.70111 24.1041 8.57031ZM26.1548 2.41797C30.1126 2.41797 33.3326 5.6379 33.3326 9.5957C33.3326 11.1172 32.8563 12.5293 32.0456 13.6917C31.3225 12.6501 30.3434 11.8297 29.213 11.2997C29.8613 10.5741 30.2564 9.61765 30.2564 8.57031C30.2564 6.30871 28.4164 4.46875 26.1548 4.46875C23.8932 4.46875 22.0533 6.30871 22.0533 8.57031C22.0533 9.61765 22.4484 10.5741 23.0967 11.2997C21.9664 11.8296 20.9872 12.6501 20.264 13.6917C19.4534 12.5293 18.9771 11.1172 18.9771 9.5957C18.9771 5.6379 22.197 2.41797 26.1548 2.41797ZM7.5611 24.9766C6.63045 24.9766 5.75771 24.726 5.00452 24.2908C5.56685 23.4528 6.52032 22.9258 7.5611 22.9258C8.60187 22.9258 9.55534 23.4528 10.1177 24.2908C9.36448 24.726 8.49174 24.9766 7.5611 24.9766ZM6.53571 19.8496C6.53571 19.2842 6.9957 18.8242 7.5611 18.8242C8.1265 18.8242 8.58649 19.2842 8.58649 19.8496C8.58649 20.415 8.1265 20.875 7.5611 20.875C6.9957 20.875 6.53571 20.415 6.53571 19.8496ZM11.6611 22.9242C11.2421 22.3676 10.7151 21.9044 10.1166 21.5599C10.4452 21.0704 10.6373 20.4821 10.6373 19.8496C10.6373 18.1534 9.2573 16.7734 7.5611 16.7734C5.86489 16.7734 4.48492 18.1534 4.48492 19.8496C4.48492 20.4821 4.67701 21.0704 5.00555 21.5599C4.40706 21.9044 3.88001 22.3676 3.46104 22.9242C2.81661 22.067 2.43414 21.0022 2.43414 19.8496C2.43414 17.0226 4.73409 14.7227 7.5611 14.7227C10.3881 14.7227 12.688 17.0226 12.688 19.8496C12.688 21.0022 12.3056 22.067 11.6611 22.9242ZM26.0181 27.1641C27.7143 27.1641 29.0943 28.544 29.0943 30.2402C29.0943 31.9364 27.7143 33.3164 26.0181 33.3164C24.3219 33.3164 22.942 31.9364 22.942 30.2402C22.942 28.544 24.3219 27.1641 26.0181 27.1641Z" fill="#808080"/>
</svg>
