<svg width="21" height="16" viewBox="0 0 21 16" fill="none" xmlns="http://www.w3.org/2000/svg">
<path d="M20.6451 0.344044C20.3087 0.0737318 19.817 0.127365 19.5467 0.463693L9.15152 13.4011C9.01042 13.552 8.81972 13.6394 8.61257 13.6477C8.39933 13.6563 8.19737 13.5801 8.04527 13.4356L2.25886 7.88904C1.94734 7.59049 1.45285 7.60099 1.15425 7.91244C0.855699 8.22392 0.866167 8.71845 1.17765 9.01705L6.96636 14.5658C7.4062 14.9839 7.97534 15.2109 8.57839 15.2109C8.61062 15.2109 8.64304 15.2102 8.67542 15.2089C9.31417 15.1833 9.90085 14.9068 10.3273 14.4306C10.3366 14.4202 10.3455 14.4096 10.3543 14.3988L20.7648 1.4424C21.035 1.10604 20.9814 0.614317 20.6451 0.344044Z" fill="white"/>
</svg>
