<svg width="15" height="15" viewBox="0 0 15 15" fill="none" xmlns="http://www.w3.org/2000/svg">
<path d="M8.32844 7.50077L14.8281 1.00104C15.057 0.772199 15.057 0.401184 14.8281 0.172376C14.5993 -0.0564324 14.2283 -0.0564617 13.9995 0.172376L7.49975 6.67211L1.00004 0.172376C0.771207 -0.0564617 0.400192 -0.0564617 0.171384 0.172376C-0.0574242 0.401213 -0.0574535 0.772228 0.171384 1.00104L6.67109 7.50074L0.171384 14.0005C-0.0574535 14.2293 -0.0574535 14.6003 0.171384 14.8291C0.285788 14.9435 0.435758 15.0007 0.585729 15.0007C0.735699 15.0007 0.885641 14.9435 1.00007 14.8291L7.49975 8.32943L13.9995 14.8291C14.1139 14.9435 14.2638 15.0007 14.4138 15.0007C14.5638 15.0007 14.7137 14.9435 14.8281 14.8291C15.057 14.6003 15.057 14.2293 14.8281 14.0005L8.32844 7.50077Z" fill="#A9A9A9"/>
</svg>
