<svg width="71" height="71" viewBox="0 0 71 71" fill="none" xmlns="http://www.w3.org/2000/svg">
<g clip-path="url(#clip0)">
<path d="M58.5199 25.0615H48.2114V50.3517H68.9657V36.9736H58.5199V25.0615Z" fill="white"/>
<path d="M48.2109 15.3025H4.36597V41.4173H48.2109V15.3025Z" fill="#F6E646"/>
<path d="M48.2109 41.4172H4.36597V50.3512H48.2109V41.4172Z" fill="white"/>
<path d="M13.3004 55.2994C16.0332 55.2994 18.2485 53.084 18.2485 50.3513C18.2485 47.6185 16.0332 45.4031 13.3004 45.4031C10.5676 45.4031 8.35228 47.6185 8.35228 50.3513C8.35228 53.084 10.5676 55.2994 13.3004 55.2994Z" fill="#F6E646"/>
<path d="M58.3821 55.2994C61.1148 55.2994 63.3302 53.084 63.3302 50.3513C63.3302 47.6185 61.1148 45.4031 58.3821 45.4031C55.6493 45.4031 53.4339 47.6185 53.4339 50.3513C53.4339 53.084 55.6493 55.2994 58.3821 55.2994Z" fill="#F6E646"/>
<path d="M58.6115 25.0615H58.5199V36.9736H68.9657V36.8819L58.6115 25.0615Z" fill="#F6E646"/>
<path d="M52.1962 51.7461C52.8335 54.5744 55.3642 56.6941 58.3823 56.6941C61.4004 56.6941 63.9312 54.5744 64.5686 51.7461H68.9657C69.7358 51.7461 70.3601 51.1217 70.3601 50.3517V36.9736C70.3601 36.5978 70.2108 36.2575 69.9691 36.0068C69.9968 35.9797 70.0145 35.9633 70.0145 35.9633L59.6602 24.1429C59.6602 24.1429 59.6349 24.1538 59.5924 24.171C59.3366 23.8633 58.9511 23.6672 58.5197 23.6672H49.6058V15.303C49.6058 14.533 48.9815 13.9086 48.2114 13.9086H4.36597C3.59583 13.9086 2.97157 14.533 2.97157 15.303V45.9335H1.7545C0.984365 45.9335 0.360107 46.5579 0.360107 47.3279C0.360107 48.0979 0.984365 48.7223 1.7545 48.7223H2.97157V50.3518C2.97157 51.1218 3.59583 51.7462 4.36597 51.7462H7.11388C7.75112 54.5745 10.2819 56.6942 13.3 56.6942C16.3181 56.6942 18.8489 54.5745 19.4862 51.7462H52.1963V51.7461H52.1962ZM59.9142 28.6651L65.9707 35.5792H59.9142V28.6651ZM46.817 40.0233H5.76036V16.6973H46.8169V40.0233H46.817ZM5.76036 42.8121H46.8169V48.9572H19.4861C18.8489 46.1289 16.3181 44.0092 13.2999 44.0092C10.2818 44.0092 7.75099 46.1289 7.11374 48.9572H5.76036V42.8121ZM13.3 53.9053C11.3405 53.9053 9.7464 52.311 9.7464 50.3517C9.7464 48.3924 11.3405 46.7981 13.3 46.7981C15.2594 46.7981 16.8537 48.3924 16.8537 50.3517C16.8536 52.311 15.2594 53.9053 13.3 53.9053ZM58.3823 53.9053C56.4229 53.9053 54.8287 52.311 54.8287 50.3517C54.8287 48.3924 56.4229 46.7981 58.3823 46.7981C60.3418 46.7981 61.936 48.3924 61.936 50.3517C61.936 52.311 60.3418 53.9053 58.3823 53.9053ZM49.6058 26.4559H57.1253V36.9735C57.1253 37.7435 57.7496 38.3679 58.5197 38.3679H67.5712V48.9572H64.5684C63.9312 46.1289 61.4004 44.0092 58.3822 44.0092C55.3641 44.0092 52.8333 46.1289 52.1961 48.9572H49.6057V26.4559H49.6058Z" fill="#00982F"/>
<path d="M43.4477 35.7197H31.7346C30.9645 35.7197 30.3402 36.3441 30.3402 37.1141C30.3402 37.8841 30.9645 38.5085 31.7346 38.5085H43.4477C44.2178 38.5085 44.8421 37.8841 44.8421 37.1141C44.8422 36.3441 44.2178 35.7197 43.4477 35.7197Z" fill="#00982F"/>
<path d="M27.412 35.7197H26.5752C25.8051 35.7197 25.1808 36.3441 25.1808 37.1141C25.1808 37.8841 25.8051 38.5085 26.5752 38.5085H27.412C28.1821 38.5085 28.8064 37.8841 28.8064 37.1141C28.8064 36.3441 28.1821 35.7197 27.412 35.7197Z" fill="#00982F"/>
</g>
<defs>
<clipPath id="clip0">
<rect x="0.360107" y="0.301392" width="70" height="70" fill="white"/>
</clipPath>
</defs>
</svg>
