<svg width="31" height="19" viewBox="0 0 31 19" fill="none" xmlns="http://www.w3.org/2000/svg">
<path d="M20.1548 0.0491943H4.44678L0.0717773 5.88232V16.2992H4.66559C5.18164 17.7537 6.56744 18.7992 8.19678 18.7992C9.82611 18.7992 11.2119 17.7537 11.728 16.2992H18.4156C18.9316 17.7537 20.3174 18.7992 21.9468 18.7992C23.5761 18.7992 24.9619 17.7537 25.478 16.2992H30.0718V8.52362L24.0305 6.50977L20.1548 0.0491943ZM15.0718 2.54919H18.7388L20.9891 6.29919H15.0718V2.54919ZM5.69678 2.54919H12.5718V6.29919H2.88428L5.69678 2.54919ZM8.19678 16.2992C7.50739 16.2992 6.94678 15.7386 6.94678 15.0492C6.94678 14.3598 7.50739 13.7992 8.19678 13.7992C8.88617 13.7992 9.44678 14.3598 9.44678 15.0492C9.44678 15.7386 8.88617 16.2992 8.19678 16.2992ZM21.9468 16.2992C21.2574 16.2992 20.6968 15.7386 20.6968 15.0492C20.6968 14.3598 21.2574 13.7992 21.9468 13.7992C22.6362 13.7992 23.1968 14.3598 23.1968 15.0492C23.1968 15.7386 22.6362 16.2992 21.9468 16.2992ZM27.5718 13.7992H25.478C24.9619 12.3447 23.5761 11.2992 21.9468 11.2992C20.3174 11.2992 18.9316 12.3447 18.4156 13.7992H11.728C11.2119 12.3447 9.82611 11.2992 8.19678 11.2992C6.56744 11.2992 5.18164 12.3447 4.66559 13.7992H2.57178V8.79919H12.5718V11.2992H15.0718V8.79919H22.9935L27.5718 10.3248V13.7992Z" fill="#00982F"/>
</svg>
