<svg width="26" height="26" viewBox="0 0 26 26" fill="none" xmlns="http://www.w3.org/2000/svg">
<path d="M11.8641 23.9246H3.04439C2.7167 23.9246 2.41811 23.7727 2.22504 23.5079C2.03192 23.2429 1.97875 22.9119 2.07909 22.5997C3.0811 19.4845 6.13691 17.3088 9.5102 17.3088C11.0798 17.3088 12.5871 17.7815 13.8692 18.6756C14.3284 18.9959 14.9602 18.8833 15.2806 18.4241C15.6008 17.9649 15.4883 17.333 15.029 17.0127C14.3944 16.57 13.7164 16.2089 13.0071 15.9332C13.9508 15.0752 14.5768 13.8738 14.6856 12.5285C16.1164 11.1346 17.992 10.3709 20.0026 10.3709C21.5721 10.3709 23.0794 10.8436 24.3615 11.7377C24.8207 12.058 25.4526 11.9454 25.773 11.4862C26.0932 11.027 25.9806 10.3951 25.5214 10.0748C24.8867 9.63212 24.2087 9.27101 23.4994 8.99532C24.5404 8.04886 25.1948 6.68448 25.1948 5.17008C25.1949 2.31933 22.8755 0 20.0247 0C17.1739 0 14.8546 2.31933 14.8546 5.17018C14.8546 6.67843 15.5038 8.03795 16.5375 8.98395C16.396 9.03838 16.2556 9.09628 16.1162 9.15762C15.4819 9.43676 14.8852 9.77944 14.3307 10.1825C13.5655 8.28256 11.7029 6.93797 9.53234 6.93797C6.68149 6.93797 4.36221 9.2573 4.36221 12.1082C4.36221 13.612 5.00764 14.9679 6.03596 15.9136C3.28626 16.944 1.05671 19.157 0.149052 21.9791C-0.151979 22.915 0.00747385 23.9076 0.586582 24.7021C1.16559 25.4966 2.06137 25.9523 3.04444 25.9523H11.8641C12.424 25.9523 12.8779 25.4984 12.8779 24.9385C12.8779 24.3787 12.4239 23.9246 11.8641 23.9246ZM20.0248 2.02749C21.7577 2.02749 23.1674 3.43727 23.1674 5.17013C23.1674 6.90299 21.7577 8.31277 20.0248 8.31277C18.2919 8.31277 16.8822 6.90299 16.8822 5.17013C16.8822 3.43727 18.2919 2.02749 20.0248 2.02749ZM9.53239 8.96541C11.2652 8.96541 12.675 10.3752 12.675 12.1081C12.675 13.8409 11.2652 15.2507 9.53239 15.2507C7.79954 15.2507 6.38975 13.8409 6.38975 12.1081C6.38975 10.3752 7.79954 8.96541 9.53239 8.96541Z" fill="#00982F"/>
<path d="M25.5316 16.5588C25.0764 16.2329 24.4431 16.3377 24.1172 16.793L19.1203 23.7727C18.9839 23.931 18.8129 23.9651 18.7212 23.9712C18.6269 23.9777 18.4438 23.9655 18.2868 23.816L15.0519 20.7098C14.648 20.322 14.0062 20.3351 13.6185 20.7389C13.2307 21.1427 13.2438 21.7845 13.6476 22.1723L16.8858 25.2815C17.3707 25.7431 18.0181 26 18.6841 26C18.7414 26 18.7987 25.9981 18.8561 25.9943C19.5817 25.9459 20.2591 25.5931 20.7147 25.0263C20.7265 25.0116 20.7378 24.9966 20.7488 24.9813L25.7659 17.9732C26.0917 17.518 25.9869 16.8847 25.5316 16.5588Z" fill="#00982F"/>
</svg>
