<svg width="16" height="17" viewBox="0 0 16 17" fill="none" xmlns="http://www.w3.org/2000/svg">
<path d="M15.0626 1.81733C14.458 1.21264 13.6541 0.879639 12.799 0.879639C11.9439 0.879639 11.1399 1.21264 10.5353 1.81729L1.58855 10.764C1.51242 10.8402 1.45727 10.9347 1.42839 11.0384L0.0231425 16.087C-0.0374513 16.3048 0.024205 16.5383 0.184486 16.6977C0.303236 16.8159 0.462361 16.8796 0.625299 16.8796C0.682236 16.8796 0.739674 16.8718 0.796018 16.8558L5.84467 15.4217C6.05767 15.3612 6.2228 15.1925 6.27867 14.9782C6.33455 14.764 6.27286 14.5361 6.11652 14.3793L2.93364 11.1867L10.3497 3.77061L13.1078 6.52867L7.43049 12.1905C7.18608 12.4343 7.18555 12.83 7.4293 13.0744C7.67302 13.3188 8.0688 13.3193 8.31318 13.0756L15.0626 6.34461C15.6672 5.73995 16.0002 4.93605 16.0002 4.08095C16.0002 3.22586 15.6672 2.42195 15.0626 1.81733ZM4.48133 14.5096L1.52608 15.349L2.35374 12.3755L4.48133 14.5096ZM14.1793 5.46011L13.9929 5.64601L11.2336 2.88673L11.4192 2.70117C11.7877 2.33261 12.2777 2.12964 12.799 2.12964C13.3202 2.12964 13.8101 2.33261 14.1787 2.7012C14.5473 3.06973 14.7502 3.55973 14.7502 4.08095C14.7502 4.60217 14.5473 5.09217 14.1793 5.46011Z" fill="#A9A9A9"/>
</svg>
