<svg width="27" height="27" viewBox="0 0 27 27" fill="none" xmlns="http://www.w3.org/2000/svg">
<path d="M26.0231 22.4338C25.9087 21.8848 25.3708 21.5323 24.8218 21.6466C24.2726 21.7609 23.9201 22.2988 24.0345 22.8479C24.1003 23.1642 24.0219 23.4884 23.8194 23.7375C23.702 23.8817 23.4405 24.1237 23.0069 24.1237H18.421C17.8601 24.1237 17.4054 24.5784 17.4054 25.1394C17.4054 25.7003 17.8601 26.155 18.421 26.155H23.0069C23.9377 26.155 24.8082 25.741 25.3952 25.0191C25.9852 24.2936 26.2141 23.3513 26.0231 22.4338Z" fill="#00982F"/>
<path d="M14.1201 14.0065C17.4568 14.3139 20.492 16.1022 22.3824 18.9216C22.6947 19.3874 23.3257 19.5119 23.7915 19.1995C24.2574 18.8871 24.3819 18.2562 24.0695 17.7904C22.403 15.3048 19.9829 13.4978 17.2236 12.5898C18.9052 11.3289 19.9952 9.32 19.9952 7.06125C19.9952 3.25311 16.8971 0.154999 13.089 0.154999C9.28088 0.154999 6.18272 3.25311 6.18272 7.06125C6.18272 9.32147 7.27411 11.3315 8.95756 12.5922C7.41528 13.0999 5.96802 13.8895 4.70143 14.9313C2.3791 16.8415 0.764411 19.506 0.154884 22.4338C-0.0361553 23.3513 0.192716 24.2936 0.782692 25.0191C1.36972 25.741 2.24027 26.155 3.17104 26.155H7.60459C8.16552 26.155 8.62022 25.7003 8.62022 25.1394C8.62022 24.5784 8.16552 24.1237 7.60459 24.1237H3.17093C2.73736 24.1237 2.47584 23.8818 2.35849 23.7375C2.15592 23.4884 2.07751 23.1642 2.14338 22.8479C3.13788 18.071 7.1697 14.5095 11.9537 14.0178L10.0148 22.8389C9.94048 23.1773 10.0437 23.5302 10.2886 23.7751L12.3199 25.8067C12.5104 25.9972 12.7687 26.1042 13.0382 26.1042C13.3076 26.1042 13.5659 25.9972 13.7564 25.8067L15.7875 23.7751C16.0325 23.5301 16.1356 23.1773 16.0613 22.839L14.1201 14.0065ZM8.21397 7.06125C8.21397 4.37314 10.4009 2.18625 13.089 2.18625C15.7771 2.18625 17.964 4.37314 17.964 7.06125C17.964 9.66821 15.9071 11.8037 13.3309 11.9303C13.2504 11.9288 13.1698 11.9278 13.089 11.9278C13.0097 11.9278 12.9305 11.929 12.8514 11.9304C10.2732 11.806 8.21397 9.66968 8.21397 7.06125ZM13.0381 23.6521L12.1181 22.732L13.0381 18.5463L13.958 22.732L13.0381 23.6521Z" fill="#00982F"/>
</svg>
