<svg width="21" height="21" viewBox="0 0 21 21" fill="none" xmlns="http://www.w3.org/2000/svg">
<path d="M17.375 0.159973H3.625C1.90188 0.159973 0.5 1.56185 0.5 3.28497V4.84747C0.5 5.27896 0.849766 5.62872 1.28125 5.62872C1.71273 5.62872 2.0625 5.27896 2.0625 4.84747V3.28497C2.0625 2.42341 2.76344 1.72247 3.625 1.72247H17.375C18.2366 1.72247 18.9375 2.42341 18.9375 3.28497V17.035C18.9375 17.8965 18.2366 18.5975 17.375 18.5975H3.625C2.76344 18.5975 2.0625 17.8965 2.0625 17.035V15.4725C2.0625 15.041 1.71273 14.6912 1.28125 14.6912C0.849766 14.6912 0.5 15.041 0.5 15.4725V17.035C0.5 18.7581 1.90188 20.16 3.625 20.16H17.375C19.0981 20.16 20.5 18.7581 20.5 17.035V3.28497C20.5 1.56185 19.0981 0.159973 17.375 0.159973Z" fill="#A9A9A9"/>
<path d="M13.6218 8.50243L10.7006 5.58384C10.3954 5.27888 9.9007 5.27911 9.59574 5.58435C9.29078 5.88958 9.29102 6.38423 9.59625 6.68919L12.5173 9.60751C12.8219 9.91212 12.8219 10.4077 12.5173 10.7124C12.5161 10.7135 12.515 10.7147 12.5139 10.7158L9.59262 13.6735C9.28941 13.9804 9.29246 14.4751 9.59945 14.7783C9.75168 14.9287 9.95008 15.0037 10.1484 15.0037C10.35 15.0037 10.5514 14.9262 10.7043 14.7715L13.624 11.8153C14.536 10.9013 14.5353 9.41591 13.6218 8.50243Z" fill="#A9A9A9"/>
<path d="M9.60156 9.37872H1.28125C0.849766 9.37872 0.5 9.72849 0.5 10.16C0.5 10.5915 0.849766 10.9412 1.28125 10.9412H9.60156C10.033 10.9412 10.3828 10.5915 10.3828 10.16C10.3828 9.72849 10.033 9.37872 9.60156 9.37872Z" fill="#A9A9A9"/>
</svg>
