<svg width="28" height="36" viewBox="0 0 28 36" fill="none" xmlns="http://www.w3.org/2000/svg">
<path d="M26.8278 1.7555C23.3134 0.44956 19.4305 0.415996 15.894 1.66061L15.3785 1.84197C13.2754 2.58223 11.0005 2.78478 8.79979 2.42795L6.105 1.99092V1.53839C6.10506 0.891571 5.58061 0.367188 4.9338 0.367188C4.28698 0.367188 3.7626 0.891571 3.7626 1.53839V1.73499C3.61207 1.78127 3.47029 1.8568 3.34745 1.96133C3.08598 2.18383 2.93525 2.50991 2.93525 2.85334V17.9113C2.93525 18.4315 3.27738 18.8809 3.7626 19.0298V31.8072L1.4904 33.1968C1.04286 33.4704 0.8319 34.0084 0.974019 34.5133C1.11621 35.0184 1.57681 35.3672 2.10147 35.3672H7.76619C8.29085 35.3672 8.75146 35.0184 8.89358 34.5133C9.03569 34.0083 8.8248 33.4705 8.37726 33.1968L6.10506 31.8073V19.4139L8.53578 19.7991C9.34878 19.9278 10.169 19.9918 10.9889 19.9918C12.8372 19.9918 14.6816 19.6664 16.4227 19.0252L16.4892 19.0008C19.4463 17.9121 22.7158 17.8765 25.6958 18.901L26.039 19.019C26.3969 19.1419 26.7922 19.0845 27.1002 18.8647C27.4081 18.6448 27.591 18.2898 27.591 17.9114V2.85334C27.5911 2.36382 27.2867 1.92598 26.8278 1.7555ZM5.27758 4.2299L8.4247 4.74033C11.0111 5.15985 13.6845 4.92162 16.1563 4.05175L16.6717 3.87039C19.4387 2.89648 22.4543 2.83865 25.2486 3.69307V6.44323C22.1737 5.65054 18.9081 5.78213 15.8939 6.843L15.3785 7.02435C13.2755 7.76455 11.0005 7.9671 8.79972 7.61026L5.27758 7.03905V4.2299ZM25.2487 16.3232C22.0983 15.5121 18.7459 15.6739 15.6806 16.8025L15.614 16.8269C13.4747 17.6145 11.1539 17.8421 8.90239 17.4855L5.27764 16.9112V14.0975L8.42477 14.6079C9.25499 14.7425 10.094 14.8094 10.9327 14.8094C12.7066 14.8094 14.4781 14.51 16.1563 13.9193L16.6717 13.738C19.4387 12.7639 22.4541 12.7069 25.2486 13.5614L25.2487 16.3232ZM25.2487 11.1284C22.1738 10.3357 18.9081 10.4673 15.894 11.5281L15.3785 11.7095C13.2756 12.4496 11.0006 12.6522 8.79979 12.2954L5.27764 11.7243V9.41214L8.42477 9.92251C9.25499 10.0572 10.094 10.124 10.9327 10.124C12.7066 10.124 14.4781 9.82462 16.1563 9.234L16.6718 9.05264C19.4388 8.07852 22.4542 8.02151 25.2487 8.87607V11.1284Z" fill="#808080"/>
</svg>
