<svg width="26" height="31" viewBox="0 0 26 31" fill="none" xmlns="http://www.w3.org/2000/svg">
<path d="M19.2225 6.89265H10.9075C10.2601 6.89265 9.73541 7.41736 9.73541 8.0647C9.73541 8.71204 10.2601 9.23675 10.9075 9.23675H19.2225C19.8698 9.23675 20.3945 8.71204 20.3945 8.0647C20.3945 7.41736 19.8698 6.89265 19.2225 6.89265Z" fill="#A9A9A9"/>
<path d="M19.2225 11.5808H10.9075C10.2601 11.5808 9.73541 12.1055 9.73541 12.7528C9.73541 13.4002 10.2601 13.9249 10.9075 13.9249H19.2225C19.8698 13.9249 20.3945 13.4002 20.3945 12.7528C20.3945 12.1055 19.8698 11.5808 19.2225 11.5808Z" fill="#A9A9A9"/>
<path d="M14.4822 16.269H10.9075C10.2601 16.269 9.73541 16.7937 9.73541 17.441C9.73541 18.0884 10.2601 18.6131 10.9075 18.6131H14.4822C15.1295 18.6131 15.6542 18.0884 15.6542 17.441C15.6542 16.7937 15.1295 16.269 14.4822 16.269Z" fill="#A9A9A9"/>
<path d="M23.9758 16.5034C24.6231 16.5034 25.1478 15.9786 25.1478 15.3313V5.25179C25.1478 2.6667 23.0446 0.563599 20.4596 0.563599H9.6768C7.09317 0.563599 4.99101 2.66436 4.98861 5.24746C2.40358 5.24746 0.300415 7.35056 0.300415 9.93565V25.8754C0.300415 28.4604 2.40352 30.5636 4.98861 30.5636H16.3574C18.9424 30.5636 21.0456 28.4605 21.0456 25.8754V25.8398C23.355 25.5504 25.1477 23.5744 25.1477 21.1881C25.1477 20.5407 24.623 20.016 23.9757 20.016C23.3284 20.016 22.8037 20.5407 22.8037 21.1881C22.8037 22.4803 21.7524 23.5319 20.4601 23.5322L9.67733 23.5348C9.05126 23.5348 8.46216 23.2911 8.01948 22.8484C7.57663 22.4057 7.33271 21.8169 7.33271 21.1907V5.25179C7.33271 3.95928 8.38429 2.9077 9.6768 2.9077H20.4597C21.7522 2.9077 22.8038 3.95928 22.8038 5.25179V15.3314C22.8037 15.9786 23.3284 16.5034 23.9758 16.5034ZM9.6768 25.8788L18.7015 25.8766C18.7008 27.1685 17.6495 28.2194 16.3574 28.2194H4.98867C3.69615 28.2194 2.64457 27.1678 2.64457 25.8753V9.93553C2.64457 8.64302 3.69615 7.59144 4.98867 7.59144V21.1907C4.98867 22.4431 5.47646 23.6206 6.36216 24.5061C7.24769 25.3914 8.42466 25.8788 9.6768 25.8788Z" fill="#A9A9A9"/>
</svg>
