<svg width="25" height="31" viewBox="0 0 25 31" fill="none" xmlns="http://www.w3.org/2000/svg">
<path d="M12.228 0.28186C5.6799 0.28186 0.353027 5.72311 0.353027 12.4112C0.353027 15.7494 1.72053 18.9744 4.07803 21.2337L10.5218 27.7819H8.18553C7.49553 27.7819 6.93553 28.3419 6.93553 29.0319C6.93553 29.7219 7.49553 30.2819 8.18553 30.2819H16.2712C16.9612 30.2819 17.5212 29.7219 17.5212 29.0319C17.5212 28.3419 16.9612 27.7819 16.2712 27.7819H13.9343L20.3643 21.2462C22.7405 18.9644 24.103 15.745 24.103 12.4112C24.103 5.72311 18.7762 0.28186 12.228 0.28186ZM18.6212 19.4537C18.6118 19.4625 18.603 19.4712 18.5943 19.48L12.228 25.9512L5.83428 19.4544C3.91178 17.6119 2.85303 15.1106 2.85303 12.4112C2.85303 7.10186 7.05865 2.78186 12.228 2.78186C17.3974 2.78186 21.603 7.10186 21.603 12.4112C21.603 15.0731 20.5162 17.64 18.6212 19.4537Z" fill="#00982F"/>
<path d="M12.228 5.12936C8.40553 5.12936 5.29615 8.29999 5.29615 12.1975C5.29615 16.095 8.40553 19.2656 12.228 19.2656C16.0505 19.2656 19.1599 16.0944 19.1599 12.1975C19.1599 8.30061 16.0505 5.12936 12.228 5.12936ZM12.228 16.7656C9.78428 16.7656 7.79615 14.7162 7.79615 12.1975C7.79615 9.67874 9.78428 7.62936 12.228 7.62936C14.6718 7.62936 16.6599 9.67874 16.6599 12.1975C16.6599 14.7162 14.6718 16.7656 12.228 16.7656Z" fill="#00982F"/>
</svg>
