<svg width="20" height="20" viewBox="0 0 20 20" fill="none" xmlns="http://www.w3.org/2000/svg">
<path d="M11.2756 7.08852H8.87281C7.2028 7.08852 5.84413 8.4472 5.84413 10.1172V13.9336C5.84413 14.2682 6.11531 14.5393 6.44985 14.5393H7.18379L7.56238 19.1718C7.58801 19.4862 7.8507 19.7283 8.16612 19.7283H12.0025C12.3187 19.7283 12.5818 19.485 12.6064 19.1694L12.9666 14.5391H13.6985C14.0331 14.5391 14.3043 14.2679 14.3043 13.9334V10.1172C14.3043 8.4472 12.9456 7.08852 11.2756 7.08852ZM13.0928 13.3277H12.4063C12.0901 13.3277 11.827 13.571 11.8024 13.8866L11.4421 18.5169H8.72439L8.34579 13.8842C8.32016 13.5696 8.05747 13.3277 7.74206 13.3277H7.05553V10.1173C7.05553 9.11538 7.87087 8.30008 8.87274 8.30008H11.2755C12.2776 8.30008 13.0927 9.11542 13.0927 10.1173V13.3277H13.0928Z" fill="#00982F"/>
<path d="M10.0641 1.89937C8.72801 1.89937 7.64112 2.98627 7.64112 4.32234C7.64112 5.65841 8.72801 6.7453 10.0641 6.7453C11.4002 6.7453 12.4871 5.65841 12.4871 4.32234C12.4871 2.98627 11.4002 1.89937 10.0641 1.89937ZM10.0641 5.53382C9.39594 5.53382 8.8526 4.99048 8.8526 4.32234C8.8526 3.65419 9.39594 3.11085 10.0641 3.11085C10.7322 3.11085 11.2756 3.65419 11.2756 4.32234C11.2756 4.99048 10.7322 5.53382 10.0641 5.53382Z" fill="#00982F"/>
<path d="M16.6263 5.89725H14.2235C13.0914 5.89725 12.058 6.52419 11.5267 7.53336L12.5991 8.0975C12.9199 7.48751 13.5424 7.10873 14.2235 7.10873H16.6261C17.6281 7.10873 18.4433 7.92407 18.4433 8.92594V12.1364H17.7366C17.4204 12.1364 17.1573 12.3797 17.1326 12.6953L16.7724 17.3257H14.0577L13.7976 13.9277L12.5898 14.02L12.8927 17.9777C12.9167 18.2933 13.18 18.5372 13.4966 18.5372H17.3329C17.6493 18.5372 17.9124 18.2939 17.9369 17.9783L18.2971 13.3478H19.0492C19.3838 13.3478 19.6549 13.0767 19.6549 12.7421V8.92594C19.655 7.25593 18.2963 5.89725 16.6263 5.89725Z" fill="#00982F"/>
<path d="M15.4148 0.728271C14.0787 0.728271 12.9918 1.81517 12.9918 3.15124C12.9918 4.48731 14.0787 5.5742 15.4148 5.5742C16.7511 5.5742 17.8378 4.48731 17.8378 3.15124C17.8378 1.81517 16.7508 0.728271 15.4148 0.728271ZM15.4148 4.36272C14.7467 4.36272 14.2033 3.81938 14.2033 3.15124C14.2033 2.48309 14.7467 1.93975 15.4148 1.93975C16.0829 1.93975 16.6263 2.48309 16.6263 3.15124C16.6263 3.81935 16.0829 4.36272 15.4148 4.36272Z" fill="#00982F"/>
<path d="M3.5221 7.12891H5.92485C6.60591 7.12891 7.22821 7.50768 7.54924 8.11767L8.62139 7.55353C8.09037 6.54437 7.05695 5.91742 5.92485 5.91742H3.5221C1.85208 5.91742 0.493408 7.27614 0.493408 8.94615V12.7421C0.493408 13.0767 0.764589 13.3478 1.09913 13.3478H1.83105L2.19126 17.9783C2.2157 18.2939 2.47899 18.5372 2.79519 18.5372H6.63155C6.94835 18.5372 7.21163 18.2931 7.23547 17.9773L7.53835 13.9794L6.3305 13.888L6.07002 17.3257H3.35574L2.99534 12.6953C2.9709 12.3797 2.70762 12.1364 2.39141 12.1364H1.70489V8.94615C1.70489 7.94425 2.52023 7.12891 3.5221 7.12891Z" fill="#00982F"/>
<path d="M4.71341 0.728271C3.37734 0.728271 2.29044 1.81517 2.29044 3.15124C2.29044 4.48731 3.37734 5.5742 4.71341 5.5742C6.04948 5.5742 7.13637 4.48731 7.13637 3.15124C7.13637 1.81517 6.04944 0.728271 4.71341 0.728271ZM4.71341 4.36272C4.04526 4.36272 3.50192 3.81938 3.50192 3.15124C3.50192 2.48309 4.04526 1.93975 4.71341 1.93975C5.38133 1.93975 5.92489 2.48309 5.92489 3.15124C5.92489 3.81935 5.38152 4.36272 4.71341 4.36272Z" fill="#00982F"/>
</svg>
