<svg width="25" height="25" viewBox="0 0 25 25" fill="none" xmlns="http://www.w3.org/2000/svg">
<path d="M24.0234 21.0938C24.0234 23.2477 22.2712 25 20.1172 25H4.88281C2.72884 25 0.976562 23.2477 0.976562 21.0938V10.2539C0.976562 9.71451 1.41373 9.27734 1.95312 9.27734C2.49252 9.27734 2.92969 9.71451 2.92969 10.2539V21.0938C2.92969 22.1706 3.80592 23.0469 4.88281 23.0469H20.1172C21.1941 23.0469 22.0703 22.1706 22.0703 21.0938C22.0703 20.5544 22.5075 20.1172 23.0469 20.1172C23.5863 20.1172 24.0234 20.5544 24.0234 21.0938ZM25 2.92969V5.85938C25 6.39877 24.5628 6.83594 24.0234 6.83594V16.1621C24.0234 16.7015 23.5863 17.1387 23.0469 17.1387C22.5075 17.1387 22.0703 16.7015 22.0703 16.1621V6.83594H0.976562C0.437164 6.83594 0 6.39877 0 5.85938V2.92969C0 1.31416 1.31416 0 2.92969 0H22.0703C23.6858 0 25 1.31416 25 2.92969ZM1.95312 4.88281H23.0469V2.92969C23.0469 2.39124 22.6088 1.95312 22.0703 1.95312H2.92969C2.39124 1.95312 1.95312 2.39124 1.95312 2.92969V4.88281ZM14.6484 8.78906H10.2539C9.71451 8.78906 9.27734 9.22623 9.27734 9.76562C9.27734 10.305 9.71451 10.7422 10.2539 10.7422H14.6484C15.1878 10.7422 15.625 10.305 15.625 9.76562C15.625 9.22623 15.1878 8.78906 14.6484 8.78906ZM20.1172 20.0684V16.5527C20.1172 16.0133 19.68 15.5762 19.1406 15.5762C18.6012 15.5762 18.1641 16.0133 18.1641 16.5527V20.0684C18.1641 20.6078 18.6012 21.0449 19.1406 21.0449C19.68 21.0449 20.1172 20.6078 20.1172 20.0684ZM14.209 16.5527V20.0684C14.209 20.6078 14.6461 21.0449 15.1855 21.0449C15.7249 21.0449 16.1621 20.6078 16.1621 20.0684V16.5527C16.1621 16.0133 15.7249 15.5762 15.1855 15.5762C14.6461 15.5762 14.209 16.0133 14.209 16.5527Z" fill="#00982F"/>
</svg>
