<svg width="17" height="17" viewBox="0 0 17 17" fill="none" xmlns="http://www.w3.org/2000/svg">
<path d="M8.89685 0.382812C4.47131 0.382812 0.896851 3.95728 0.896851 8.38281C0.896851 12.8083 4.47131 16.3828 8.89685 16.3828C13.3224 16.3828 16.8968 12.8083 16.8968 8.38281C16.8968 3.95728 13.3224 0.382812 8.89685 0.382812ZM8.89685 15.0551C5.22026 15.0551 2.22451 12.0594 2.22451 8.38278C2.22451 4.70619 5.22026 1.71047 8.89685 1.71047C12.5734 1.71047 15.5692 4.70622 15.5692 8.38281C15.5692 12.0594 12.5734 15.0551 8.89685 15.0551Z" fill="#00982F"/>
<path d="M8.93087 6.51046C8.55641 6.51046 8.25003 6.81685 8.25003 7.1913V12.7062C8.25003 13.0806 8.55641 13.387 8.93087 13.387C9.30533 13.387 9.61171 13.0806 9.61171 12.7402V7.19133C9.61174 6.81685 9.30536 6.51046 8.93087 6.51046Z" fill="#00982F"/>
<path d="M8.8628 3.34451C8.48834 3.34451 8.18196 3.65089 8.18196 4.02535V4.67217C8.18196 5.04663 8.48834 5.35301 8.8628 5.35301C9.23725 5.35301 9.50962 5.04663 9.54364 4.67217V4.02535C9.54364 3.65089 9.23725 3.34451 8.8628 3.34451Z" fill="#00982F"/>
</svg>
