<svg width="27" height="27" viewBox="0 0 27 27" fill="none" xmlns="http://www.w3.org/2000/svg">
<path d="M18.7546 13.5635C18.255 13.326 17.7452 13.1214 17.2265 12.95C18.9065 11.689 19.9952 9.68106 19.9952 7.42358C19.9952 3.6155 16.8971 0.517334 13.089 0.517334C9.28083 0.517334 6.18272 3.6155 6.18272 7.42358C6.18272 9.68355 7.27391 11.6935 8.95705 12.9542C7.41493 13.4619 5.96792 14.2519 4.70143 15.2937C2.3791 17.2039 0.764411 19.8683 0.154884 22.7962C-0.0361553 23.7136 0.192716 24.6559 0.782692 25.3814C1.36977 26.1033 2.24032 26.5173 3.17104 26.5173H15.6788C16.2397 26.5173 16.6944 26.0626 16.6944 25.5017C16.6944 24.9408 16.2397 24.4861 15.6788 24.4861H3.17104C2.73747 24.4861 2.47589 24.2441 2.35859 24.0998C2.15602 23.8508 2.07761 23.5265 2.14348 23.2102C3.19744 18.1476 7.66294 14.4494 12.8197 14.3247C12.9091 14.3281 12.9988 14.3298 13.089 14.3298C13.18 14.3298 13.2707 14.3281 13.3609 14.3246C14.9412 14.3616 16.461 14.7223 17.8826 15.3981C18.3893 15.6388 18.9951 15.4234 19.2359 14.9168C19.4767 14.4102 19.2613 13.8043 18.7546 13.5635ZM13.3367 12.2923C13.2543 12.2909 13.1717 12.2901 13.089 12.2901C13.007 12.2901 12.925 12.2909 12.8432 12.2924C10.2688 12.164 8.21397 10.0293 8.21397 7.42358C8.21397 4.73548 10.4009 2.54858 13.089 2.54858C15.7771 2.54858 17.964 4.73548 17.964 7.42358C17.964 10.0286 15.9101 12.1629 13.3367 12.2923Z" fill="#00982F"/>
<path d="M25.0733 20.6775H22.2804V17.8845C22.2804 17.3236 21.8257 16.8689 21.2647 16.8689C20.7038 16.8689 20.2491 17.3236 20.2491 17.8845V20.6775H17.4562C16.8952 20.6775 16.4405 21.1322 16.4405 21.6931C16.4405 22.254 16.8952 22.7087 17.4562 22.7087H20.2491V25.5017C20.2491 26.0626 20.7038 26.5173 21.2647 26.5173C21.8257 26.5173 22.2804 26.0626 22.2804 25.5017V22.7087H25.0733C25.6343 22.7087 26.089 22.254 26.089 21.6931C26.089 21.1322 25.6343 20.6775 25.0733 20.6775Z" fill="#00982F"/>
</svg>
