<svg width="27" height="23" viewBox="0 0 27 23" fill="none" xmlns="http://www.w3.org/2000/svg">
<path d="M25.4345 17.7171C24.88 17.7171 24.4304 18.1666 24.4304 18.7212C24.4304 19.8286 23.5295 20.7294 22.4222 20.7294H14.7576L12.4489 17.7344L19.7361 8.46553L24.6595 14.3391C24.6693 14.351 24.6793 14.3626 24.6896 14.374C24.69 14.3744 24.6903 14.3748 24.6907 14.3752C24.6919 14.3765 24.6931 14.3779 24.6944 14.3792C24.7858 14.4791 24.8933 14.5565 25.0095 14.6106C25.1289 14.6665 25.2611 14.6995 25.4005 14.7041C25.4031 14.7042 25.4056 14.7043 25.4082 14.7044C25.4086 14.7044 25.4091 14.7044 25.4095 14.7044C25.4812 14.7062 25.5532 14.7004 25.6242 14.6869L25.6268 14.6863C25.6299 14.6857 25.633 14.6851 25.6362 14.6845C25.6375 14.6842 25.6388 14.6839 25.6401 14.6837C25.6428 14.6831 25.6455 14.6826 25.6482 14.682C25.6497 14.6816 25.6512 14.6813 25.6527 14.681C25.6552 14.6804 25.6576 14.6799 25.6601 14.6793C25.6619 14.6789 25.6636 14.6785 25.6653 14.6781C25.6675 14.6776 25.6697 14.677 25.672 14.6765C25.6739 14.6761 25.6757 14.6756 25.6776 14.6751C25.6797 14.6746 25.6818 14.674 25.6839 14.6735C25.6858 14.673 25.6876 14.6725 25.6895 14.672C25.6916 14.6715 25.6937 14.6709 25.6958 14.6704C25.6977 14.6699 25.6996 14.6693 25.7015 14.6688L25.7074 14.6672C25.7095 14.6666 25.7115 14.666 25.7136 14.6655C25.7156 14.6649 25.7175 14.6643 25.7195 14.6638C25.7211 14.6633 25.7227 14.6628 25.7244 14.6623C25.7268 14.6615 25.7293 14.6608 25.7318 14.66C25.7331 14.6596 25.7345 14.6592 25.7358 14.6588C25.7383 14.658 25.7407 14.6572 25.7432 14.6564C25.7448 14.6559 25.7463 14.6554 25.7478 14.6549C25.7502 14.6541 25.7527 14.6533 25.7552 14.6525C25.7564 14.6521 25.7575 14.6517 25.7587 14.6513C25.7614 14.6504 25.7642 14.6494 25.767 14.6484C25.768 14.6481 25.7691 14.6477 25.7702 14.6473C25.773 14.6463 25.7758 14.6453 25.7786 14.6443C25.7795 14.6439 25.7804 14.6436 25.7814 14.6433C25.7845 14.6421 25.7875 14.641 25.7906 14.6398L25.7921 14.6392C25.7956 14.6379 25.799 14.6366 25.8024 14.6352C25.8026 14.6352 25.8028 14.6351 25.803 14.635C25.8067 14.6335 25.8103 14.6321 25.814 14.6306C25.8586 14.6123 25.9023 14.5907 25.9447 14.5657C25.9453 14.5653 25.9459 14.565 25.9465 14.5646C25.9493 14.5629 25.9522 14.5612 25.9551 14.5595C26.0092 14.5266 26.0599 14.4887 26.1067 14.4465C26.1076 14.4458 26.1084 14.445 26.1092 14.4443C26.11 14.4436 26.1108 14.4429 26.1115 14.4422C26.2122 14.3504 26.2901 14.2423 26.3446 14.1254C26.4006 14.0055 26.4336 13.8728 26.438 13.7328C26.4381 13.731 26.4381 13.7293 26.4382 13.7275C26.4382 13.7263 26.4382 13.7252 26.4382 13.7241C26.4383 13.7206 26.4384 13.7172 26.4384 13.7138C26.4384 13.7137 26.4384 13.7136 26.4384 13.7135C26.4385 13.7082 26.4385 13.7029 26.4385 13.6976V4.66366C26.4385 2.44899 24.6367 0.647217 22.4221 0.647217H4.74984C2.53518 0.647217 0.733398 2.44894 0.733398 4.66366V18.7212C0.733398 20.9359 2.53518 22.7377 4.74984 22.7377H14.2575C14.2598 22.7377 14.2622 22.7377 14.2646 22.7377C14.2677 22.7377 14.2708 22.7377 14.274 22.7377H22.4222C24.6369 22.7377 26.4386 20.9359 26.4386 18.7212C26.4386 18.1666 25.9891 17.7171 25.4345 17.7171ZM4.74984 20.7294C3.64251 20.7294 2.74162 19.8286 2.74162 18.7212V4.66366C2.74162 3.55633 3.64251 2.65544 4.74984 2.65544H22.4222C23.5295 2.65544 24.4304 3.55633 24.4304 4.66366V10.9397L20.4806 6.22766C20.2863 5.99582 19.9985 5.86413 19.6954 5.8687C19.3929 5.87341 19.1087 6.01429 18.9218 6.25207L11.1842 16.0937L8.55743 12.686C8.36735 12.4393 8.07355 12.2949 7.76218 12.2949H7.76167C7.4501 12.295 7.15625 12.4398 6.96627 12.6868L4.75647 15.5595C4.41839 15.999 4.50057 16.6295 4.94012 16.9676C5.37977 17.3057 6.01015 17.2235 6.34824 16.7839L7.76298 14.9448L12.222 20.7294H4.74984Z" fill="#A9A9A9"/>
<path d="M7.76218 4.26202C6.10118 4.26202 4.74984 5.61335 4.74984 7.27435C4.74984 8.93535 6.10118 10.2867 7.76218 10.2867C9.42318 10.2867 10.7745 8.93535 10.7745 7.27435C10.7745 5.61335 9.42318 4.26202 7.76218 4.26202ZM7.76218 8.27846C7.20851 8.27846 6.75807 7.82802 6.75807 7.27435C6.75807 6.72068 7.20851 6.27024 7.76218 6.27024C8.31584 6.27024 8.76629 6.72068 8.76629 7.27435C8.76629 7.82802 8.31584 8.27846 7.76218 8.27846Z" fill="#A9A9A9"/>
</svg>
