<svg fill="none" xml:space="preserve" xmlns="http://www.w3.org/2000/svg" viewBox="0 0 15 15"><path d="M7.918.3c-3.873 0-7 3.128-7 7 0 3.873 3.127 7 7 7 3.872 0 7-3.127 7-7 0-3.872-3.128-7-7-7zm0 12.839A5.848 5.848 0 012.08 7.3a5.848 5.848 0 015.838-5.838A5.848 5.848 0 0113.756 7.3a5.848 5.848 0 01-5.838 5.839z" fill="gray"/><path d="M7.948 5.662a.597.597 0 00-.596.596v4.825c0 .328.268.596.596.596.327 0 .595-.268.595-.566V6.258a.597.597 0 00-.595-.596zM7.888 2.892a.597.597 0 00-.596.596v.565c0 .328.268.596.596.596.328 0 .566-.268.596-.596v-.565a.597.597 0 00-.596-.596z" fill="gray"/></svg>