<svg width="66" height="65" viewBox="0 0 66 65" fill="none" xmlns="http://www.w3.org/2000/svg">
<g clip-path="url(#clip0)">
<path d="M33.0602 63.2897C47.9674 63.2897 60.0521 51.3296 60.0521 36.5761C60.0521 21.8226 47.9674 9.86252 33.0602 9.86252C18.153 9.86252 6.06836 21.8226 6.06836 36.5761C6.06836 51.3296 18.153 63.2897 33.0602 63.2897Z" fill="white"/>
<path d="M43.7942 12.1463C43.7942 22.1592 33.0602 29.6361 33.0602 29.6361C33.0602 29.6361 22.3262 22.1592 22.3262 12.1463C22.3262 6.27918 27.132 1.52292 33.0602 1.52292C38.9884 1.52292 43.7942 6.27918 43.7942 12.1463Z" fill="#F6E646"/>
<path d="M33.0603 16.8108C35.6633 16.8108 37.7734 14.7224 37.7734 12.1463C37.7734 9.57011 35.6633 7.48172 33.0603 7.48172C30.4573 7.48172 28.3472 9.57011 28.3472 12.1463C28.3472 14.7224 30.4573 16.8108 33.0603 16.8108Z" fill="white"/>
<path d="M45.0526 11.2157C44.5713 5.08454 39.3767 0.241333 33.0602 0.241333C26.7438 0.241333 21.549 5.08454 21.0679 11.2157C11.1479 15.8154 4.77368 25.6985 4.77368 36.5763C4.77368 44.054 7.71607 51.0841 13.0586 56.3717C18.4012 61.6593 25.5046 64.5712 33.0602 64.5712C40.6158 64.5712 47.7191 61.6592 53.0618 56.3717C58.4045 51.0842 61.3468 44.054 61.3468 36.5763C61.3468 25.6985 54.9726 15.8153 45.0526 11.2157ZM41.7905 53.7828C44.0586 54.5931 46.2105 55.7182 48.1737 57.1309C45.2562 59.238 41.8762 60.7533 38.2141 61.4941C39.2893 60.0887 40.2604 58.2215 41.09 55.9302C41.3387 55.2434 41.5721 54.5261 41.7905 53.7828ZM38.6521 55.0656C37.0782 59.4129 34.9878 62.0082 33.0602 62.0082C31.1327 62.0082 29.0424 59.4129 27.4683 55.0657C27.2335 54.4172 27.0131 53.7389 26.8066 53.0354C28.8401 52.53 30.9404 52.2674 33.0602 52.2674C35.18 52.2674 37.2803 52.53 39.3138 53.0354C39.1073 53.7389 38.8869 54.4171 38.6521 55.0656ZM25.0306 55.9303C25.8602 58.2217 26.8312 60.0887 27.9063 61.4942C24.2442 60.7534 20.8642 59.2379 17.9466 57.1311C19.9098 55.7182 22.0619 54.5931 24.3299 53.7829C24.5487 54.5261 24.7819 55.2434 25.0306 55.9303ZM33.0602 49.7045C30.7218 49.7045 28.4049 49.9948 26.162 50.5537C25.2984 46.7729 24.805 42.4252 24.7329 37.8577H41.3877C41.3156 42.4253 40.8221 46.7731 39.9586 50.5537C37.7156 49.995 35.3987 49.7045 33.0602 49.7045ZM24.7379 35.2948C24.8104 31.4628 25.1811 27.7729 25.8282 24.4276C28.7874 28.1903 32.0659 30.5104 32.315 30.6839C32.5386 30.8396 32.7995 30.9174 33.0604 30.9174C33.3212 30.9174 33.582 30.8396 33.8057 30.6839C34.0548 30.5104 37.3337 28.19 40.293 24.427C40.94 27.7726 41.3103 31.4648 41.3829 35.2948H24.7379ZM22.4072 18.7157C20.8051 17.9934 19.2844 17.1078 17.857 16.068C18.8918 15.3158 19.9907 14.636 21.1471 14.0368C21.3473 15.6858 21.7973 17.2514 22.4072 18.7157ZM44.9734 14.037C46.1298 14.6362 47.2287 15.3158 48.2636 16.0681C46.8358 17.1083 45.3151 17.994 43.7131 18.7163C44.3231 17.2517 44.7732 15.6859 44.9734 14.037ZM33.0602 2.80423C38.2651 2.80423 42.4994 6.99497 42.4994 12.1461C42.4994 19.8739 35.4096 26.1527 33.0602 28.0208C30.7103 26.1525 23.621 19.874 23.621 12.1461C23.621 6.99509 27.8554 2.80423 33.0602 2.80423ZM15.7944 17.7382C18.1948 19.5732 20.8476 21.0004 23.701 21.9892C22.7655 25.9892 22.2348 30.5446 22.1479 35.2948H7.39679C7.74261 28.4896 10.8287 22.2022 15.7944 17.7382ZM7.3959 37.8577H22.1432C22.2172 42.6788 22.7476 47.2832 23.678 51.2933C20.8834 52.2654 18.2444 53.6693 15.8729 55.4654C10.9511 51.0745 7.7473 44.832 7.3959 37.8577ZM50.2475 55.4655C47.8762 53.6696 45.2372 52.2656 42.4426 51.2934C43.373 47.2834 43.9034 42.6791 43.9774 37.8577H51.204C51.919 37.8577 52.4988 37.2839 52.4988 36.5763C52.4988 35.8687 51.919 35.2948 51.204 35.2948H43.9726C43.8855 30.5462 43.3544 25.9882 42.4188 21.9885C45.272 20.9999 47.9248 19.5738 50.326 17.7381C55.602 22.481 58.7569 29.2825 58.7569 36.5763C58.7571 44.0649 55.4691 50.8071 50.2475 55.4655Z" fill="#00982F"/>
<path d="M55.908 35.2949H55.348C54.633 35.2949 54.0532 35.8687 54.0532 36.5763C54.0532 37.2839 54.633 37.8578 55.348 37.8578H55.908C56.623 37.8578 57.2028 37.2839 57.2028 36.5763C57.2028 35.8687 56.6231 35.2949 55.908 35.2949Z" fill="#00982F"/>
<path d="M39.0676 12.1462C39.0676 8.8678 36.3726 6.20074 33.0602 6.20074C29.7476 6.20074 27.0527 8.86792 27.0527 12.1462C27.0527 15.4245 29.7477 18.0916 33.0602 18.0916C36.3726 18.0916 39.0676 15.4244 39.0676 12.1462ZM29.6423 12.1462C29.6423 10.281 31.1755 8.76364 33.0602 8.76364C34.9448 8.76364 36.478 10.281 36.478 12.1462C36.478 14.0113 34.9448 15.5287 33.0602 15.5287C31.1755 15.5286 29.6423 14.0113 29.6423 12.1462Z" fill="#00982F"/>
</g>
<defs>
<clipPath id="clip0">
<rect x="0.560303" y="0.241333" width="65" height="64.3299" fill="white"/>
</clipPath>
</defs>
</svg>
