<svg width="16" height="21" viewBox="0 0 16 21" fill="none" xmlns="http://www.w3.org/2000/svg">
<path d="M14.3581 8.32535H1.66579C1.02955 8.32535 0.511963 8.84298 0.511963 9.47919V19.4023C0.511963 20.0385 1.02959 20.5561 1.66579 20.5561H14.3581C14.9944 20.5561 15.512 20.0385 15.512 19.4023V9.47919C15.512 8.84298 14.9944 8.32535 14.3581 8.32535ZM1.89658 19.1715V9.70998H14.1274V19.1715H1.89658Z" fill="black"/>
<path d="M8.01196 0.709961C4.89448 0.709961 2.35812 3.26713 2.35812 6.40996V8.78689H3.74274V6.40996C3.74274 4.03051 5.6579 2.09458 8.012 2.09458C10.3661 2.09458 12.2813 4.03051 12.2813 6.40996V8.78689H13.6659V6.40996C13.6658 3.26713 11.1297 0.709961 8.01196 0.709961Z" fill="black"/>
<path d="M7.89657 13.633C7.51418 13.633 7.20428 13.943 7.20428 14.3253V15.9407C7.20428 16.3231 7.51422 16.633 7.89657 16.633C8.27892 16.633 8.58886 16.3231 8.58886 15.9407V14.3253C8.5889 13.943 8.27896 13.633 7.89657 13.633Z" fill="black"/>
</svg>
