<svg width="22" height="26" viewBox="0 0 22 26" fill="none" xmlns="http://www.w3.org/2000/svg">
<path d="M11.5615 13.5155C12.1174 13.4405 12.5073 12.9291 12.4322 12.3732C12.3572 11.8173 11.8457 11.4277 11.2899 11.5025C11.1675 11.519 11.0423 11.5274 10.9179 11.5274C9.40591 11.5274 8.17573 10.2972 8.17573 8.78521C8.17573 7.2732 9.40591 6.04302 10.9179 6.04302C12.4299 6.04302 13.6601 7.2732 13.6601 8.78521C13.6601 8.93496 13.648 9.08497 13.6242 9.23112C13.534 9.78473 13.9096 10.3067 14.4632 10.397C15.0174 10.4871 15.5388 10.1116 15.629 9.558C15.6704 9.30409 15.6914 9.04409 15.6914 8.78516C15.6914 6.15306 13.5501 4.01172 10.918 4.01172C8.28588 4.01172 6.14453 6.15306 6.14453 8.78516C6.14453 11.4172 8.28588 13.5586 10.918 13.5586C11.1329 13.5586 11.3495 13.5441 11.5615 13.5155Z" fill="#00982F"/>
<path d="M20.199 20.1402C19.4177 19.7304 18.3451 19.3852 17.0109 19.114C16.4609 19.0025 15.9251 19.3575 15.8133 19.9071C15.7017 20.4567 16.0567 20.9929 16.6064 21.1046C18.6645 21.5228 19.5083 22.0247 19.7517 22.2681C19.5724 22.4478 18.9728 22.8988 17.2113 23.3228C15.4811 23.7393 13.2461 23.9687 10.918 23.9687C8.5898 23.9687 6.35487 23.7393 4.62465 23.3228C2.86315 22.8988 2.26362 22.4478 2.08432 22.2681C2.32771 22.0247 3.17144 21.5228 5.22961 21.1046C5.77926 20.9929 6.13432 20.4567 6.02266 19.9071C5.91099 19.3574 5.37474 19.0025 4.82513 19.114C3.49091 19.3852 2.41825 19.7304 1.63698 20.1402C0.550773 20.71 0 21.4265 0 22.2698C0 23.5299 1.22718 24.5052 3.64741 25.1687C5.60275 25.7048 8.18482 25.9999 10.918 25.9999C13.6511 25.9999 16.2332 25.7048 18.1885 25.1687C20.6088 24.5052 21.8359 23.5299 21.8359 22.2698C21.8359 21.4265 21.2852 20.71 20.199 20.1402Z" fill="#00982F"/>
<path d="M10.0595 21.4645C10.2456 21.759 10.5697 21.9375 10.918 21.9375C11.2663 21.9375 11.5904 21.759 11.7765 21.4645C12.7077 19.9913 13.9196 18.6991 15.0918 17.4495C17.3821 15.0078 19.7503 12.483 19.7539 8.73316C19.7512 6.38249 18.8275 4.18173 17.1528 2.53622C15.4884 0.900707 13.2741 0 10.918 0C8.56329 0 6.3569 0.901875 4.70524 2.53947C3.04911 4.18153 2.13555 6.38122 2.13281 8.73539C2.13642 12.4891 4.49312 15.0185 6.77224 17.4645C7.93228 18.7095 9.13179 19.9969 10.0595 21.4645ZM10.918 2.03125C14.6658 2.03125 17.7184 5.03882 17.7227 8.73341C17.7199 11.6787 15.8154 13.709 13.6103 16.0599C12.6975 17.033 11.7619 18.0304 10.9186 19.1439C10.0833 18.0383 9.15946 17.0469 8.2584 16.0798C6.06298 13.7236 4.16696 11.6886 4.16406 8.73554C4.16838 4.9761 7.13507 2.03125 10.918 2.03125Z" fill="#00982F"/>
</svg>
