<svg width="31" height="22" viewBox="0 0 31 22" fill="none" xmlns="http://www.w3.org/2000/svg">
<path d="M28.8218 0.0753174H12.328C11.638 0.0753174 11.078 0.635317 11.078 1.32532V4.73157H4.07803C3.6124 4.73157 3.1849 4.99094 2.9699 5.40407L0.213652 10.6916C0.208027 10.7028 0.206152 10.7153 0.201152 10.7266C0.164902 10.8009 0.136152 10.8784 0.115527 10.9603C0.111777 10.9747 0.105527 10.9884 0.102402 11.0034C0.0830273 11.0891 0.0717773 11.1778 0.0717773 11.2691V16.5191C0.0717773 17.2091 0.631777 17.7691 1.32178 17.7691H3.25303C3.2524 17.7947 3.24678 17.8184 3.24678 17.8441C3.24678 19.7634 4.85303 21.3253 6.8274 21.3253C8.79865 21.3253 10.403 19.7634 10.403 17.8441C10.403 17.8184 10.3974 17.7941 10.3968 17.7691H18.3843C18.3837 17.7947 18.378 17.8184 18.378 17.8441C18.378 19.7634 19.9812 21.3253 21.953 21.3253C23.928 21.3253 25.5343 19.7634 25.5343 17.8441C25.5343 17.8184 25.5287 17.7941 25.528 17.7691H28.8218C29.5118 17.7691 30.0718 17.2091 30.0718 16.5191V1.32532C30.0718 0.635317 29.5118 0.0753174 28.8218 0.0753174ZM4.83615 7.23157H6.95865V10.0191H3.3824L4.83615 7.23157ZM6.82803 18.8253C6.23178 18.8253 5.7474 18.3853 5.7474 17.8441C5.7474 17.6378 5.8124 17.4509 5.95115 17.2709C6.31865 16.7841 7.19053 16.7572 7.61928 17.1916C7.65053 17.2234 7.68428 17.2516 7.71178 17.2878C7.83928 17.4516 7.90428 17.6384 7.90428 17.8441C7.90303 18.3853 7.42115 18.8253 6.82803 18.8253ZM11.0787 15.2691H9.2374C9.22428 15.2572 9.20865 15.2497 9.19553 15.2378C9.05303 15.1147 8.9024 15.0022 8.7424 14.9028C8.71178 14.8841 8.6799 14.8678 8.64865 14.8503C8.4999 14.7641 8.34553 14.6884 8.1849 14.6241C8.15615 14.6128 8.12865 14.5991 8.09928 14.5878C7.92053 14.5216 7.73615 14.4709 7.54803 14.4328C7.50615 14.4241 7.46365 14.4178 7.42115 14.4109C7.22615 14.3784 7.02865 14.3566 6.82803 14.3566C6.62615 14.3566 6.42803 14.3791 6.23178 14.4116C6.19053 14.4184 6.14928 14.4247 6.10803 14.4328C5.91678 14.4709 5.72928 14.5222 5.54803 14.5897C5.52553 14.5978 5.50428 14.6084 5.48178 14.6172C5.30615 14.6866 5.1374 14.7684 4.97615 14.8634C4.95865 14.8741 4.9399 14.8828 4.9224 14.8934C4.75178 14.9978 4.59178 15.1166 4.44178 15.2478C4.43303 15.2559 4.42178 15.2609 4.41303 15.2691H2.57178V12.5191H8.20928C8.89928 12.5191 9.45928 11.9591 9.45928 11.2691V7.23157H11.0787V15.2691ZM21.953 18.8253C21.3605 18.8253 20.878 18.3853 20.878 17.8441C20.878 17.6378 20.943 17.4509 21.0818 17.2709C21.4518 16.7809 22.3174 16.7616 22.7449 17.1866C22.778 17.2197 22.8137 17.2497 22.8424 17.2878C22.9699 17.4516 23.0349 17.6384 23.0349 17.8441C23.0343 18.3853 22.5493 18.8253 21.953 18.8253ZM27.5718 5.35844H19.2387C18.5487 5.35844 17.9887 5.91844 17.9887 6.60844C17.9887 7.29844 18.5487 7.85844 19.2387 7.85844H27.5718V9.32532H21.9549C21.2649 9.32532 20.7049 9.88532 20.7049 10.5753C20.7049 11.2653 21.2649 11.8253 21.9549 11.8253H27.5718V15.2691H24.3674C24.3549 15.2578 24.3393 15.2503 24.3268 15.2391C24.1837 15.1153 24.0318 15.0022 23.8712 14.9028C23.8412 14.8841 23.8099 14.8684 23.7793 14.8509C23.6299 14.7647 23.4743 14.6884 23.313 14.6241C23.2843 14.6128 23.2574 14.5991 23.228 14.5884C23.0493 14.5222 22.8637 14.4716 22.6749 14.4334C22.6324 14.4247 22.5905 14.4184 22.5474 14.4116C22.3518 14.3791 22.1537 14.3572 21.9524 14.3572C21.7512 14.3572 21.5537 14.3797 21.358 14.4122C21.3168 14.4191 21.2762 14.4253 21.2349 14.4334C21.0437 14.4716 20.8568 14.5228 20.6762 14.5903C20.6537 14.5984 20.6324 14.6091 20.6105 14.6178C20.4355 14.6872 20.2668 14.7697 20.1055 14.8641C20.088 14.8741 20.0699 14.8834 20.0524 14.8941C19.8812 14.9984 19.7212 15.1178 19.5712 15.2497C19.5624 15.2572 19.5524 15.2622 19.5437 15.2697H13.578V2.57532H27.5718V5.35844Z" fill="#00982F"/>
</svg>
