<svg width="20" height="21" viewBox="0 0 20 21" fill="none" xmlns="http://www.w3.org/2000/svg">
<path d="M19.2188 14.2728C19.6502 14.2728 20 13.9231 20 13.4916V4.03845C20 2.31533 18.5981 0.913452 16.875 0.913452H3.125C1.40188 0.913452 0 2.31533 0 4.03845V17.7885C0 19.5116 1.40188 20.9135 3.125 20.9135H16.875C18.5981 20.9135 20 19.5116 20 17.7885C20 17.357 19.6502 17.0072 19.2188 17.0072C18.7873 17.0072 18.4375 17.357 18.4375 17.7885C18.4375 18.65 17.7366 19.351 16.875 19.351H6.21094V16.3041H16.0938C16.5252 16.3041 16.875 15.9543 16.875 15.5228C16.875 15.0913 16.5252 14.7416 16.0938 14.7416H6.21094V11.6947H18.4375V13.4916C18.4375 13.9231 18.7873 14.2728 19.2188 14.2728ZM4.64844 19.351H3.125C2.26344 19.351 1.5625 18.65 1.5625 17.7885V16.3041H4.64844V19.351ZM4.64844 14.7416H1.5625V11.6947H4.64844V14.7416ZM4.64844 10.1322H1.5625V7.04626H4.64844V10.1322ZM4.64844 5.48376H1.5625V4.03845C1.5625 3.17689 2.26344 2.47595 3.125 2.47595H4.64844V5.48376ZM6.21094 2.47595H16.875C17.7366 2.47595 18.4375 3.17689 18.4375 4.03845V5.48376H6.21094V2.47595ZM6.21094 10.1322V7.04626H18.4375V10.1322H6.21094Z" fill="#00982F"/>
</svg>
