<svg width="30" height="36" viewBox="0 0 30 36" fill="none" xmlns="http://www.w3.org/2000/svg">
<path d="M27.2401 1.82909H27.1942V1.33246C27.1942 0.677715 26.6635 0.146973 26.0088 0.146973C25.3541 0.146973 24.8233 0.677715 24.8233 1.33246V1.82909H22.895V1.33246C22.895 0.677715 22.3642 0.146973 21.7095 0.146973C21.0548 0.146973 20.524 0.677715 20.524 1.33246V1.82909H18.5957V1.33246C18.5957 0.677715 18.065 0.146973 17.4102 0.146973C16.7556 0.146973 16.2247 0.677715 16.2247 1.33246V1.82909H14.2964V1.33246C14.2964 0.677715 13.7656 0.146973 13.111 0.146973C12.4563 0.146973 11.9255 0.677715 11.9255 1.33246V1.82909H9.99713V1.33246C9.99713 0.677715 9.46632 0.146973 8.81165 0.146973C8.15697 0.146973 7.62616 0.677715 7.62616 1.33246V1.82909H5.69781V1.33246C5.69781 0.677715 5.167 0.146973 4.51232 0.146973C3.85764 0.146973 3.32683 0.677715 3.32683 1.33246V1.82909H3.28096C1.78102 1.82909 0.560669 3.04944 0.560669 4.54939V32.4267C0.560669 33.9267 1.78102 35.147 3.28096 35.147H27.2401C28.74 35.147 29.9604 33.9267 29.9604 32.4267V4.54932C29.9603 3.04938 28.7401 1.82909 27.2401 1.82909ZM27.5894 32.4267C27.5894 32.6194 27.4328 32.776 27.2401 32.776H3.28103C3.08833 32.776 2.93171 32.6192 2.93171 32.4267V4.54932C2.93171 4.35668 3.08846 4.2 3.28103 4.2H3.3269V4.28005C3.3269 4.93473 3.85764 5.46554 4.51239 5.46554C5.16713 5.46554 5.69788 4.93479 5.69788 4.28005V4.2H7.62623V4.28005C7.62623 4.93473 8.15697 5.46554 8.81171 5.46554C9.46646 5.46554 9.9972 4.93479 9.9972 4.28005V4.2H11.9256V4.28005C11.9256 4.93473 12.4564 5.46554 13.111 5.46554C13.7657 5.46554 14.2965 4.93479 14.2965 4.28005V4.2H16.2249V4.28005C16.2249 4.93473 16.7556 5.46554 17.4104 5.46554C18.0651 5.46554 18.5959 4.93479 18.5959 4.28005V4.2H20.5241V4.28005C20.5241 4.93473 21.0549 5.46554 21.7096 5.46554C22.3644 5.46554 22.8951 4.93479 22.8951 4.28005V4.2H24.8235V4.28005C24.8235 4.93473 25.3542 5.46554 26.009 5.46554C26.6637 5.46554 27.1944 4.93479 27.1944 4.28005V4.2H27.2403C27.433 4.2 27.5896 4.35675 27.5896 4.54932L27.5894 32.4267Z" fill="#808080"/>
<path d="M9.07811 9.18637H7.9804C6.48045 9.18637 5.2601 10.4067 5.2601 11.9067C5.2601 13.4066 6.48045 14.627 7.9804 14.627H9.07811C10.5781 14.627 11.7984 13.4066 11.7984 11.9067C11.7985 10.4067 10.5781 9.18637 9.07811 9.18637ZM9.07811 12.256H7.9804C7.78769 12.256 7.63108 12.0992 7.63108 11.9067C7.63108 11.7141 7.78783 11.5574 7.9804 11.5574H9.07811C9.27082 11.5574 9.42743 11.7141 9.42743 11.9067C9.42756 12.0992 9.27082 12.256 9.07811 12.256Z" fill="#808080"/>
<path d="M24.0755 9.18637H14.3544C13.6997 9.18637 13.1689 9.71718 13.1689 10.3719C13.1689 11.0265 13.6996 11.5574 14.3544 11.5574H24.0755C24.7302 11.5574 25.261 11.0265 25.261 10.3719C25.2609 9.71718 24.7302 9.18637 24.0755 9.18637Z" fill="#808080"/>
<path d="M24.0755 12.2562H14.3544C13.6997 12.2562 13.1689 12.7869 13.1689 13.4417C13.1689 14.0964 13.6996 14.6271 14.3544 14.6271H24.0755C24.7302 14.6271 25.261 14.0964 25.261 13.4417C25.261 12.7869 24.7302 12.2562 24.0755 12.2562Z" fill="#808080"/>
<path d="M9.07811 16.5807H7.9804C6.48045 16.5807 5.2601 17.8011 5.2601 19.301C5.2601 20.801 6.48045 22.0213 7.9804 22.0213H9.07811C10.5781 22.0213 11.7984 20.801 11.7984 19.301C11.7985 17.801 10.5781 16.5807 9.07811 16.5807ZM9.07811 19.6504H7.9804C7.78769 19.6504 7.63108 19.4936 7.63108 19.301C7.63108 19.1085 7.78783 18.9517 7.9804 18.9517H9.07811C9.27082 18.9517 9.42743 19.1085 9.42743 19.301C9.42756 19.4937 9.27082 19.6504 9.07811 19.6504Z" fill="#808080"/>
<path d="M24.0755 16.5807H14.3544C13.6997 16.5807 13.1689 17.1116 13.1689 17.7662C13.1689 18.4209 13.6996 18.9517 14.3544 18.9517H24.0755C24.7302 18.9517 25.261 18.4209 25.261 17.7662C25.2609 17.1115 24.7302 16.5807 24.0755 16.5807Z" fill="#808080"/>
<path d="M24.0755 19.6503H14.3544C13.6997 19.6503 13.1689 20.181 13.1689 20.8358C13.1689 21.4905 13.6996 22.0213 14.3544 22.0213H24.0755C24.7302 22.0213 25.261 21.4905 25.261 20.8358C25.261 20.181 24.7302 19.6503 24.0755 19.6503Z" fill="#808080"/>
<path d="M9.07811 23.9749H7.9804C6.48045 23.9749 5.2601 25.1952 5.2601 26.6952C5.2601 28.1951 6.48045 29.4154 7.9804 29.4154H9.07811C10.5781 29.4154 11.7984 28.195 11.7984 26.6952C11.7985 25.1952 10.5781 23.9749 9.07811 23.9749ZM9.07811 27.0444H7.9804C7.78769 27.0444 7.63108 26.8877 7.63108 26.6951C7.63108 26.5025 7.78783 26.3458 7.9804 26.3458H9.07811C9.27082 26.3458 9.42743 26.5025 9.42743 26.6951C9.42756 26.8877 9.27082 27.0444 9.07811 27.0444Z" fill="#808080"/>
<path d="M24.0755 23.9749H14.3544C13.6997 23.9749 13.1689 24.5056 13.1689 25.1604C13.1689 25.8151 13.6996 26.3459 14.3544 26.3459H24.0755C24.7302 26.3459 25.261 25.8151 25.261 25.1604C25.261 24.5056 24.7302 23.9749 24.0755 23.9749Z" fill="#808080"/>
<path d="M24.0755 27.0444H14.3544C13.6997 27.0444 13.1689 27.5751 13.1689 28.2299C13.1689 28.8846 13.6996 29.4153 14.3544 29.4153H24.0755C24.7302 29.4153 25.261 28.8846 25.261 28.2299C25.261 27.5751 24.7302 27.0444 24.0755 27.0444Z" fill="#808080"/>
</svg>
