<svg width="28" height="28" viewBox="0 0 28 28" fill="none" xmlns="http://www.w3.org/2000/svg">
<path d="M0.728027 27.2681H27.728V0.268066H0.728027V27.2681ZM8.60303 25.0181V21.6431H10.853V25.0181H8.60303ZM18.728 2.51807H25.478V25.0181H18.728V2.51807ZM2.97803 2.51807H16.478V25.0181H13.103V19.3931H6.35303V25.0181H2.97803V2.51807Z" fill="#00982F"/>
<path d="M6.35303 4.76807H8.60303V7.01807H6.35303V4.76807Z" fill="#00982F"/>
<path d="M10.853 4.76807H13.103V7.01807H10.853V4.76807Z" fill="#00982F"/>
<path d="M6.35303 9.26807H8.60303V11.5181H6.35303V9.26807Z" fill="#00982F"/>
<path d="M10.853 9.26807H13.103V11.5181H10.853V9.26807Z" fill="#00982F"/>
<path d="M6.35303 13.7681H8.60303V16.0181H6.35303V13.7681Z" fill="#00982F"/>
<path d="M10.853 13.7681H13.103V16.0181H10.853V13.7681Z" fill="#00982F"/>
</svg>
