<svg width="28" height="28" viewBox="0 0 28 28" fill="none" xmlns="http://www.w3.org/2000/svg">
<path d="M18.3108 20.2167C17.3462 20.2167 16.5609 21.0003 16.5609 21.9633C16.5609 22.9263 17.3462 23.7098 18.3108 23.7098C19.2755 23.7098 20.0602 22.9263 20.0602 21.9633C20.0602 21.0003 19.2755 20.2167 18.3108 20.2167Z" fill="#00982F"/>
<path d="M24.5743 3.52563H19.0899V1.55688C19.0899 0.935885 18.5859 0.431885 17.9649 0.431885H1.19678C0.575777 0.431885 0.0717773 0.935885 0.0717773 1.55688V13.3131C0.0717773 13.9341 0.575777 14.4381 1.19678 14.4381H9.69615V24.94C9.69615 26.3136 10.8167 27.4319 12.1937 27.4319H24.5743C25.9513 27.4319 27.0718 26.3142 27.0718 24.94V6.01751C27.0718 4.64332 25.9513 3.52563 24.5743 3.52563ZM2.32178 12.1881V2.68188H16.8399V8.36313C16.8399 8.36482 16.8393 8.36651 16.8393 8.36876C16.8393 8.37101 16.8399 8.37213 16.8399 8.37438V13.717L14.7772 12.3709C14.5944 12.2517 14.3807 12.1881 14.1624 12.1881H2.32178ZM24.8218 24.94C24.8218 25.0711 24.7082 25.1819 24.5743 25.1819H12.1937C12.057 25.1819 11.9462 25.0733 11.9462 24.94V14.4381H13.8277L17.3501 16.7359C17.4401 16.7944 17.5368 16.8378 17.637 16.8681C17.6702 16.8783 17.705 16.8788 17.7393 16.8861C17.8068 16.9002 17.8743 16.9143 17.9435 16.9154C17.9508 16.9154 17.9582 16.9188 17.9655 16.9188C18.0223 16.9188 18.078 16.9064 18.1342 16.8979C18.1652 16.8934 18.1967 16.894 18.2276 16.8867C18.3221 16.8642 18.4143 16.831 18.5015 16.7832C18.8649 16.5863 19.0905 16.2066 19.0905 15.7938V9.49376H21.0333C21.6543 9.49376 22.1583 8.98976 22.1583 8.36876C22.1583 7.74776 21.6543 7.24376 21.0333 7.24376H19.0899V5.77563H24.5743C24.7082 5.77563 24.8218 5.88645 24.8218 6.01751V24.94Z" fill="#00982F"/>
<path d="M13.3158 8.48126H5.84415C5.22315 8.48126 4.71915 8.98526 4.71915 9.60626C4.71915 10.2273 5.22315 10.7313 5.84415 10.7313H13.3164C13.9374 10.7313 14.4408 10.2278 14.4408 9.60626C14.4408 8.98526 13.9368 8.48126 13.3158 8.48126Z" fill="#00982F"/>
<path d="M13.3164 4.15001H8.3304C7.7094 4.15001 7.2054 4.65401 7.2054 5.27501C7.2054 5.89601 7.70884 6.40001 8.3304 6.40001H13.3164C13.9374 6.40001 14.4414 5.89601 14.4414 5.27501C14.4414 4.65401 13.9374 4.15001 13.3164 4.15001Z" fill="#00982F"/>
</svg>
