<svg width="19" height="17" viewBox="0 0 19 17" fill="none" xmlns="http://www.w3.org/2000/svg">
<path d="M18.0346 16.0286H15.3678C15.0524 16.0286 14.7964 15.7726 14.7964 15.4571V14.5047H12.1296V15.4571C12.1296 15.7726 11.8736 16.0286 11.5582 16.0286H7.36762C7.05219 16.0286 6.79618 15.7726 6.79618 15.4571V14.5047H4.12944V15.4571C4.12944 15.7726 3.87344 16.0286 3.558 16.0286H0.891267C0.575831 16.0286 0.319824 15.7726 0.319824 15.4571V12.0285C0.319824 11.713 0.575831 11.457 0.891267 11.457H18.0346C18.35 11.457 18.606 11.713 18.606 12.0285V15.4571C18.606 15.7726 18.35 16.0286 18.0346 16.0286Z" fill="#00982F"/>
<path d="M9.46291 7.64737C9.04233 7.64737 8.70098 7.30603 8.70098 6.88544V0.980533C8.70098 0.559951 9.04233 0.218609 9.46291 0.218609C9.8835 0.218609 10.2248 0.559951 10.2248 0.980533V6.88544C10.2248 7.30603 9.8835 7.64737 9.46291 7.64737Z" fill="#00982F"/>
<path d="M12.3201 4.21877C12.1335 4.21877 11.9468 4.15096 11.8005 4.01381L9.46292 1.83242L7.12534 4.01381C6.81981 4.30182 6.33674 4.28505 6.04874 3.97647C5.76149 3.66942 5.77825 3.18712 6.08607 2.89988L8.94329 0.233141C9.23587 -0.0396278 9.68998 -0.0396278 9.98256 0.233141L12.8398 2.89988C13.1476 3.18712 13.1644 3.66942 12.8771 3.97647C12.727 4.138 12.5236 4.21877 12.3201 4.21877Z" fill="#00982F"/>
</svg>
