<svg width="21" height="19" viewBox="0 0 21 19" fill="none" xmlns="http://www.w3.org/2000/svg">
<path d="M19.6162 12.3127C20.0477 12.3127 20.3975 11.9629 20.3975 11.5314V6.45331C20.3975 4.73018 18.9956 3.32831 17.2725 3.32831H16.0865C15.7519 3.32831 15.4547 3.11553 15.3469 2.79878L15.1105 2.10436C14.7871 1.15421 13.8954 0.515808 12.8918 0.515808H7.9007C6.91648 0.515808 6.03059 1.1378 5.69633 2.0635L5.4259 2.81241C5.31445 3.12096 5.01918 3.32831 4.69109 3.32831H3.52246C1.79934 3.32831 0.397461 4.73018 0.397461 6.45331V15.4377C0.397461 17.1608 1.79934 18.5627 3.52246 18.5627H17.2725C18.9956 18.5627 20.3975 17.1608 20.3975 15.4377C20.3975 15.0062 20.0477 14.6564 19.6162 14.6564C19.1847 14.6564 18.835 15.0062 18.835 15.4377C18.835 16.2992 18.134 17.0002 17.2725 17.0002H3.52246C2.6609 17.0002 1.95996 16.2992 1.95996 15.4377V6.45331C1.95996 5.59175 2.6609 4.89081 3.52246 4.89081H4.69109C5.67531 4.89081 6.56121 4.26882 6.89547 3.34311L7.1659 2.59421C7.27734 2.28565 7.57262 2.07831 7.9007 2.07831H12.8918C13.2263 2.07831 13.5235 2.29112 13.6314 2.60784L13.8677 3.30225C14.1911 4.25241 15.0828 4.89081 16.0865 4.89081H17.2725C18.134 4.89081 18.835 5.59175 18.835 6.45331V11.5314C18.835 11.9629 19.1847 12.3127 19.6162 12.3127Z" fill="#A9A9A9"/>
<path d="M10.4365 5.67206C7.74414 5.67206 5.55371 7.86249 5.55371 10.5549C5.55371 13.2473 7.74414 15.4377 10.4365 15.4377C13.1289 15.4377 15.3193 13.2473 15.3193 10.5549C15.3193 7.86249 13.1289 5.67206 10.4365 5.67206ZM10.4365 13.8752C8.6057 13.8752 7.11621 12.3857 7.11621 10.5549C7.11621 8.72405 8.6057 7.23456 10.4365 7.23456C12.2673 7.23456 13.7568 8.72405 13.7568 10.5549C13.7568 12.3857 12.2673 13.8752 10.4365 13.8752Z" fill="#A9A9A9"/>
</svg>
