<svg width="15" height="15" viewBox="0 0 15 15" fill="none" xmlns="http://www.w3.org/2000/svg">
<path d="M8.08574 6.9148L8.08572 -2.27719C8.08572 -2.60081 7.82337 -2.86316 7.49977 -2.86314C7.17617 -2.86312 6.9138 -2.60079 6.91382 -2.27719L6.91382 6.91482L-2.27817 6.9148C-2.6018 6.9148 -2.86414 7.17715 -2.86412 7.50076C-2.8641 7.82436 -2.60178 8.08673 -2.27817 8.08671L6.9138 8.08671L6.91382 17.2787C6.91382 17.6023 7.17617 17.8647 7.49977 17.8646C7.66156 17.8646 7.80804 17.799 7.91409 17.693C8.02013 17.587 8.08572 17.4405 8.08574 17.2787L8.08572 8.08673L17.2777 8.08673C17.4395 8.08673 17.586 8.02112 17.692 7.91507C17.7981 7.80903 17.8636 7.66257 17.8637 7.50076C17.8637 7.17713 17.6013 6.91478 17.2777 6.9148L8.08574 6.9148Z" fill="#00982F"/>
</svg>
