<svg width="19" height="19" viewBox="0 0 19 19" fill="none" xmlns="http://www.w3.org/2000/svg">
<path d="M18.1362 13.3784C17.0996 12.3789 16.2311 11.8019 15.4031 11.5626C14.2622 11.2328 13.2053 11.5327 12.2622 12.4538L12.258 12.458L11.2535 13.4549C10.6296 13.1045 9.41691 12.3332 8.09054 11.0068L7.99284 10.9091C6.67516 9.59145 5.89905 8.37192 5.54593 7.74555L6.54195 6.742L6.54615 6.7378C7.46722 5.79455 7.76714 4.7378 7.43736 3.59683C7.19803 2.76883 6.62109 1.90038 5.6216 0.86378C5.11106 0.334536 4.42526 0.0283828 3.69032 0.00185534C2.95538 -0.0245271 2.24943 0.23118 1.70192 0.72259L1.68061 0.741725C1.67075 0.750567 1.66119 0.7597 1.65176 0.769122C0.562254 1.85863 -0.00888298 3.38389 0.000104455 5.18007C0.0153251 8.23116 1.69221 11.7205 4.48585 14.5141C4.48817 14.5166 4.49064 14.5189 4.49296 14.5212C5.018 15.0455 5.61421 15.5645 6.26522 16.0636C6.59051 16.3129 7.05626 16.2514 7.30573 15.9262C7.55521 15.6009 7.4936 15.135 7.16831 14.8856C6.56586 14.4237 6.01647 13.9456 5.53535 13.4645C5.53318 13.4621 5.53071 13.4598 5.52854 13.4576C3.0093 10.9355 1.49767 7.83905 1.48434 5.17253C1.47752 3.78934 1.89356 2.63474 2.68793 1.83225L2.69358 1.82703C3.23312 1.34287 4.04982 1.3723 4.55297 1.89415C6.47454 3.88689 6.33538 4.82753 5.48636 5.6983L4.11055 7.08439C3.89486 7.30183 3.8347 7.62944 3.95936 7.90921C3.9943 7.98763 4.83912 9.85485 6.94348 11.9591L7.04118 12.0566C9.14511 14.1607 11.0123 15.0055 11.0908 15.0406C11.3705 15.1651 11.6981 15.1051 11.9156 14.8893L13.3014 13.5137C14.1721 12.6646 15.1129 12.5253 17.1058 14.4468C17.6277 14.95 17.6571 15.7668 17.1729 16.3062L17.1677 16.312C16.3717 17.0999 15.2295 17.5156 13.8612 17.5156C13.8499 17.5156 13.8386 17.5156 13.8274 17.5155C12.7337 17.5101 11.4672 17.2103 10.165 16.6486C9.78859 16.4861 9.35197 16.6598 9.18962 17.0361C9.02726 17.4126 9.20078 17.8492 9.57709 18.0115C11.0823 18.6608 12.5099 18.9933 13.8199 18.9999C13.8338 19 13.8477 19 13.8616 19C15.6397 19 17.1497 18.4293 18.2308 17.3482C18.2403 17.3388 18.2494 17.3292 18.2582 17.3192L18.2775 17.2979C18.7688 16.7505 19.0246 16.0444 18.9981 15.3096C18.9716 14.5747 18.6654 13.8888 18.1362 13.3784Z" fill="#A9A9A9"/>
</svg>
