<svg width="21" height="21" viewBox="0 0 21 21" fill="none" xmlns="http://www.w3.org/2000/svg">
<path d="M20.1407 17.2976C20.0528 16.8752 19.6391 16.604 19.2166 16.692C18.7942 16.7799 18.523 17.1936 18.611 17.616C18.6617 17.8593 18.6013 18.1087 18.4455 18.3004C18.3553 18.4113 18.1541 18.5975 17.8206 18.5975H2.56221C2.2287 18.5975 2.02749 18.4113 1.93725 18.3004C1.78143 18.1088 1.72112 17.8593 1.77178 17.616C2.58256 13.7217 6.01752 10.8769 9.98428 10.781C10.053 10.7836 10.122 10.785 10.1914 10.785C10.261 10.785 10.3303 10.7836 10.3993 10.7809C13.1935 10.848 15.7762 12.2633 17.3402 14.5958C17.5805 14.9542 18.0657 15.0499 18.4242 14.8096C18.7825 14.5693 18.8783 14.084 18.638 13.7257C17.356 11.8138 15.4946 10.4236 13.3722 9.72501C14.6655 8.75513 15.5039 7.20986 15.5039 5.47247C15.5039 2.54318 13.1207 0.159973 10.1914 0.159973C7.26206 0.159973 4.87889 2.54318 4.87889 5.47247C4.87889 7.21091 5.71827 8.757 7.01299 9.72681C5.82674 10.1174 4.71366 10.7251 3.73944 11.5264C1.95303 12.9958 0.710962 15.0454 0.242094 17.2976C0.0951412 18.0033 0.271196 18.7281 0.725024 19.2862C1.17663 19.8415 1.84627 20.16 2.56221 20.16H17.8205C18.5365 20.16 19.2062 19.8415 19.6577 19.2862C20.1116 18.7281 20.2876 18.0033 20.1407 17.2976ZM6.44139 5.47247C6.44139 3.4047 8.12362 1.72247 10.1914 1.72247C12.2592 1.72247 13.9414 3.4047 13.9414 5.47247C13.9414 7.47657 12.3611 9.11853 10.3812 9.21771C10.318 9.21654 10.2548 9.21595 10.1914 9.21595C10.1283 9.21595 10.0653 9.21657 10.0023 9.21775C8.02206 9.11896 6.44139 7.47685 6.44139 5.47247Z" fill="black"/>
</svg>
