<svg width="26" height="26" viewBox="0 0 26 26" fill="none" xmlns="http://www.w3.org/2000/svg">
<path d="M25.9341 22.2789C25.8198 21.7298 25.282 21.3773 24.7327 21.4916C24.1836 21.6059 23.8311 22.1438 23.9455 22.6929C24.0113 23.0092 23.9329 23.3334 23.7304 23.5825C23.6131 23.7268 23.3515 23.9688 22.9179 23.9688H3.08205C2.64848 23.9688 2.3869 23.7267 2.2696 23.5825C2.06703 23.3334 1.98862 23.0092 2.05449 22.6929C3.1085 17.6302 7.57395 13.932 12.7307 13.8073C12.8201 13.8108 12.9098 13.8125 13 13.8125C13.0905 13.8125 13.1806 13.8107 13.2702 13.8073C16.9027 13.8944 20.2602 15.7343 22.2934 18.7666C22.6058 19.2325 23.2366 19.3569 23.7026 19.0445C24.1685 18.7322 24.2929 18.1013 23.9805 17.6354C22.314 15.15 19.8941 13.3427 17.135 12.4346C18.8164 11.1737 19.9062 9.16485 19.9062 6.90625C19.9062 3.09816 16.8081 0 13 0C9.19184 0 6.09373 3.09816 6.09373 6.90625C6.09373 9.16622 7.18492 11.1761 8.86806 12.4369C7.32594 12.9446 5.87893 13.7346 4.61244 14.7763C2.29011 16.6866 0.675422 19.351 0.0658945 22.2789C-0.125145 23.1963 0.103727 24.1386 0.693703 24.8641C1.28079 25.586 2.15133 26 3.08205 26H22.9179C23.8486 26 24.7192 25.586 25.3062 24.8641C25.8963 24.1386 26.1251 23.1963 25.9341 22.2789ZM8.12498 6.90625C8.12498 4.21814 10.3119 2.03125 13 2.03125C15.6881 2.03125 17.875 4.21814 17.875 6.90625C17.875 9.51158 15.8206 11.6461 13.2467 11.7751C13.1646 11.7735 13.0823 11.7728 13 11.7728C12.918 11.7728 12.8361 11.7736 12.7542 11.7751C10.1798 11.6467 8.12498 9.51194 8.12498 6.90625Z" fill="#00982F"/>
</svg>
