<svg width="71" height="71" viewBox="0 0 71 71" fill="none" xmlns="http://www.w3.org/2000/svg">
<g clip-path="url(#clip0)">
<path d="M26.6955 13.4152C26.6955 24.5385 14.894 32.8446 14.894 32.8446C14.894 32.8446 3.09256 24.5385 3.09256 13.4152C3.09256 6.89742 8.37633 1.61365 14.8941 1.61365C21.4119 1.61365 26.6955 6.89742 26.6955 13.4152Z" fill="#F6E646"/>
<path d="M14.8943 18.5963C17.7561 18.5963 20.076 16.2764 20.076 13.4147C20.076 10.5529 17.7561 8.23303 14.8943 8.23303C12.0326 8.23303 9.71268 10.5529 9.71268 13.4147C9.71268 16.2764 12.0326 18.5963 14.8943 18.5963Z" fill="white"/>
<path d="M50.5589 51.813C50.5589 61.5523 40.2258 68.8248 40.2258 68.8248C40.2258 68.8248 29.8927 61.5522 29.8927 51.813C29.8927 46.1063 34.519 41.48 40.2258 41.48C45.9327 41.4797 50.5589 46.106 50.5589 51.813Z" fill="#F6E646"/>
<path d="M40.2254 56.3494C42.7308 56.3494 44.7619 54.3184 44.7619 51.813C44.7619 49.3075 42.7308 47.2765 40.2254 47.2765C37.72 47.2765 35.689 49.3075 35.689 51.813C35.689 54.3184 37.72 56.3494 40.2254 56.3494Z" fill="white"/>
<path d="M14.8942 34.239C14.6132 34.239 14.3324 34.1543 14.0916 33.9849C13.9653 33.8959 10.9617 31.7656 7.93149 28.2049C3.85358 23.413 1.69821 18.2989 1.69821 13.4152C1.69821 6.13902 7.61786 0.219238 14.8942 0.219238C22.1705 0.219238 28.0901 6.13902 28.0901 13.4152C28.0901 18.2989 25.9346 23.413 21.857 28.2049C18.8267 31.7657 15.8232 33.8959 15.6968 33.9849C15.4561 34.1543 15.1751 34.239 14.8942 34.239ZM14.8942 3.00803C9.15567 3.00803 4.487 7.67656 4.487 13.4152C4.487 22.0543 12.324 29.0334 14.8929 31.0887C17.4594 29.0304 25.3012 22.0341 25.3012 13.4152C25.3012 7.67656 20.6327 3.00803 14.8942 3.00803Z" fill="#00982F"/>
<path d="M14.8942 19.9908C11.2684 19.9908 8.31866 17.0411 8.31866 13.4153C8.31866 9.78956 11.2684 6.83972 14.8942 6.83972C18.5199 6.83972 21.4696 9.78943 21.4696 13.4152C21.4696 17.041 18.5198 19.9908 14.8942 19.9908ZM14.8942 9.62851C12.8062 9.62851 11.1075 11.3272 11.1075 13.4152C11.1075 15.5032 12.8062 17.2019 14.8942 17.2019C16.9821 17.2019 18.6809 15.5032 18.6809 13.4152C18.6809 11.3272 16.9823 9.62851 14.8942 9.62851Z" fill="#00982F"/>
<path d="M40.2258 70.2192C39.9449 70.2192 39.6641 70.1346 39.4232 69.9652C38.9771 69.6513 28.4981 62.1572 28.4981 51.8131C28.4981 45.3464 33.7592 40.0854 40.2257 40.0854C46.6922 40.0854 51.9533 45.3465 51.9533 51.8131C51.9533 62.1572 41.4745 69.6513 41.0282 69.9652C40.7876 70.1346 40.5068 70.2192 40.2258 70.2192ZM40.2258 42.8742C35.297 42.8742 31.287 46.8842 31.287 51.8131C31.287 59.1666 37.8927 65.1725 40.2258 67.064C42.558 65.1734 49.1647 59.1673 49.1647 51.8131C49.1647 46.8841 45.1547 42.8742 40.2258 42.8742Z" fill="#00982F"/>
<path d="M40.2258 57.7439C36.9555 57.7439 34.295 55.0834 34.295 51.8131C34.295 48.5427 36.9555 45.8822 40.2258 45.8822C43.4961 45.8822 46.1567 48.5427 46.1567 51.8131C46.1567 55.0834 43.4961 57.7439 40.2258 57.7439ZM40.2258 48.6709C38.4933 48.6709 37.0838 50.0803 37.0838 51.8129C37.0838 53.5454 38.4932 54.955 40.2258 54.955C41.9585 54.955 43.3679 53.5456 43.3679 51.8129C43.3679 50.0803 41.9585 48.6709 40.2258 48.6709Z" fill="#00982F"/>
<path d="M48.7692 70.2192H48.072C47.302 70.2192 46.6776 69.595 46.6776 68.8248C46.6776 68.0547 47.302 67.4304 48.072 67.4304H48.7692C49.5392 67.4304 50.1636 68.0547 50.1636 68.8248C50.1636 69.595 49.5392 70.2192 48.7692 70.2192Z" fill="#00982F"/>
<path d="M55.6204 69.1802C55.0475 69.1802 54.5105 68.8245 54.3069 68.2539C54.0482 67.5285 54.4264 66.7308 55.1518 66.4721C55.3528 66.4005 55.5553 66.3238 55.7533 66.2443C56.4676 65.9578 57.2797 66.3048 57.5664 67.0197C57.8531 67.7344 57.5058 68.5462 56.7911 68.8329C56.5599 68.9256 56.3236 69.0151 56.089 69.0989C55.9341 69.154 55.7761 69.1802 55.6204 69.1802Z" fill="#00982F"/>
<path d="M62.0841 65.1628C61.7197 65.1628 61.3554 65.0208 61.082 64.7381C60.5463 64.1848 60.561 63.302 61.1143 62.7663C61.2689 62.6166 61.4217 62.4631 61.5683 62.3099C62.1012 61.7536 62.9835 61.7345 63.5401 62.267C64.0962 62.7995 64.1155 63.6822 63.583 64.2386C63.412 64.4173 63.234 64.5961 63.0538 64.7705C62.7831 65.0324 62.4333 65.1628 62.0841 65.1628Z" fill="#00982F"/>
<path d="M66.3161 58.8385C66.1458 58.8385 65.9727 58.8072 65.8045 58.7407C65.0883 58.458 64.7368 57.6481 65.0195 56.9318C65.0987 56.7311 65.1744 56.5278 65.2447 56.3277C65.4992 55.6009 66.2956 55.218 67.0218 55.473C67.7486 55.7277 68.1311 56.5234 67.8764 57.2502C67.7944 57.4843 67.7059 57.7216 67.6135 57.9558C67.3973 58.5039 66.8719 58.8385 66.3161 58.8385Z" fill="#00982F"/>
<path d="M67.5459 51.3256C66.8071 51.3256 66.1907 50.7455 66.1542 49.9995C66.144 49.7868 66.129 49.5709 66.1104 49.3581C66.043 48.5908 66.6101 47.9143 67.3772 47.8468C68.1431 47.7792 68.821 48.3463 68.8886 49.1136C68.9104 49.3622 68.9277 49.614 68.9399 49.8628C68.9776 50.632 68.3848 51.2862 67.6155 51.3239C67.5921 51.325 67.5689 51.3256 67.5459 51.3256Z" fill="#00982F"/>
<path d="M65.5711 43.9787C65.0664 43.9787 64.5791 43.7037 64.3313 43.2241C64.2342 43.0363 64.1312 42.8465 64.0257 42.66C63.6457 41.9901 63.8808 41.1391 64.5508 40.7591C65.2207 40.3793 66.0717 40.6143 66.4516 41.2842C66.5752 41.5019 66.6954 41.7238 66.809 41.9435C67.1626 42.6276 66.8946 43.4688 66.2104 43.8224C66.0055 43.9285 65.7868 43.9787 65.5711 43.9787Z" fill="#00982F"/>
<path d="M60.7267 38.1091C60.4236 38.1091 60.1184 38.0107 59.8622 37.808C59.6961 37.6765 59.524 37.5458 59.3504 37.4189C58.7283 36.9649 58.5921 36.0928 59.0457 35.4706C59.4998 34.8484 60.3721 34.7123 60.9941 35.166C61.197 35.314 61.3984 35.467 61.593 35.621C62.1968 36.0989 62.299 36.976 61.821 37.5797C61.5458 37.9277 61.1382 38.1091 60.7267 38.1091Z" fill="#00982F"/>
<path d="M53.8954 34.7601C53.7849 34.7601 53.6727 34.7469 53.5607 34.7193C53.3545 34.6685 53.1436 34.6208 52.9341 34.5779C52.1797 34.4231 51.6937 33.6861 51.8486 32.9315C52.0035 32.1771 52.7409 31.6912 53.4949 31.846C53.7398 31.8962 53.9863 31.952 54.228 32.0116C54.9757 32.1957 55.4327 32.9512 55.2484 33.6991C55.0917 34.3348 54.5222 34.7601 53.8954 34.7601Z" fill="#00982F"/>
<path d="M46.2688 34.239H45.5715C44.8015 34.239 44.1772 33.6147 44.1772 32.8446C44.1772 32.0745 44.8015 31.4502 45.5715 31.4502H46.2688C47.0388 31.4502 47.6632 32.0745 47.6632 32.8446C47.6632 33.6147 47.0389 34.239 46.2688 34.239Z" fill="#00982F"/>
<path d="M38.5993 34.239H37.902C37.132 34.239 36.5076 33.6147 36.5076 32.8446C36.5076 32.0745 37.132 31.4502 37.902 31.4502H38.5993C39.3693 31.4502 39.9937 32.0745 39.9937 32.8446C39.9937 33.6147 39.3694 34.239 38.5993 34.239Z" fill="#00982F"/>
<path d="M30.93 34.239H30.2328C29.4626 34.239 28.8384 33.6147 28.8384 32.8446C28.8384 32.0745 29.4626 31.4502 30.2328 31.4502H30.93C31.7002 31.4502 32.3244 32.0745 32.3244 32.8446C32.3244 33.6147 31.7 34.239 30.93 34.239Z" fill="#00982F"/>
<path d="M23.2608 34.239H22.5635C21.7934 34.239 21.1691 33.6147 21.1691 32.8446C21.1691 32.0745 21.7934 31.4502 22.5635 31.4502H23.2608C24.0309 31.4502 24.6552 32.0745 24.6552 32.8446C24.6552 33.6147 24.0308 34.239 23.2608 34.239Z" fill="#00982F"/>
</g>
<defs>
<clipPath id="clip0">
<rect x="0.319946" y="0.219238" width="70" height="70" fill="white"/>
</clipPath>
</defs>
</svg>
