<svg width="31" height="30" viewBox="0 0 31 30" fill="none" xmlns="http://www.w3.org/2000/svg">
<path d="M30.0009 11.1666C29.5584 9.80507 28.3532 8.92523 26.9304 8.92523H20.9361C20.5386 8.92523 20.2075 8.69642 20.0931 8.34439L18.2401 2.60438C17.7995 1.24834 16.5936 0.372192 15.1678 0.372192C13.742 0.372192 12.5361 1.24834 12.0948 2.60649L10.2431 8.34228C10.128 8.69642 9.79694 8.92523 9.39944 8.92523H3.40501C1.98224 8.92523 0.77697 9.80501 0.334588 11.1666C-0.109552 12.5335 0.350408 13.9594 1.50623 14.7991L6.35585 18.3226C6.66768 18.5491 6.79724 18.9477 6.67806 19.3144L4.82568 25.0153C4.38505 26.3714 4.84571 27.789 5.99919 28.6271C6.57593 29.0461 7.23692 29.2556 7.89792 29.2556C8.55897 29.2556 9.22002 29.0461 9.7967 28.6271L14.6463 25.1036C14.9581 24.8771 15.3772 24.8769 15.6891 25.1036L20.5387 28.6271C21.6922 29.4651 23.1828 29.4652 24.3362 28.6271C25.4897 27.7891 25.9503 26.3714 25.5097 25.0153L24.2416 21.1125C24.0417 20.4971 23.3806 20.1603 22.7653 20.3603C22.1498 20.5602 21.813 21.2212 22.013 21.8366L23.281 25.7394C23.4658 26.3082 23.0811 26.6424 22.9588 26.7313C22.8364 26.8201 22.3997 27.0829 21.916 26.7313L17.0664 23.2079C15.9308 22.3827 14.4046 22.3827 13.2689 23.2078L8.41934 26.7313C7.93547 27.0828 7.49878 26.8201 7.37649 26.7313C7.25415 26.6424 6.86948 26.3082 7.05423 25.7394L8.90661 20.0385C9.34049 18.7033 8.86887 17.2519 7.73315 16.4268L2.88353 12.9033C2.39603 12.5492 2.51503 12.0388 2.56314 11.8908C2.6106 11.7448 2.81146 11.2686 3.40495 11.2686H9.39932C10.809 11.2686 12.0436 10.3836 12.4723 9.06433L14.324 3.32859C14.5088 2.75977 15.0165 2.71559 15.1677 2.71559C15.3189 2.71559 15.8266 2.75977 16.0107 3.32648L17.8638 9.06644C18.2918 10.3836 19.5264 11.2686 20.9361 11.2686H26.9304C27.5239 11.2686 27.7247 11.7448 27.7722 11.8908C27.8203 12.0388 27.9393 12.5492 27.4518 12.9033L24.1451 15.3058C23.6216 15.6863 23.5055 16.4189 23.8859 16.9425C24.2662 17.466 24.9989 17.5819 25.5225 17.2017L28.8292 14.7992C29.9851 13.9594 30.445 12.5335 30.0009 11.1666Z" fill="#F6E646"/>
</svg>
