<svg width="31" height="30" viewBox="0 0 31 30" fill="none" xmlns="http://www.w3.org/2000/svg">
<path d="M30.5488 11.1666C30.1064 9.80507 28.9012 8.92523 27.4784 8.92523H21.4841C21.0866 8.92523 20.7555 8.69642 20.6411 8.34439L18.7881 2.60438C18.3475 1.24834 17.1415 0.372192 15.7158 0.372192C14.29 0.372192 13.084 1.24834 12.6428 2.60649L10.7911 8.34228C10.676 8.69642 10.3449 8.92523 9.94741 8.92523H3.95299C2.53022 8.92523 1.32494 9.80501 0.882561 11.1666C0.438421 12.5335 0.898381 13.9594 2.0542 14.7991L6.90382 18.3226C7.21566 18.5491 7.34521 18.9477 7.22603 19.3144L5.37365 25.0153C4.93302 26.3714 5.39369 27.789 6.54716 28.6271C7.1239 29.0461 7.78489 29.2556 8.44589 29.2556C9.10694 29.2556 9.768 29.0461 10.3447 28.6271L15.1943 25.1036C15.5061 24.8771 15.9252 24.8769 16.2371 25.1036L21.0867 28.6271C22.2401 29.4651 23.7308 29.4652 24.8842 28.6271C26.0376 27.7891 26.4983 26.3714 26.0577 25.0153L24.7896 21.1125C24.5897 20.4971 23.9286 20.1603 23.3133 20.3603C22.6978 20.5602 22.361 21.2212 22.561 21.8366L23.829 25.7394C24.0138 26.3082 23.6291 26.6424 23.5067 26.7313C23.3844 26.8201 22.9477 27.0829 22.464 26.7313L17.6144 23.2079C16.4787 22.3827 14.9526 22.3827 13.8169 23.2078L8.96731 26.7313C8.48345 27.0828 8.04675 26.8201 7.92447 26.7313C7.80212 26.6424 7.41745 26.3082 7.6022 25.7394L9.45458 20.0385C9.88847 18.7033 9.41685 17.2519 8.28112 16.4268L3.4315 12.9033C2.944 12.5492 3.06301 12.0388 3.11111 11.8908C3.15857 11.7448 3.35943 11.2686 3.95293 11.2686H9.94729C11.3569 11.2686 12.5916 10.3836 13.0203 9.06433L14.872 3.32859C15.0568 2.75977 15.5645 2.71559 15.7157 2.71559C15.8668 2.71559 16.3746 2.75977 16.5587 3.32648L18.4117 9.06644C18.8398 10.3836 20.0743 11.2686 21.484 11.2686H27.4783C28.0719 11.2686 28.2727 11.7448 28.3202 11.8908C28.3683 12.0388 28.4873 12.5492 27.9998 12.9033L24.693 15.3058C24.1696 15.6863 24.0535 16.4189 24.4339 16.9425C24.8142 17.466 25.5469 17.5819 26.0705 17.2017L29.3772 14.7992C30.5331 13.9594 30.993 12.5335 30.5488 11.1666Z" fill="#A9A9A9"/>
</svg>
