<svg width="16" height="16" viewBox="0 0 16 16" fill="none" xmlns="http://www.w3.org/2000/svg">
<path d="M6.34061 12.7943C3.0668 12.7943 0.403076 10.1306 0.403076 6.85691C0.403076 3.5831 3.0668 0.919373 6.34061 0.919373C9.61431 0.919373 12.278 3.5831 12.278 6.85691C12.278 10.1306 9.61431 12.7943 6.34061 12.7943ZM6.34061 1.85687C3.58373 1.85687 1.34058 4.10003 1.34058 6.85691C1.34058 9.61379 3.58373 11.8568 6.34061 11.8568C9.0975 11.8568 11.3405 9.61379 11.3405 6.85691C11.3405 4.10003 9.0975 1.85687 6.34061 1.85687Z" fill="#A9A9A9"/>
<path d="M14.9343 15.9194C14.8143 15.9194 14.6943 15.8737 14.603 15.7819L9.8781 11.0569C9.69499 10.8738 9.69499 10.5769 9.8781 10.3937C10.0612 10.2106 10.3581 10.2106 10.5412 10.3937L15.2662 15.1187C15.4493 15.3018 15.4493 15.5987 15.2662 15.7819C15.1743 15.8737 15.0544 15.9194 14.9343 15.9194Z" fill="#A9A9A9"/>
</svg>
