<svg width="21" height="20" viewBox="0 0 21 20" fill="none" xmlns="http://www.w3.org/2000/svg">
<path d="M20.3302 7.38037C20.0352 6.47268 19.2318 5.88611 18.2832 5.88611H14.287C14.022 5.88611 13.8013 5.73357 13.725 5.49889L12.4897 1.67221C12.1959 0.768184 11.392 0.184082 10.4415 0.184082C9.49097 0.184082 8.68698 0.768184 8.3928 1.67361L7.15835 5.49748C7.08163 5.73357 6.86089 5.88611 6.59589 5.88611H2.5996C1.65109 5.88611 0.84757 6.47264 0.552648 7.38037C0.256555 8.29162 0.563195 9.24221 1.33374 9.80205L4.56683 12.151C4.77472 12.3021 4.86109 12.5678 4.78163 12.8122L3.54671 16.6129C3.25296 17.5169 3.56007 18.462 4.32905 19.0207C4.71355 19.3001 5.15421 19.4397 5.59487 19.4397C6.03558 19.4397 6.47628 19.3001 6.86073 19.0207L10.0938 16.6717C10.3017 16.5207 10.5811 16.5206 10.789 16.6717L14.0221 19.0207C14.791 19.5794 15.7848 19.5794 16.5537 19.0207C17.3227 18.462 17.6298 17.5169 17.3361 16.6129L16.4907 14.011C16.3574 13.6007 15.9167 13.3762 15.5065 13.5095C15.0962 13.6428 14.8716 14.0834 15.005 14.4937L15.8503 17.0956C15.9735 17.4748 15.717 17.6976 15.6355 17.7569C15.5539 17.8161 15.2628 17.9912 14.9403 17.7568L11.7072 15.4079C10.9501 14.8578 9.93269 14.8578 9.17554 15.4079L5.94249 17.7568C5.61991 17.9912 5.32878 17.8161 5.24726 17.7569C5.1657 17.6976 4.90925 17.4748 5.03241 17.0956L6.26734 13.2949C6.55659 12.4049 6.24218 11.4372 5.48503 10.8872L2.25195 8.53818C1.92695 8.30209 2.00628 7.96182 2.03835 7.86314C2.06999 7.7658 2.2039 7.44834 2.59956 7.44834H6.59581C7.53558 7.44834 8.35866 6.85838 8.64448 5.97885L9.87894 2.15502C10.0021 1.7758 10.3406 1.74635 10.4414 1.74635C10.5422 1.74635 10.8807 1.7758 11.0034 2.15361L12.2388 5.98025C12.5241 6.85838 13.3472 7.44834 14.287 7.44834H18.2832C18.6789 7.44834 18.8128 7.7658 18.8444 7.86314C18.8765 7.96182 18.9558 8.30209 18.6308 8.53818L16.4263 10.1399C16.0773 10.3935 16 10.8819 16.2535 11.231C16.5071 11.5799 16.9955 11.6572 17.3446 11.4038L19.5491 9.80209C20.3197 9.24221 20.6263 8.29166 20.3302 7.38037Z" fill="#A9A9A9"/>
</svg>
