<svg width="75" height="47" viewBox="0 0 75 47" fill="none" xmlns="http://www.w3.org/2000/svg">
<g clip-path="url(#clip0)">
<path d="M73.4354 30.2208L64.7354 20.2888H55.9971V41.5383H73.4354V30.2208Z" fill="white"/>
<path d="M55.9977 12.6618H25.1416V41.5383H55.9977V12.6618Z" fill="white"/>
<path d="M33.7098 45.6958C36.0059 45.6958 37.8673 43.8344 37.8673 41.5383C37.8673 39.2422 36.0059 37.3808 33.7098 37.3808C31.4136 37.3808 29.5522 39.2422 29.5522 41.5383C29.5522 43.8344 31.4136 45.6958 33.7098 45.6958Z" fill="#F6E646"/>
<path d="M64.5433 45.6958C66.8394 45.6958 68.7008 43.8344 68.7008 41.5383C68.7008 39.2422 66.8394 37.3808 64.5433 37.3808C62.2471 37.3808 60.3857 39.2422 60.3857 41.5383C60.3857 43.8344 62.2471 45.6958 64.5433 45.6958Z" fill="#F6E646"/>
<path d="M25.1788 22.754C31.0372 22.754 35.7863 18.0049 35.7863 12.1465C35.7863 6.28815 31.0372 1.539 25.1788 1.539C19.3204 1.539 14.5713 6.28815 14.5713 12.1465C14.5713 18.0049 19.3204 22.754 25.1788 22.754Z" fill="#F6E646"/>
<path d="M59.0939 43.0324C59.7509 45.4258 61.9443 47.1899 64.5435 47.1899C67.1428 47.1899 69.3362 45.4258 69.9933 43.0324H73.436C74.261 43.0324 74.93 42.3636 74.93 41.5384V30.2209C74.93 29.8588 74.7983 29.5088 74.5598 29.2365L65.86 19.3046C65.5763 18.9809 65.1667 18.795 64.7362 18.795H57.4918V12.6614C57.4918 11.8362 56.8228 11.1674 55.9978 11.1674H37.2374C36.7366 4.95131 31.5217 0.0452576 25.1788 0.0452576C18.5059 0.0452576 13.0771 5.47397 13.0771 12.1469C13.0771 18.3007 17.6952 23.3925 23.647 24.1481V37.0321H14.9979C14.1727 37.0321 13.5039 37.701 13.5039 38.5261C13.5039 39.3513 14.1727 40.0201 14.9979 40.0201H23.647V41.5384C23.647 42.3636 24.3159 43.0324 25.141 43.0324H28.2595C28.9165 45.4258 31.11 47.1899 33.7092 47.1899C36.3084 47.1899 38.5018 45.4258 39.159 43.0324H59.0939ZM16.0653 12.1468C16.0653 7.12148 20.1535 3.03325 25.1788 3.03325C30.2041 3.03325 34.2923 7.12148 34.2923 12.1468C34.2923 17.1721 30.2041 21.2603 25.1788 21.2603C20.1535 21.2603 16.0653 17.1721 16.0653 12.1468ZM54.5034 40.0443H39.1588C38.5018 37.6509 36.3082 35.8868 33.709 35.8868C31.11 35.8868 28.9165 37.6509 28.2594 40.0443H26.6349V24.1576C31.9599 23.5156 36.2294 19.4042 37.1104 14.1554H54.5032V40.0443H54.5034ZM33.7092 44.202C32.2405 44.202 31.0458 43.0071 31.0458 41.5384C31.0458 40.0698 32.2405 38.8749 33.7092 38.8749C35.178 38.8749 36.3727 40.0698 36.3727 41.5384C36.3727 43.0069 35.1778 44.202 33.7092 44.202ZM64.5432 44.202C63.0746 44.202 61.8799 43.0071 61.8799 41.5384C61.8799 40.0698 63.0746 38.8749 64.5432 38.8749C66.0119 38.8749 67.2068 40.0698 67.2068 41.5384C67.2068 43.0069 66.012 44.202 64.5432 44.202ZM71.9419 40.0443H69.9931C69.3361 37.6509 67.1425 35.8868 64.5432 35.8868C61.944 35.8868 59.7507 37.6509 59.0936 40.0443H57.4912V21.7828H64.0582L71.9417 30.7825V40.0443H71.9419Z" fill="#00982F"/>
<path d="M10.0753 37.032H9.27817C8.45303 37.032 7.78418 37.7008 7.78418 38.526C7.78418 39.3511 8.45303 40.02 9.27817 40.02H10.0753C10.9005 40.02 11.5693 39.3511 11.5693 38.526C11.5693 37.7008 10.9005 37.032 10.0753 37.032Z" fill="#00982F"/>
<path d="M3.32017 17.6651H9.27798C10.1031 17.6651 10.772 16.9963 10.772 16.1711C10.772 15.346 10.1031 14.6771 9.27798 14.6771H3.32017C2.49502 14.6771 1.82617 15.346 1.82617 16.1711C1.82617 16.9963 2.49502 17.6651 3.32017 17.6651Z" fill="#00982F"/>
<path d="M18.9286 27.1975C18.9286 26.3723 18.2597 25.7035 17.4346 25.7035H1.42368C0.598535 25.7035 -0.0703125 26.3723 -0.0703125 27.1975C-0.0703125 28.0226 0.598535 28.6915 1.42368 28.6915H17.4346C18.2597 28.6916 18.9286 28.0226 18.9286 27.1975Z" fill="#00982F"/>
<path d="M27.7431 16.2053C28.1254 16.2053 28.5079 16.0594 28.7995 15.7677C29.383 15.1843 29.383 14.2383 28.7995 13.6547L26.6726 11.5279V5.15272C26.6726 4.32757 26.0037 3.65872 25.1786 3.65872C24.3534 3.65872 23.6846 4.32757 23.6846 5.15272V12.1468C23.6846 12.543 23.842 12.9231 24.1221 13.2032L26.6866 15.7677C26.9784 16.0594 27.3609 16.2053 27.7431 16.2053Z" fill="#00982F"/>
</g>
<defs>
<clipPath id="clip0">
<rect x="-0.0703125" y="-13.8824" width="75" height="75" fill="white"/>
</clipPath>
</defs>
</svg>
