<svg width="31" height="25" viewBox="0 0 31 25" fill="none" xmlns="http://www.w3.org/2000/svg">
<path d="M26.5697 12.4971L25.92 9.19222C25.7421 8.26456 25.4353 7.55635 24.9817 7.027C24.397 6.34461 23.5769 5.9839 22.6098 5.9839H18.8093V1.44024C18.8093 0.813664 18.3013 0.305756 17.6748 0.305756H2.13235C1.50577 0.305756 0.997864 0.813664 0.997864 1.44024V17.4989C0.997864 19.9712 2.98554 21.9866 5.44657 22.0345C5.91426 23.3561 7.17586 24.3058 8.65563 24.3058C10.1346 24.3058 11.3956 23.3572 11.8639 22.0368H18.8909C19.3593 23.3572 20.6203 24.3058 22.0993 24.3058C23.5782 24.3058 24.8392 23.3572 25.3076 22.0368H28.9062C29.5327 22.0368 30.0406 21.5289 30.0406 20.9023V16.8182C30.0406 14.7058 28.5525 12.9344 26.5697 12.4971ZM18.8093 8.25281H22.6098C22.956 8.25281 23.4302 8.25281 23.6921 9.6218C23.6925 9.62367 23.6929 9.62554 23.6932 9.62747L24.2481 12.4504H18.8093V8.25281ZM8.65563 22.0368C8.03007 22.0368 7.52114 21.5279 7.52114 20.9023C7.52114 20.2768 8.03007 19.7678 8.65563 19.7678C9.28118 19.7678 9.79011 20.2768 9.79011 20.9023C9.79011 21.5279 9.28118 22.0368 8.65563 22.0368ZM22.0993 22.0368C21.4737 22.0368 20.9648 21.5279 20.9648 20.9023C20.9648 20.2768 21.4737 19.7678 22.0993 19.7678C22.7248 19.7678 23.2337 20.2768 23.2337 20.9023C23.2337 21.5279 22.7248 22.0368 22.0993 22.0368ZM27.7717 19.7678H25.3076C24.8393 18.4474 23.5782 17.4989 22.0993 17.4989C20.6203 17.4989 19.3593 18.4474 18.8909 19.7678H11.8639C11.3956 18.4474 10.1346 17.4989 8.65563 17.4989C7.17751 17.4989 5.91704 18.4463 5.4481 19.7656C4.2375 19.7193 3.26683 18.7206 3.26683 17.4989V2.57472H16.5403V12.4504H6.67028C6.04371 12.4504 5.5358 12.9583 5.5358 13.5849C5.5358 14.2115 6.04371 14.7194 6.67028 14.7194H25.5594C25.6646 14.7194 25.766 14.7039 25.8626 14.6772C26.9354 14.7999 27.7717 15.713 27.7717 16.8182V19.7678Z" fill="#00982F"/>
</svg>
