<svg width="31" height="29" viewBox="0 0 31 29" fill="none" xmlns="http://www.w3.org/2000/svg">
<path d="M28.8218 21.6444H23.8718V9.70686C23.8718 9.01686 23.3118 8.45686 22.6218 8.45686H9.81428L8.72428 1.82936C8.6249 1.22499 8.10303 0.78186 7.49053 0.78186H1.32178C0.631777 0.78186 0.0717773 1.34186 0.0717773 2.03186C0.0717773 2.72186 0.631777 3.28186 1.32178 3.28186H6.42928L7.51928 9.90936C7.51928 9.90999 7.51928 9.90999 7.51928 9.91061L8.84678 17.9406C6.89428 18.7631 5.57178 20.6831 5.57178 22.8944C5.57178 25.865 7.9774 28.2819 10.9343 28.2819C13.4624 28.2819 15.5818 26.5131 16.1449 24.1444H28.8218C29.5118 24.1444 30.0718 23.5844 30.0718 22.8944C30.0718 22.2044 29.5118 21.6444 28.8218 21.6444ZM10.9343 25.7819C9.35615 25.7819 8.07178 24.4862 8.07178 22.8944C8.07178 21.4787 9.07803 20.2837 10.4705 20.0512C10.618 20.0256 10.7743 20.0131 10.9343 20.0131C12.5124 20.0131 13.7968 21.3056 13.7968 22.8944C13.7968 24.4862 12.5124 25.7819 10.9343 25.7819ZM21.3718 21.6444H16.1505C16.1299 21.5587 16.1037 21.475 16.0793 21.3912C16.0674 21.3506 16.0574 21.3094 16.0449 21.2687C15.9955 21.1131 15.9405 20.9606 15.878 20.8119C15.8687 20.7894 15.8574 20.7681 15.8474 20.7456C15.793 20.6206 15.7343 20.4981 15.6705 20.3781C15.6468 20.3331 15.6205 20.2894 15.5955 20.2444C15.5412 20.1481 15.4843 20.0537 15.4237 19.9612C15.3937 19.9156 15.3637 19.87 15.3324 19.825C15.268 19.7325 15.2005 19.6425 15.1312 19.555C15.1018 19.5175 15.0737 19.4794 15.043 19.4431C14.8393 19.1994 14.6149 18.9744 14.3718 18.77C14.3362 18.74 14.2987 18.7119 14.2618 18.6831C14.1737 18.6125 14.0837 18.5444 13.9912 18.48C13.9462 18.4487 13.9012 18.4187 13.8555 18.3887C13.7637 18.3287 13.6699 18.2719 13.5743 18.2169C13.5293 18.1912 13.4855 18.165 13.4399 18.1412C13.3224 18.0787 13.203 18.0212 13.0805 17.9675C13.0555 17.9569 13.0318 17.9437 13.0068 17.9331C12.858 17.8706 12.7062 17.815 12.5512 17.7656C12.513 17.7531 12.473 17.7444 12.4349 17.7325C12.3174 17.6981 12.1993 17.6669 12.0787 17.6406C12.0249 17.6287 11.9699 17.6187 11.9155 17.6087C11.8049 17.5881 11.6937 17.5712 11.5812 17.5575C11.5249 17.5506 11.4693 17.5437 11.4124 17.5387C11.3787 17.5356 11.3455 17.53 11.3118 17.5275L10.2262 10.9569H14.6993V14.5056C14.6993 15.1956 15.2593 15.7556 15.9493 15.7556C16.6393 15.7556 17.1993 15.1956 17.1993 14.5056V10.9569H21.3718V21.6444Z" fill="#00982F"/>
<path d="M10.9337 21.4031C10.1112 21.4031 9.44115 22.0731 9.44115 22.8975C9.44115 23.7212 10.1105 24.3912 10.9337 24.3912C11.7568 24.3912 12.4268 23.7212 12.4268 22.8975C12.4268 22.0731 11.7568 21.4031 10.9337 21.4031Z" fill="#00982F"/>
</svg>
