<svg width="31" height="29" viewBox="0 0 31 29" fill="none" xmlns="http://www.w3.org/2000/svg">
<path d="M30.0557 14.4796C30.0557 13.7896 29.4957 13.2296 28.8057 13.2296H27.9825L28.8188 11.8102C29.1694 11.2152 28.9713 10.449 28.3763 10.099C27.7819 9.74837 27.015 9.94712 26.665 10.5415L25.0813 13.2296H23.795L25.5763 9.63462C25.7619 9.26024 25.7482 8.81774 25.5388 8.45524C25.33 8.09337 24.9538 7.85899 24.5369 7.83212L20.7313 7.58524L21.3263 6.61024L24.4594 6.65962C24.4663 6.65962 24.4725 6.65962 24.4794 6.65962C25.1607 6.65962 25.7182 6.11274 25.7288 5.42899C25.74 4.73899 25.1888 4.17024 24.4988 4.15962L22.8388 4.13337L23.26 3.44337C23.62 2.85462 23.4344 2.08524 22.845 1.72462C22.2557 1.36524 21.4863 1.55024 21.1263 2.13962L20.6938 2.84774L19.8975 1.38212C19.5682 0.775243 18.81 0.549618 18.2025 0.880243C17.5957 1.20962 17.3713 1.96837 17.7007 2.57524L19.1882 5.31337L18.4594 6.50712L16.0925 2.98774C15.86 2.64274 15.4713 2.43524 15.055 2.43524C14.6388 2.43524 14.25 2.64274 14.0175 2.98774L11.6507 6.50712L10.9219 5.31337L12.4088 2.57524C12.7382 1.96837 12.5138 1.20962 11.9069 0.880243C11.3 0.549618 10.5413 0.775243 10.2119 1.38212L9.41629 2.84774L8.98379 2.13962C8.62379 1.55024 7.85441 1.36587 7.26504 1.72462C6.67629 2.08462 6.49004 2.85399 6.85004 3.44337L7.27129 4.13337L5.61129 4.15962C4.92129 4.17024 4.37004 4.73837 4.38129 5.42899C4.39191 6.11274 4.94941 6.65962 5.63066 6.65962C5.63691 6.65962 5.64379 6.65962 5.65066 6.65962L8.78379 6.61024L9.37879 7.58524L5.57316 7.83212C5.15629 7.85899 4.78004 8.09274 4.57129 8.45524C4.36254 8.81774 4.34879 9.26024 4.53379 9.63462L6.31691 13.2296H5.03066L3.44691 10.5409C3.09629 9.94587 2.33066 9.74712 1.73566 10.0984C1.14066 10.449 0.942539 11.2152 1.29316 11.8096L2.12879 13.2296H1.30566C0.615664 13.2296 0.0556641 13.7896 0.0556641 14.4796C0.0556641 15.1696 0.615664 15.7296 1.30566 15.7296H2.12879L1.29254 17.149C0.941914 17.744 1.14004 18.5102 1.73504 18.8602C1.93441 18.9777 2.15254 19.0334 2.36816 19.0334C2.79629 19.0334 3.21379 18.8127 3.44629 18.4177L5.03004 15.7296H6.31629L4.53504 19.3246C4.34941 19.699 4.36316 20.1415 4.57254 20.504C4.78129 20.8659 5.15754 21.1002 5.57441 21.1271L9.38004 21.374L8.78504 22.349L5.65129 22.2996C5.64441 22.2996 5.63816 22.2996 5.63129 22.2996C4.95004 22.2996 4.39254 22.8465 4.38191 23.5302C4.37066 24.2202 4.92191 24.789 5.61191 24.7996L7.27254 24.8259L6.85129 25.5159C6.49129 26.1046 6.67691 26.874 7.26629 27.2346C7.47004 27.359 7.69504 27.4184 7.91691 27.4184C8.33816 27.4184 8.74941 27.2052 8.98441 26.8196L9.41691 26.1109L10.2125 27.5765C10.4394 27.9934 10.8688 28.2302 11.3125 28.2302C11.5138 28.2302 11.7182 28.1815 11.9075 28.0784C12.5144 27.749 12.7394 26.9902 12.41 26.3834L10.9232 23.644L11.6513 22.4509L14.0182 25.9702C14.2507 26.3152 14.6394 26.5227 15.0557 26.5227C15.4719 26.5227 15.8607 26.3152 16.0932 25.9702L18.46 22.4509L19.1882 23.644L17.7013 26.3834C17.3719 26.9902 17.5969 27.749 18.2038 28.0784C18.3925 28.1809 18.5969 28.2296 18.7982 28.2296C19.2419 28.2296 19.6713 27.9927 19.8982 27.5759L20.6938 26.1102L21.1263 26.819C21.3619 27.2046 21.7732 27.4177 22.1938 27.4177C22.4157 27.4177 22.6407 27.3584 22.8444 27.234C23.4332 26.874 23.6194 26.1046 23.2594 25.5152L22.8382 24.8252L24.4988 24.799C25.1888 24.7884 25.74 24.2202 25.7288 23.5296C25.7175 22.839 25.175 22.3009 24.4594 22.299L21.3257 22.3484L20.7307 21.3734L24.5363 21.1265C24.9532 21.0996 25.3294 20.8659 25.5382 20.5034C25.7469 20.1409 25.7607 19.6984 25.5757 19.324L23.7944 15.7296H25.0807L26.6644 18.4184C26.8975 18.814 27.3144 19.034 27.7425 19.034C27.9582 19.034 28.1763 18.9784 28.3757 18.8609C28.9707 18.5102 29.1688 17.744 28.8182 17.1496L27.9825 15.7296H28.8057C29.4957 15.7296 30.0557 15.1696 30.0557 14.4796ZM10.8513 18.9646L7.60816 18.754L9.10629 15.7296H12.8269L10.8513 18.9646ZM9.10691 13.2296L7.60879 10.2052L10.8513 9.99462L12.8275 13.2296H9.10691ZM15.0557 23.0334L13.0857 20.1034L15.0557 16.8777L17.0257 20.1034L15.0557 23.0334ZM15.0557 12.0815L13.0857 8.85587L15.0557 5.92587L17.0257 8.85587L15.0557 12.0815ZM19.26 18.9646L17.2838 15.7296H21.0044L22.5025 18.754L19.26 18.9646ZM21.005 13.2296H17.2844L19.26 9.99462L22.5032 10.2052L21.005 13.2296Z" fill="#00982F"/>
</svg>
