<svg width="27" height="26" viewBox="0 0 27 26" fill="none" xmlns="http://www.w3.org/2000/svg">
<path d="M24.4628 11.6501L21.5368 5.21379H18.4243L17.3373 0.865967H9.11826L8.0313 5.21379H4.91878L1.99333 11.6501L0.18457 13.4588V25.866H7.24979V21.5181H19.2063V25.866H26.2715V13.4588L24.4628 11.6501ZM10.8161 3.03988H15.6405L16.184 5.21379H10.2726L10.8161 3.03988ZM6.3194 7.38771H20.1362L21.8656 11.1921H4.58998L6.3194 7.38771ZM5.07587 23.6921H2.35848V21.5181H5.07587V23.6921ZM24.0976 23.6921H21.3802V21.5181H24.0976V23.6921ZM24.0976 14.649L19.5362 15.5616L19.9629 17.6931L24.0976 16.8654V19.3442H2.35848V16.8654L6.49269 17.692L6.9194 15.5606L2.35848 14.649V14.36L3.35203 13.366H23.1041L24.0976 14.36V14.649Z" fill="#00982F"/>
</svg>
