<svg width="30" height="24" viewBox="0 0 30 24" fill="none" xmlns="http://www.w3.org/2000/svg">
<path d="M25.5718 12.1914L24.9222 8.88647C24.7443 7.9588 24.4374 7.2506 23.9838 6.72125C23.3992 6.03886 22.579 5.67815 21.6119 5.67815H17.8114V1.13448C17.8114 0.507908 17.3035 0 16.6769 0H1.13448C0.507908 0 0 0.507908 0 1.13448V17.1931C0 19.6654 1.98767 21.6809 4.44871 21.7288C4.9164 23.0504 6.178 24 7.65776 24C9.13673 24 10.3977 23.0515 10.8661 21.731H17.8931C18.3614 23.0515 19.6224 24 21.1014 24C22.5804 24 23.8413 23.0515 24.3097 21.731H27.9083C28.5349 21.731 29.0428 21.2231 29.0428 20.5965V16.5124C29.0428 14.4001 27.5547 12.6287 25.5718 12.1914ZM17.8114 7.94706H21.6119C21.9582 7.94706 22.4323 7.94706 22.6943 9.31604C22.6946 9.31791 22.695 9.31978 22.6953 9.32171L23.2503 12.1446H17.8114V7.94706ZM7.65776 21.731C7.03221 21.731 6.52328 21.2221 6.52328 20.5965C6.52328 19.971 7.03221 19.4621 7.65776 19.4621C8.28332 19.4621 8.79225 19.971 8.79225 20.5965C8.79225 21.2221 8.28332 21.731 7.65776 21.731ZM21.1014 21.731C20.4758 21.731 19.9669 21.2221 19.9669 20.5965C19.9669 19.971 20.4758 19.4621 21.1014 19.4621C21.7269 19.4621 22.2359 19.971 22.2359 20.5965C22.2359 21.2221 21.7269 21.731 21.1014 21.731ZM26.7738 19.4621H24.3097C23.8414 18.1416 22.5804 17.1931 21.1014 17.1931C19.6224 17.1931 18.3614 18.1416 17.8931 19.4621H10.8661C10.3978 18.1416 9.13673 17.1931 7.65776 17.1931C6.17965 17.1931 4.91918 18.1406 4.45024 19.4599C3.23963 19.4136 2.26897 18.4148 2.26897 17.1931V2.26897H15.5424V12.1446H5.67242C5.04584 12.1446 4.53793 12.6526 4.53793 13.2791C4.53793 13.9057 5.04584 14.4136 5.67242 14.4136H24.5616C24.6667 14.4136 24.7681 14.3982 24.8648 14.3714C25.9376 14.4942 26.7738 15.4073 26.7738 16.5124V19.4621Z" fill="#00982F"/>
</svg>
