<svg width="39" height="39" viewBox="0 0 39 39" fill="none" xmlns="http://www.w3.org/2000/svg">
<rect width="39" height="39" fill="#F8F8F8"/>
<path d="M27.0479 20.1276L26.6148 17.9243C26.4962 17.3059 26.2916 16.8337 25.9892 16.4808C25.5995 16.0259 25.0527 15.7854 24.4079 15.7854H21.8743V12.7563C21.8743 12.3386 21.5357 12 21.1179 12H10.7563C10.3386 12 10 12.3386 10 12.7563V23.4621C10 25.1103 11.3251 26.4539 12.9658 26.4858C13.2776 27.3669 14.1187 28 15.1052 28C16.0912 28 16.9318 27.3676 17.2441 26.4874H21.9287C22.2409 27.3676 23.0816 28 24.0676 28C25.0536 28 25.8942 27.3676 26.2065 26.4874H28.6055C29.0232 26.4874 29.3619 26.1487 29.3619 25.731V23.0083C29.3619 21.6 28.3698 20.4191 27.0479 20.1276ZM21.8743 17.298H24.4079C24.6388 17.298 24.9549 17.298 25.1295 18.2107C25.1297 18.2119 25.13 18.2132 25.1302 18.2145L25.5002 20.0964H21.8743V17.298ZM15.1052 26.4874C14.6881 26.4874 14.3489 26.1481 14.3489 25.731C14.3489 25.314 14.6881 24.9747 15.1052 24.9747C15.5222 24.9747 15.8615 25.314 15.8615 25.731C15.8615 26.1481 15.5222 26.4874 15.1052 26.4874ZM24.0676 26.4874C23.6506 26.4874 23.3113 26.1481 23.3113 25.731C23.3113 25.314 23.6506 24.9747 24.0676 24.9747C24.4846 24.9747 24.8239 25.314 24.8239 25.731C24.8239 26.1481 24.4846 26.4874 24.0676 26.4874ZM27.8492 24.9747H26.2065C25.8943 24.0944 25.0536 23.4621 24.0676 23.4621C23.0816 23.4621 22.241 24.0944 21.9287 24.9747H17.2441C16.9318 24.0944 16.0912 23.4621 15.1052 23.4621C14.1198 23.4621 13.2795 24.0937 12.9668 24.9732C12.1598 24.9424 11.5126 24.2765 11.5126 23.4621V13.5126H20.3616V20.0964H13.7816C13.3639 20.0964 13.0253 20.435 13.0253 20.8528C13.0253 21.2705 13.3639 21.6091 13.7816 21.6091H26.3744C26.4445 21.6091 26.5121 21.5988 26.5765 21.5809C27.2917 21.6628 27.8492 22.2715 27.8492 23.0083V24.9747Z" fill="#A9A9A9"/>
</svg>
