<svg width="39" height="39" viewBox="0 0 39 39" fill="none" xmlns="http://www.w3.org/2000/svg">
<rect width="39" height="39" fill="#F8F8F8"/>
<path d="M27.9569 24.567C27.8822 24.2079 27.5306 23.9775 27.1714 24.0522C26.8124 24.127 26.5819 24.4786 26.6567 24.8377C26.6997 25.0445 26.6484 25.2565 26.516 25.4194C26.4393 25.5137 26.2683 25.6719 25.9848 25.6719H13.0152C12.7317 25.6719 12.5607 25.5136 12.484 25.4194C12.3515 25.2565 12.3003 25.0445 12.3433 24.8377C13.0325 21.5275 15.9522 19.1094 19.324 19.0279C19.3824 19.0301 19.441 19.0313 19.5 19.0313C19.5592 19.0313 19.6181 19.0301 19.6767 19.0278C22.0518 19.0848 24.2471 20.2878 25.5765 22.2705C25.7807 22.5751 26.1932 22.6565 26.4979 22.4522C26.8025 22.248 26.8839 21.8355 26.6796 21.5309C25.59 19.9058 24.0077 18.7241 22.2037 18.1303C23.303 17.3059 24.0156 15.9924 24.0156 14.5156C24.0156 12.0257 21.9899 10 19.5 10C17.0101 10 14.9844 12.0257 14.9844 14.5156C14.9844 15.9933 15.6978 17.3075 16.7984 18.1318C15.79 18.4638 14.8439 18.9803 14.0158 19.6615C12.4974 20.9105 11.4416 22.6526 11.0431 24.567C10.9182 25.1668 11.0678 25.783 11.4536 26.2573C11.8374 26.7293 12.4066 27 13.0152 27H25.9848C26.5934 27 27.1626 26.7293 27.5464 26.2573C27.9322 25.783 28.0818 25.1668 27.9569 24.567ZM16.3125 14.5156C16.3125 12.758 17.7424 11.3281 19.5 11.3281C21.2576 11.3281 22.6875 12.758 22.6875 14.5156C22.6875 16.2191 21.3443 17.6148 19.6613 17.6991C19.6076 17.6981 19.5539 17.6976 19.5 17.6976C19.4464 17.6976 19.3928 17.6981 19.3393 17.6991C17.6561 17.6151 16.3125 16.2194 16.3125 14.5156Z" fill="#A9A9A9"/>
</svg>
