<svg width="39" height="17" viewBox="0 0 39 17" fill="none" xmlns="http://www.w3.org/2000/svg">
<path d="M1.39533 0.98877H9.90831C10.4999 0.98877 10.9794 1.46836 10.9794 2.05985V9.52608H13.221V2.05985C13.221 1.46836 13.7005 0.98877 14.292 0.98877H36.0993C36.5695 0.98877 36.9846 1.29536 37.123 1.7447L38.7082 6.89361C38.7396 6.99567 38.7556 7.10192 38.7556 7.20877V12.3594C38.7556 12.951 38.276 13.4305 37.6845 13.4305H36.4697C36.274 15.1829 34.784 16.55 32.9802 16.55C31.1764 16.55 29.6864 15.1827 29.4907 13.4301H25.5906C25.3949 15.1827 23.905 16.55 22.1011 16.55C21.1533 16.55 20.2926 16.1719 19.6602 15.5595C19.0278 16.1719 18.1671 16.55 17.2194 16.55C15.6005 16.55 14.2346 15.4487 13.8299 13.9561C13.4701 13.7834 13.221 13.4168 13.221 12.9909V11.6683H10.9794V12.3594C10.9794 12.951 10.4999 13.4305 9.90831 13.4305H9.14107C8.94528 15.1829 7.45536 16.55 5.65165 16.55C3.84795 16.55 2.35802 15.1829 2.16223 13.4305H1.39542C0.803925 13.4305 0.324337 12.951 0.324337 12.3594V2.05985C0.324249 1.46836 0.803837 0.98877 1.39533 0.98877ZM15.3631 10.0586C15.9021 9.72162 16.5382 9.526 17.2194 9.526C18.1671 9.526 19.0278 9.90405 19.6602 10.5164C20.2927 9.90405 21.1533 9.526 22.1011 9.526C23.4006 9.526 24.5367 10.236 25.144 11.288H28.5906V3.13094H15.3631V10.0586ZM35.3084 3.13094H34.1491V6.13786H36.2341L35.3084 3.13094ZM36.6134 8.28003H33.078C32.4865 8.28003 32.0069 7.80052 32.0069 7.20894V3.13094H30.7328V10.3419C31.3423 9.83301 32.1259 9.52608 32.9802 9.52608C34.2799 9.52608 35.4161 10.2363 36.0233 11.2883H36.6134V8.28003ZM32.9802 14.4078C33.7356 14.4078 34.35 13.7934 34.35 13.038C34.35 12.2828 33.7356 11.6683 32.9802 11.6683C32.225 11.6683 31.6105 12.2827 31.6105 13.038C31.6105 13.7933 32.225 14.4078 32.9802 14.4078ZM22.1011 14.4078C22.8564 14.4078 23.4709 13.7934 23.4709 13.038C23.4709 12.2828 22.8564 11.6683 22.1011 11.6683C21.3458 11.6683 20.7313 12.2827 20.7313 13.038C20.7313 13.7933 21.3458 14.4078 22.1011 14.4078ZM17.2194 14.4078C17.9746 14.4078 18.5892 13.7934 18.5892 13.038C18.5892 12.2828 17.9747 11.6683 17.2194 11.6683C16.464 11.6683 15.8496 12.2827 15.8496 13.038C15.8496 13.7933 16.464 14.4078 17.2194 14.4078ZM8.83723 3.13094H2.46642V11.2883H2.60857C3.21592 10.2363 4.35204 9.52608 5.65165 9.52608C6.95126 9.52608 8.08739 10.2363 8.69473 11.2883H8.83723V3.13094ZM5.65165 14.4078C6.40689 14.4078 7.02144 13.7934 7.02144 13.038C7.02144 12.2828 6.40698 11.6683 5.65165 11.6683C4.89632 11.6683 4.28186 12.2827 4.28186 13.038C4.28186 13.7933 4.89641 14.4078 5.65165 14.4078Z" fill="#00982F"/>
</svg>
