<svg width="41" height="24" viewBox="0 0 41 24" fill="none" xmlns="http://www.w3.org/2000/svg">
<path d="M5.78259 15.2575C7.00226 15.2575 8.10051 15.7867 8.86029 16.6273C9.62007 15.7867 10.7183 15.2575 11.938 15.2575C13.5303 15.2575 14.9151 16.1596 15.6103 17.4791H25.8223V2.98095C25.8223 2.38937 26.3018 1.90987 26.8934 1.90987H36.6248C37.0949 1.90987 37.5102 2.21654 37.6485 2.66588L40.0439 10.45C40.0753 10.5521 40.0913 10.6582 40.0913 10.7651V18.5502C40.0913 19.1418 39.6118 19.6213 39.0202 19.6213H35.2206C35.1084 21.8094 33.2929 23.555 31.0774 23.555C28.8618 23.555 27.0464 21.8094 26.9341 19.6213H26.8934C26.8932 19.6213 26.8929 19.6213 26.8926 19.6213H16.0812C15.9689 21.8094 14.1535 23.5551 11.9379 23.5551C10.7182 23.5551 9.61999 23.0259 8.8602 22.1852C8.10042 23.0259 7.00217 23.5551 5.78251 23.5551C3.49484 23.5551 1.63373 21.694 1.63373 19.4063C1.63381 17.1186 3.49493 15.2575 5.78259 15.2575ZM35.8337 4.05204H32.5726V9.69383H37.5699L35.8337 4.05204ZM31.0774 21.4129C32.1839 21.4129 33.084 20.5127 33.084 19.4062C33.084 18.2998 32.1839 17.3996 31.0774 17.3996C29.9709 17.3996 29.0708 18.2998 29.0708 19.4062C29.0708 20.5127 29.9709 21.4129 31.0774 21.4129ZM31.0774 15.2575C32.6696 15.2575 34.0545 16.1596 34.7498 17.4792H37.9491V11.836H31.5016C30.91 11.836 30.4305 11.3565 30.4305 10.7649V4.05204H27.9645V16.668C28.7254 15.8041 29.8385 15.2575 31.0774 15.2575ZM11.9379 21.4129C13.0444 21.4129 13.9445 20.5127 13.9445 19.4062C13.9445 18.2998 13.0444 17.3996 11.9379 17.3996C10.8314 17.3996 9.93129 18.2998 9.93129 19.4062C9.93129 20.5127 10.8315 21.4129 11.9379 21.4129ZM5.78259 21.4129C6.88906 21.4129 7.7892 20.5127 7.7892 19.4062C7.7892 18.2998 6.88906 17.3996 5.78259 17.3996C4.67612 17.3996 3.77598 18.2998 3.77598 19.4062C3.77598 20.5127 4.67612 21.4129 5.78259 21.4129Z" fill="#00982F"/>
<path d="M2.05959 2.14979H9.27938C9.15274 1.97388 9.07725 1.75863 9.07725 1.52531C9.07725 0.933726 9.55675 0.454224 10.1483 0.454224H15.1182C15.7097 0.454224 16.1892 0.933726 16.1892 1.52531C16.1892 1.75863 16.1138 1.97388 15.9871 2.14979H23.2071C23.7986 2.14979 24.2782 2.6293 24.2782 3.22088V13.2078C24.2782 13.7994 23.7986 14.2789 23.2071 14.2789H2.05959C1.46801 14.2789 0.988506 13.7994 0.988506 13.2078V3.22088C0.988506 2.62938 1.46801 2.14979 2.05959 2.14979ZM3.13067 12.1368H22.136V4.29196H3.13067V12.1368Z" fill="#00982F"/>
</svg>
