<svg width="40" height="34" viewBox="0 0 40 34" fill="none" xmlns="http://www.w3.org/2000/svg">
<path d="M0.0479698 8.6755C0.118149 8.2038 0.491913 7.83535 0.964561 7.77177L29.3412 3.95502V1.91105C29.3412 1.31947 29.8208 0.839966 30.4123 0.839966H37.9725C38.564 0.839966 39.0436 1.31947 39.0436 1.91105V5.98922C39.0436 7.54401 37.7787 8.80883 36.224 8.80883H32.1608C30.6486 8.80883 29.4109 7.61213 29.3444 6.11604L4.92063 9.4011L16.6882 14.7885H20.2119C20.8034 14.7885 21.2829 15.268 21.2829 15.8596V18.4015H22.6205C23.212 18.4015 23.6916 18.881 23.6916 19.4725V23.1784H24.4281C25.0196 23.1784 25.4992 23.6579 25.4992 24.2495V28.2307H27.2838V16.954C27.2838 16.3625 27.7634 15.883 28.3549 15.883H36.0727C36.5429 15.883 36.9581 16.1896 37.0964 16.639L38.9962 22.8124C39.0276 22.9145 39.0436 23.0207 39.0436 23.1275V29.3018C39.0436 29.8933 38.564 30.3728 37.9725 30.3728H35.1627C34.9669 32.1254 33.4771 33.4926 31.6732 33.4926C29.8694 33.4926 28.3794 32.1253 28.1837 30.3728H19.9836C19.7879 32.1254 18.298 33.4926 16.4941 33.4926C15.5463 33.4926 14.6857 33.1146 14.0532 32.5022C13.4208 33.1146 12.5601 33.4926 11.6123 33.4926C9.80838 33.4926 8.31837 32.1252 8.12275 30.3727H7.6567C7.0652 30.3727 6.58561 29.8932 6.58561 29.3016V24.2495C6.58561 23.6579 7.0652 23.1784 7.6567 23.1784H12.3822V21.0037C12.3822 20.9129 12.3938 20.8225 12.4165 20.7346L13.7028 15.7777L0.661488 9.80717C0.227829 9.60855 -0.0222931 9.14721 0.0479698 8.6755ZM31.4834 5.98922C31.4834 6.36282 31.7873 6.66666 32.1608 6.66666H36.224C36.5975 6.66666 36.9014 6.36273 36.9014 5.98922V2.98213H31.4834V5.98922ZM35.2818 18.0251H33.7313V22.0563H36.5222L35.2818 18.0251ZM36.9014 24.1984H32.6602C32.0687 24.1984 31.5891 23.7189 31.5891 23.1273V18.0251H29.426V27.2843C30.0355 26.7755 30.8191 26.4687 31.6732 26.4687C32.9728 26.4687 34.1088 27.1787 34.7161 28.2307H36.9014V24.1984ZM31.6731 31.3504C32.4284 31.3504 33.0429 30.736 33.0429 29.9807C33.0429 29.2253 32.4284 28.6109 31.6731 28.6109C30.9179 28.6109 30.3034 29.2253 30.3034 29.9807C30.3034 30.736 30.9179 31.3504 31.6731 31.3504ZM16.494 31.3504C17.2492 31.3504 17.8638 30.736 17.8638 29.9807C17.8638 29.2253 17.2492 28.6109 16.494 28.6109C15.7388 28.6109 15.1242 29.2253 15.1242 29.9807C15.1242 30.736 15.7387 31.3504 16.494 31.3504ZM11.6123 31.3504C12.3675 31.3504 12.982 30.736 12.982 29.9807C12.982 29.2253 12.3675 28.6109 11.6123 28.6109C10.857 28.6109 10.2425 29.2253 10.2425 29.9807C10.2425 30.736 10.857 31.3504 11.6123 31.3504ZM8.72769 27.9807C9.36255 27.0678 10.4185 26.4686 11.6123 26.4686C12.56 26.4686 13.4207 26.8467 14.0531 27.4591C14.6856 26.8467 15.5462 26.4686 16.494 26.4686C17.7934 26.4686 18.9295 27.1785 19.5368 28.2304H23.357V25.3205H8.72778V27.9807H8.72769ZM21.5493 23.1783V20.5435H20.2118C19.6203 20.5435 19.1407 20.064 19.1407 19.4725V16.9306H15.6167L14.5243 21.1403V23.1783H21.5493Z" fill="#00982F"/>
</svg>
