<svg width="40" height="23" viewBox="0 0 40 23" fill="none" xmlns="http://www.w3.org/2000/svg">
<path d="M1.12504 4.61568H23.8755C24.467 4.61568 24.9466 5.09526 24.9466 5.68676V17.0028H25.7446V2.98763H25.5123C24.9208 2.98763 24.4413 2.50812 24.4413 1.91654C24.4413 1.32496 24.9208 0.845459 25.5123 0.845459H26.8156C27.4071 0.845459 27.8867 1.32496 27.8867 1.91654V5.95839L33.1376 6.71389C33.6396 6.78612 34.0222 7.20059 34.054 7.70674L34.2276 10.4667L38.1817 11.3235C38.6744 11.4303 39.026 11.8662 39.026 12.3703V18.0736C39.026 18.6652 38.5464 19.1447 37.9549 19.1447H33.6235C33.4278 20.8974 31.9379 22.2647 30.1339 22.2647C28.3301 22.2647 26.8401 20.8974 26.6444 19.1449L14.6898 19.1447C14.4941 20.8974 13.0041 22.2647 11.2002 22.2647C10.2524 22.2647 9.39175 21.8867 8.7593 21.2743C8.12684 21.8867 7.26621 22.2647 6.31842 22.2647C4.51446 22.2647 3.02446 20.8974 2.82883 19.1447H1.12487C0.533371 19.1447 0.0537834 18.6652 0.0537834 18.0736V5.68676C0.0539551 5.09526 0.533455 4.61568 1.12504 4.61568ZM31.236 8.60448V10.271H32.069L31.9708 8.71022L31.236 8.60448ZM36.8838 13.2342L33.0949 12.4132H30.1649C29.5734 12.4132 29.0938 11.9336 29.0938 11.3421V8.29627L27.8867 8.12258V16.0565C28.4962 15.5477 29.2798 15.2408 30.134 15.2408C31.4335 15.2408 32.5694 15.9507 33.1768 17.0026H36.8838V13.2342ZM30.134 20.1226C30.8893 20.1226 31.5037 19.5081 31.5037 18.7528C31.5037 17.9975 30.8893 17.383 30.134 17.383C29.3788 17.383 28.7642 17.9975 28.7642 18.7528C28.7642 19.5081 29.3787 20.1226 30.134 20.1226ZM11.2003 20.1226C11.9555 20.1226 12.57 19.5081 12.57 18.7528C12.57 17.9975 11.9555 17.383 11.2003 17.383C10.445 17.383 9.83055 17.9975 9.83055 18.7528C9.83047 19.5081 10.4449 20.1226 11.2003 20.1226ZM6.31851 20.1226C7.07376 20.1226 7.6883 19.5081 7.6883 18.7528C7.6883 17.9975 7.07376 17.383 6.31851 17.383C5.56327 17.383 4.94872 17.9975 4.94872 18.7528C4.94872 19.5081 5.56327 20.1226 6.31851 20.1226ZM2.19612 17.0026H3.27569C3.88312 15.9507 5.01907 15.2408 6.31851 15.2408C7.26629 15.2408 8.12693 15.6189 8.75938 16.2313C9.39184 15.6189 10.2525 15.2408 11.2003 15.2408C12.4997 15.2408 13.6356 15.9507 14.2431 17.0026H22.8044V6.75784H2.19612V17.0026Z" fill="#00982F"/>
</svg>
