<svg width="29" height="18" viewBox="0 0 29 18" fill="none" xmlns="http://www.w3.org/2000/svg">
<path d="M28.722 9.83084C28.4281 7.57421 26.5117 5.68734 23.9142 5.68734C23.9084 5.67754 21.9745 2.42594 21.9686 2.41625C21.0784 0.966988 19.4653 0.0667114 17.7587 0.0667114C17.1004 0.0667114 6.10173 0.0667114 5.62093 0.0667114C4.1395 0.0667114 2.76158 0.927758 2.11045 2.26031C0.936482 4.66273 0.315918 7.34652 0.315918 10.0215V13.7741C0.315918 14.2809 0.726798 14.6918 1.23357 14.6918H3.87309C4.29779 16.4023 5.84582 17.6741 7.68583 17.6741C9.54632 17.6741 11.1078 16.3737 11.5119 14.6344H16.3055C16.7096 16.3737 18.271 17.6741 20.1316 17.6741C21.9921 17.6741 23.5535 16.3737 23.9576 14.6344H27.8455C28.2904 14.6344 28.7632 14.3001 28.7632 13.6805C28.7632 9.71051 28.7729 9.99459 28.722 9.83084ZM20.4015 3.37153L21.7788 5.68729H17.3499V1.90196H17.7587C18.83 1.90196 19.8421 2.46494 20.4015 3.37153ZM7.68583 15.8388C6.53153 15.8388 5.59243 14.8997 5.59243 13.7454C5.59243 12.5911 6.53153 11.652 7.68583 11.652C8.84012 11.652 9.77923 12.5911 9.77923 13.7454C9.77923 14.8997 8.84012 15.8388 7.68583 15.8388ZM20.1315 15.8388C18.9772 15.8388 18.0381 14.8997 18.0381 13.7454C18.0381 12.5911 18.9772 11.652 20.1315 11.652C21.2858 11.652 22.2249 12.5911 22.2249 13.7454C22.2249 14.8997 21.2858 15.8388 20.1315 15.8388ZM23.9443 12.7991C23.5196 11.0885 21.9715 9.81673 20.1315 9.81673C18.2915 9.81673 16.7435 11.0885 16.3188 12.7991H11.4986C11.0739 11.0885 9.5259 9.81673 7.68589 9.81673C5.8254 9.81673 4.26395 11.1172 3.85984 12.8565H2.15123C2.15123 9.85304 1.9069 6.85712 3.75942 3.06601C4.10491 2.35884 4.8356 1.90196 5.62093 1.90196H15.6512C15.6512 4.11983 15.0956 7.52259 17.7587 7.52259C20.6879 7.52259 23.9825 7.52259 23.9825 7.52259C25.1523 7.52259 26.1649 8.20292 26.6399 9.18584H26.1292C25.6224 9.18584 25.2115 9.59672 25.2115 10.1035C25.2115 10.6103 25.6224 11.0212 26.1292 11.0212H26.9279V12.7991H23.9443ZM15.4572 9.87409C15.4572 10.3809 15.0463 10.7917 14.5396 10.7917H13.6793C13.1725 10.7917 12.7616 10.3809 12.7616 9.87409C12.7616 9.36731 13.1725 8.95643 13.6793 8.95643H14.5396C15.0463 8.95643 15.4572 9.36731 15.4572 9.87409Z" fill="#00982F"/>
</svg>
