<svg width="39" height="23" viewBox="0 0 39 23" fill="none" xmlns="http://www.w3.org/2000/svg">
<path d="M0.212914 17.1848L1.85467 9.62461C1.96161 9.13217 2.39741 8.78085 2.90133 8.78085H4.8621V5.2192C4.8621 4.6277 5.34161 4.14811 5.93319 4.14811C6.52477 4.14811 7.00427 4.6277 7.00427 5.2192V8.78085H10.4712V1.79173C10.4712 1.20015 10.9507 0.720642 11.5422 0.720642H17.6137C18.0823 0.720642 18.4964 1.02517 18.6362 1.47237L20.9189 8.78085H24.0522C24.5532 8.78085 24.9872 9.12797 25.0972 9.61664L26.3158 15.0291H26.8703C26.9351 13.5099 27.5511 12.0901 28.6274 10.9997C29.786 9.82606 31.3321 9.17964 32.9812 9.17964C33.5727 9.17964 34.0522 9.65923 34.0522 10.2507C34.0522 13.415 34.8707 16.522 36.4232 19.2723H37.8204C38.4119 19.2723 38.8915 19.7518 38.8915 20.3434C38.8915 20.935 38.4119 21.4145 37.8204 21.4145H33.0565C30.3175 21.4145 27.9702 19.6269 27.163 17.1713H26.8188C26.8226 17.2512 26.8249 17.3316 26.8249 17.4125C26.8249 20.2301 24.5327 22.5223 21.7151 22.5223C19.2648 22.5223 17.2127 20.7883 16.7192 18.4832H13.8705C13.377 20.7883 11.3248 22.5223 8.87456 22.5223C6.42426 22.5223 4.37206 20.7883 3.87851 18.4832H1.25975C0.935764 18.4832 0.629177 18.3366 0.42593 18.0843C0.222424 17.832 0.144192 17.5014 0.212914 17.1848ZM33.0565 19.2723H34.0025C32.8059 16.8315 32.1059 14.1747 31.9456 11.4571C31.272 11.6375 30.6556 11.9944 30.1519 12.5045C29.3993 13.2671 28.9923 14.2777 29.0063 15.3501C29.0344 17.5128 30.8512 19.2723 33.0565 19.2723ZM16.8263 2.86281H12.6134V8.78085H18.6747L16.8263 2.86281ZM21.7151 20.3801C23.3515 20.3801 24.6827 19.0488 24.6827 17.4125C24.6827 15.7762 23.3514 14.4449 21.7151 14.4449C20.0789 14.4449 18.7476 15.7762 18.7476 17.4125C18.7476 19.0488 20.0788 20.3801 21.7151 20.3801ZM8.87447 20.3801C10.5108 20.3801 11.8421 19.0488 11.8421 17.4125C11.8421 15.7762 10.5107 14.4449 8.87447 14.4449C7.2382 14.4449 5.90688 15.7762 5.90688 17.4125C5.90688 19.0488 7.23811 20.3801 8.87447 20.3801ZM3.87859 16.341C4.37241 14.0363 6.42443 12.3027 8.87447 12.3027C11.3245 12.3027 13.3765 14.0364 13.8704 16.3412H16.7193C17.2131 14.0364 19.2651 12.3027 21.7151 12.3027C22.3756 12.3027 23.0065 12.4301 23.5865 12.6592L23.1956 10.923H3.7648L2.58823 16.341H3.87859Z" fill="#00982F"/>
</svg>
