<svg width="29" height="18" viewBox="0 0 29 18" fill="none" xmlns="http://www.w3.org/2000/svg">
<path d="M15.4622 9.90405C15.4622 10.4107 15.0515 10.8214 14.5448 10.8214H13.6848C13.1781 10.8214 12.7674 10.4107 12.7674 9.90405C12.7674 9.39744 13.1781 8.98668 13.6848 8.98668H14.5448C15.0515 8.98668 15.4622 9.39744 15.4622 9.90405ZM28.764 11.1987V13.3442C28.764 13.8509 28.3533 14.2615 27.8466 14.2615H23.9599C23.5559 16.0003 21.995 17.3003 20.135 17.3003C18.2751 17.3003 16.7142 16.0003 16.3102 14.2615H11.518C11.1141 16.0003 9.55313 17.3003 7.69317 17.3003C5.82225 17.3003 4.25378 15.985 3.86121 14.2308C3.85341 14.2309 1.25067 14.2615 1.24293 14.2615C0.798405 14.2615 0.325846 13.9285 0.325502 13.3112C0.325559 10.1936 0.156018 8.1614 1.24075 5.25592C2.37748 2.21095 5.27894 0.214757 8.50326 0.214355H15.8162C17.9922 0.214355 20.012 1.34501 21.1506 3.19391L22.7408 5.7759H23.3411C26.3313 5.7759 28.764 8.20858 28.764 11.1987ZM16.7236 2.14524V5.7759H20.5861L19.5885 4.15611C18.9492 3.11811 17.8984 2.39465 16.7236 2.14524ZM14.8888 5.7759V2.04909H11.162V5.7759H14.8888ZM7.12004 2.21571L6.57214 4.65774C6.44337 5.23178 6.88015 5.7759 7.46727 5.7759H9.32729V2.04909C8.47901 2.04909 7.9396 2.01641 7.12004 2.21571ZM9.78597 13.3728C9.78597 12.2189 8.84716 11.2801 7.69322 11.2801C6.53929 11.2801 5.60048 12.2189 5.60048 13.3728C5.60048 14.5268 6.53929 15.4656 7.69322 15.4656C8.84716 15.4656 9.78597 14.5268 9.78597 13.3728ZM22.2278 13.3728C22.2278 12.2189 21.289 11.2801 20.135 11.2801C18.9811 11.2801 18.0423 12.2189 18.0423 13.3728C18.0423 14.5268 18.9811 15.4656 20.135 15.4656C21.289 15.4656 22.2278 14.5268 22.2278 13.3728ZM26.8564 10.4774H26.1276C25.6209 10.4774 25.2102 10.0667 25.2102 9.56004C25.2102 9.13604 25.4982 8.78028 25.889 8.67512C24.5824 7.35612 23.1253 7.64549 22.1931 7.60949C22.1204 7.61126 7.76105 7.61063 7.46727 7.61063C5.70242 7.61063 4.39632 5.97462 4.78184 4.25605L5.02076 3.19098C4.10213 3.86049 3.37254 4.79145 2.95961 5.89756C2.05061 8.33266 2.16024 10.0116 2.16024 12.4159L3.88884 12.3956C4.32431 10.7012 5.8648 9.44531 7.69322 9.44531C9.53272 9.44531 11.0802 10.7167 11.5048 12.4268H16.3234C16.748 10.7167 18.2955 9.44531 20.135 9.44531C21.9745 9.44531 23.5219 10.7167 23.9465 12.4268H26.9292C26.9293 11.1045 26.9481 10.9251 26.8564 10.4774Z" fill="#00982F"/>
</svg>
