<svg width="41" height="27" viewBox="0 0 41 27" fill="none" xmlns="http://www.w3.org/2000/svg">
<path d="M5.7998 17.9014C7.01947 17.9014 8.11772 18.4306 8.8775 19.2713C9.63729 18.4306 10.7355 17.9014 11.9552 17.9014C13.5474 17.9014 14.9322 18.8036 15.6275 20.123H25.8395V5.62493C25.8395 5.03335 26.319 4.55385 26.9106 4.55385H36.642C37.1121 4.55385 37.5274 4.86052 37.6657 5.30986L40.0611 13.094C40.0925 13.1961 40.1085 13.3023 40.1085 13.4091V21.1941C40.1085 21.7857 39.629 22.2652 39.0374 22.2652H35.2378C35.1256 24.4533 33.3101 26.1989 31.0946 26.1989C28.8791 26.1989 27.0637 24.4533 26.9514 22.2652H26.9106C26.9104 22.2652 26.9104 22.2652 26.9102 22.2652H16.0984C15.9862 24.4533 14.1707 26.199 11.9552 26.199C10.7355 26.199 9.63729 25.6698 8.8775 24.8291C8.11772 25.6698 7.01947 26.199 5.7998 26.199C3.51214 26.199 1.65102 24.3379 1.65102 22.0502C1.65102 19.7626 3.51214 17.9014 5.7998 17.9014ZM35.8509 6.69602H32.5903V12.3378H37.5871L35.8509 6.69602ZM31.0946 24.0568C32.2011 24.0568 33.1012 23.1567 33.1012 22.0502C33.1012 20.9438 32.2011 20.0436 31.0946 20.0436C29.9881 20.0436 29.088 20.9438 29.088 22.0502C29.088 23.1567 29.9882 24.0568 31.0946 24.0568ZM31.0946 17.9014C32.6868 17.9014 34.0716 18.8036 34.767 20.123H37.9664V14.48H31.5192C30.9276 14.48 30.4481 14.0005 30.4481 13.4089V6.69602H27.9817V19.3119C28.7426 18.448 29.8557 17.9014 31.0946 17.9014ZM11.9552 24.0568C13.0617 24.0568 13.9618 23.1567 13.9618 22.0502C13.9618 20.9438 13.0617 20.0436 11.9552 20.0436C10.8487 20.0436 9.94859 20.9438 9.94859 22.0502C9.94859 23.1567 10.8487 24.0568 11.9552 24.0568ZM5.7998 24.0568C6.90628 24.0568 7.80642 23.1567 7.80642 22.0502C7.80642 20.9438 6.90628 20.0436 5.7998 20.0436C4.69333 20.0436 3.79319 20.9438 3.79319 22.0502C3.79319 23.1567 4.69333 24.0568 5.7998 24.0568Z" fill="#00982F"/>
<path d="M1.85213 8.62534L22.0295 4.9798C22.4596 2.60662 24.5412 0.801025 27.0365 0.801025H30.0547C30.6462 0.801025 31.1258 1.28053 31.1258 1.87211C31.1258 2.46369 30.6462 2.94319 30.0547 2.94319H27.0365C25.412 2.94319 24.0902 4.26491 24.0902 5.88945C24.0902 5.9466 24.0898 15.6119 24.0898 15.6119C24.0898 16.2035 23.6102 16.683 23.0187 16.683H2.90762C2.37576 16.683 1.92445 16.2928 1.84776 15.7664L0.982754 9.83387C0.89938 9.26251 1.28394 8.72799 1.85213 8.62534ZM3.83381 14.5408H21.9476V7.17149L3.25182 10.5493L3.83381 14.5408Z" fill="#00982F"/>
</svg>
