<svg width="107" height="47" viewBox="0 0 107 47" fill="none" xmlns="http://www.w3.org/2000/svg">
<path d="M12.8433 11.3361H5.39295V28.29H0.429199V6.55127H12.8433V11.3361Z" fill="white"/>
<path d="M30.8614 14.011C30.8614 18.1365 27.5366 21.4613 23.251 21.4613H19.9921V28.29H15.0283V6.55127H23.251C27.5366 6.55127 30.8614 9.87613 30.8614 14.011ZM25.8883 14.011C25.8883 12.4286 24.7674 11.2136 23.251 11.2136H19.9921V16.799H23.251C24.7769 16.799 25.8883 15.5934 25.8883 14.011Z" fill="white"/>
<path d="M49.1909 6.55127L42.9179 21.8852C40.9964 26.5758 37.86 28.4972 33.791 28.2806V23.6277C36.061 23.8443 37.3043 23.006 38.1425 21.4802L31.1914 6.55127H36.1552L40.4031 16.0549L44.2271 6.55127H49.1909Z" fill="white"/>
<path d="M65.0331 22.1395C65.0331 26.2085 61.5575 28.7233 56.9893 28.7233C52.5154 28.7233 50.0006 26.6417 48.729 23.5712L53.0146 21.1223C53.5703 22.7988 54.6629 24.0704 56.9893 24.0704C59.0709 24.0704 60.0599 23.2039 60.0599 21.7722C60.0599 20.3405 59.0332 19.474 56.9517 19.474H54.1919V15.066H56.33C58.2891 15.066 59.2781 14.2559 59.2781 12.9279C59.2781 11.5998 58.534 10.7804 56.7633 10.7804C54.8418 10.7804 53.8811 11.9295 53.316 13.2669L49.0587 10.818C50.3961 8.14308 52.7226 6.12744 56.7539 6.12744C61.0677 6.12744 64.2325 8.57635 64.2325 12.5511C64.2325 14.5102 63.4224 15.9984 62.0567 17.0533C63.9122 18.0706 65.0331 19.8131 65.0331 22.1395Z" fill="white"/>
<path d="M72.1163 35.9759C72.2105 35.844 72.1634 35.7027 72.1634 35.5614C72.1634 23.9951 72.1634 12.4287 72.1634 0.862296C72.1634 0.768108 72.154 0.673919 72.1446 0.57973C72.2576 0.447866 72.4083 0.513797 72.5402 0.513797C79.237 0.513797 85.9338 0.513797 92.6212 0.513797C92.7343 0.513797 92.8379 0.494961 92.9509 0.542055C95.4846 0.711595 97.9052 1.28614 100.072 2.67072C103.057 4.56391 104.856 7.34248 105.94 10.6391C106.495 12.3345 106.787 14.0581 106.778 15.8571C106.75 22.375 106.768 28.8834 106.768 35.4013C106.768 36.9083 106.759 38.4153 106.778 39.9224C106.778 40.252 106.693 40.3462 106.363 40.3462C103.33 40.3368 100.307 40.3368 97.2742 40.3462C97.0481 40.3462 96.9162 40.3085 96.8221 40.0636C95.607 36.9743 92.9415 35.1093 89.8333 35.1564C86.6591 35.2035 84.0595 37.125 82.901 40.2897C82.8915 40.3085 82.8915 40.318 82.8821 40.3368C82.7126 40.4027 82.543 40.3651 82.3735 40.3651C64.3269 40.3651 46.271 40.3651 28.2244 40.3651C28.0549 40.3651 27.8571 40.4498 27.7064 40.2803C27.1224 38.4813 25.9827 37.1344 24.3721 36.1737C24.3909 36.0889 24.4474 36.0418 24.5322 36.0418C24.6923 36.0324 24.843 36.0418 25.0031 36.0418C40.5066 36.0418 56.0101 36.0418 71.523 36.0418C71.7113 36.0135 71.9185 36.07 72.1163 35.9759Z" fill="white"/>
<path d="M15.9141 42.5127V42.5315C15.9988 42.3337 15.9141 42.1171 15.9894 41.9099C16.272 39.6494 17.9862 37.954 20.3409 37.7467C20.5952 37.6997 20.8401 37.6997 21.0944 37.7467C23.176 37.9822 24.8903 39.4139 25.3706 41.5143C25.9358 44.0009 24.1933 46.7135 21.669 47.175C19.9453 47.4858 18.4477 47.0055 17.2327 45.781C16.5169 45.0652 16.1024 44.161 15.9988 43.1249C15.9141 42.9271 16.0083 42.7105 15.9141 42.5127Z" fill="white"/>
<path d="M94.6556 42.5125C94.6556 45.1404 92.5176 47.2785 89.8991 47.2785C87.2901 47.2785 85.1426 45.131 85.1426 42.5125C85.1426 39.8847 87.2712 37.756 89.8991 37.7654C92.5364 37.756 94.6556 39.8752 94.6556 42.5125Z" fill="white"/>
<path d="M0.373047 40.2897C0.373047 38.8863 0.373047 37.4923 0.373047 36.0888C0.504911 35.9664 0.67445 36.0229 0.825151 36.0229C6.07146 36.0229 11.3272 36.0229 16.5735 36.0323C16.7242 36.0323 16.9597 35.8816 17.0444 36.1642C15.3961 37.0967 14.2753 38.4624 13.7384 40.2897C13.6254 40.4121 13.4747 40.3556 13.3334 40.3556C9.15143 40.3556 4.96003 40.3556 0.778057 40.3556C0.646193 40.3462 0.495492 40.4027 0.373047 40.2897Z" fill="white"/>
<path d="M75.8555 22.13C75.8555 18.4378 78.7753 15.5933 82.4204 15.5933C86.0561 15.5933 88.9854 18.4378 88.9854 22.13C88.9854 25.8221 86.0655 28.6666 82.4204 28.6666C78.7753 28.6666 75.8555 25.8127 75.8555 22.13ZM85.2649 22.13C85.2649 20.3686 84.031 19.2101 82.4204 19.2101C80.8098 19.2101 79.5759 20.378 79.5759 22.13C79.5759 23.8819 80.8098 25.0498 82.4204 25.0498C84.031 25.0498 85.2649 23.8819 85.2649 22.13Z" fill="#00982F"/>
<path d="M98.7525 28.3182L94.7872 22.8459V28.3182H91.0762V10.9875H94.7872V21.3577L98.4982 15.9325H102.831L98.3287 22.1206L102.963 28.3088H98.7525V28.3182Z" fill="#00982F"/>
</svg>
