<svg width="107" height="46" viewBox="0 0 107 46" fill="none" xmlns="http://www.w3.org/2000/svg">
<path d="M12.8433 10.341H5.39295V27.295H0.429199V5.55621H12.8433V10.341Z" fill="#00982F"/>
<path d="M30.8614 13.016C30.8614 17.1414 27.5366 20.4663 23.251 20.4663H19.9921V27.295H15.0283V5.55621H23.251C27.5366 5.55621 30.8614 8.88107 30.8614 13.016ZM25.8883 13.016C25.8883 11.4336 24.7674 10.2186 23.251 10.2186H19.9921V15.8039H23.251C24.7769 15.8039 25.8883 14.5983 25.8883 13.016Z" fill="#00982F"/>
<path d="M49.1909 5.55621L42.9179 20.8901C40.9964 25.5807 37.86 27.5022 33.791 27.2855V22.6326C36.061 22.8493 37.3043 22.011 38.1425 20.4851L31.1914 5.55621H36.1552L40.4031 15.0598L44.2271 5.55621H49.1909Z" fill="#00982F"/>
<path d="M65.0331 21.1445C65.0331 25.2134 61.5575 27.7283 56.9893 27.7283C52.5154 27.7283 50.0006 25.6467 48.729 22.5761L53.0146 20.1272C53.5703 21.8038 54.6629 23.0753 56.9893 23.0753C59.0709 23.0753 60.0599 22.2088 60.0599 20.7771C60.0599 19.3455 59.0332 18.4789 56.9517 18.4789H54.1919V14.0709H56.33C58.2891 14.0709 59.2781 13.2609 59.2781 11.9328C59.2781 10.6048 58.534 9.78531 56.7633 9.78531C54.8418 9.78531 53.8811 10.9344 53.316 12.2719L49.0587 9.82298C50.3961 7.14802 52.7226 5.13239 56.7539 5.13239C61.0677 5.13239 64.2325 7.58129 64.2325 11.5561C64.2325 13.5152 63.4224 15.0034 62.0567 16.0583C63.9122 17.0755 65.0331 18.818 65.0331 21.1445Z" fill="#00982F"/>
<path d="M72.1163 34.9808C72.2105 34.8489 72.1634 34.7077 72.1634 34.5664C72.1634 23 72.1634 11.4336 72.1634 -0.13276C72.1634 -0.226948 72.154 -0.321137 72.1446 -0.415326C72.2576 -0.54719 72.4083 -0.481259 72.5402 -0.481259C79.237 -0.481259 85.9338 -0.481259 92.6212 -0.481259C92.7343 -0.481259 92.8379 -0.500095 92.9509 -0.453001C95.4846 -0.283461 97.9052 0.291088 100.072 1.67566C103.057 3.56886 104.856 6.34742 105.94 9.64403C106.495 11.3394 106.787 13.0631 106.778 14.8621C106.75 21.3799 106.768 27.8884 106.768 34.4062C106.768 35.9133 106.759 37.4203 106.778 38.9273C106.778 39.257 106.693 39.3512 106.363 39.3512C103.33 39.3417 100.307 39.3417 97.2742 39.3512C97.0481 39.3512 96.9162 39.3135 96.8221 39.0686C95.607 35.9792 92.9415 34.1143 89.8333 34.1614C86.6591 34.2085 84.0595 36.1299 82.901 39.2946C82.8915 39.3135 82.8915 39.3229 82.8821 39.3417C82.7126 39.4077 82.543 39.37 82.3735 39.37C64.3269 39.37 46.271 39.37 28.2244 39.37C28.0549 39.37 27.8571 39.4548 27.7064 39.2852C27.1224 37.4862 25.9827 36.1393 24.3721 35.1786C24.3909 35.0938 24.4474 35.0467 24.5322 35.0467C24.6923 35.0373 24.843 35.0467 25.0031 35.0467C40.5066 35.0467 56.0101 35.0467 71.523 35.0467C71.7113 35.0185 71.9185 35.075 72.1163 34.9808Z" fill="#00982F"/>
<path d="M15.9141 41.5175V41.5363C15.9988 41.3385 15.9141 41.1219 15.9894 40.9147C16.272 38.6542 17.9862 36.9588 20.3409 36.7516C20.5952 36.7045 20.8401 36.7045 21.0944 36.7516C23.176 36.987 24.8903 38.4187 25.3706 40.5191C25.9358 43.0057 24.1933 45.7183 21.669 46.1798C19.9453 46.4907 18.4477 46.0103 17.2327 44.7859C16.5169 44.07 16.1024 43.1658 15.9988 42.1297C15.9141 41.9319 16.0083 41.7153 15.9141 41.5175Z" fill="#00982F"/>
<path d="M94.6556 41.5175C94.6556 44.1454 92.5176 46.2835 89.8991 46.2835C87.2901 46.2835 85.1426 44.136 85.1426 41.5175C85.1426 38.8897 87.2712 36.761 89.8991 36.7704C92.5364 36.761 94.6556 38.8802 94.6556 41.5175Z" fill="#00982F"/>
<path d="M0.373047 39.2947C0.373047 37.8913 0.373047 36.4973 0.373047 35.0938C0.504911 34.9714 0.67445 35.0279 0.825151 35.0279C6.07146 35.0279 11.3272 35.0279 16.5735 35.0373C16.7242 35.0373 16.9597 34.8866 17.0444 35.1692C15.3961 36.1017 14.2753 37.4674 13.7384 39.2947C13.6254 39.4171 13.4747 39.3606 13.3334 39.3606C9.15143 39.3606 4.96003 39.3606 0.778057 39.3606C0.646193 39.3512 0.495492 39.4077 0.373047 39.2947Z" fill="#00982F"/>
<path d="M75.8555 21.1351C75.8555 17.4429 78.7753 14.5984 82.4204 14.5984C86.0561 14.5984 88.9854 17.4429 88.9854 21.1351C88.9854 24.8273 86.0655 27.6718 82.4204 27.6718C78.7753 27.6718 75.8555 24.8179 75.8555 21.1351ZM85.2649 21.1351C85.2649 19.3738 84.031 18.2152 82.4204 18.2152C80.8098 18.2152 79.5759 19.3832 79.5759 21.1351C79.5759 22.887 80.8098 24.0549 82.4204 24.0549C84.031 24.0549 85.2649 22.887 85.2649 21.1351Z" fill="#F6E646"/>
<path d="M98.7525 27.3233L94.7872 21.8509V27.3233H91.0762V9.99255H94.7872V20.3627L98.4982 14.9375H102.831L98.3287 21.1256L102.963 27.3138H98.7525V27.3233Z" fill="#F6E646"/>
</svg>
