<svg width="27" height="54" viewBox="0 0 27 54" fill="none" xmlns="http://www.w3.org/2000/svg">
<path d="M13.5864 0.865234C6.60332 0.865234 0.922852 6.54636 0.922852 13.5288C0.922852 22.8712 12.6067 33.9752 13.1042 34.4438C13.2402 34.5709 13.4133 34.6348 13.5864 34.6348C13.7596 34.6348 13.9327 34.5709 14.0688 34.4438C14.5661 33.9752 26.25 22.8712 26.25 13.5288C26.25 6.54636 20.5695 0.865234 13.5864 0.865234Z" fill="#00982F"/>
<rect x="6.33984" y="38.6348" width="15" height="15" rx="3" fill="#00982F"/>
<circle cx="13.8397" cy="45.6936" r="3.08824" fill="#F6E646"/>
<path d="M12.5619 9.0595C11.6317 9.30145 10.8146 9.09616 10.3699 8.9146V8.64061H8.87061V23.1511H10.3699V16.1427C12.0233 16.3407 13.4284 15.9929 14.9619 15.3923C16.7735 14.6829 18.6287 15.3003 18.8073 15.4344L18.809 8.40861C16.5659 7.6754 13.9267 8.70455 12.5619 9.0595Z" fill="#F6E646"/>
</svg>
